<mxfile host="65bd71144e">
    <diagram id="RO8Mlb69DV9IUaHBe3wE" name="Page-1">
        <mxGraphModel dx="655" dy="544" grid="1" gridSize="10" guides="1" tooltips="1" connect="1" arrows="1" fold="1" page="1" pageScale="1" pageWidth="1169" pageHeight="827" background="#FFFFFF" math="0" shadow="1">
            <root>
                <mxCell id="0"/>
                <mxCell id="1" parent="0"/>
                <mxCell id="2" value="PATIENT" style="swimlane;fontStyle=0;childLayout=stackLayout;horizontal=1;startSize=30;horizontalStack=0;resizeParent=1;resizeParentMax=0;resizeLast=0;collapsible=1;marginBottom=0;whiteSpace=wrap;html=1;fillColor=#0050ef;fontColor=#000000;strokeColor=#001DBC;" parent="1" vertex="1">
                    <mxGeometry x="204" y="185" width="160" height="90" as="geometry"/>
                </mxCell>
                <mxCell id="3" value="patientID" style="text;strokeColor=none;fillColor=none;align=left;verticalAlign=middle;spacingLeft=4;spacingRight=4;overflow=hidden;points=[[0,0.5],[1,0.5]];portConstraint=eastwest;rotatable=0;whiteSpace=wrap;html=1;fontColor=#000000;" parent="2" vertex="1">
                    <mxGeometry y="30" width="160" height="30" as="geometry"/>
                </mxCell>
                <mxCell id="4" value="name" style="text;strokeColor=none;fillColor=none;align=left;verticalAlign=middle;spacingLeft=4;spacingRight=4;overflow=hidden;points=[[0,0.5],[1,0.5]];portConstraint=eastwest;rotatable=0;whiteSpace=wrap;html=1;fontColor=#000000;" parent="2" vertex="1">
                    <mxGeometry y="60" width="160" height="30" as="geometry"/>
                </mxCell>
                <mxCell id="6" value="STAY" style="swimlane;fontStyle=0;childLayout=stackLayout;horizontal=1;startSize=30;horizontalStack=0;resizeParent=1;resizeParentMax=0;resizeLast=0;collapsible=1;marginBottom=0;whiteSpace=wrap;html=1;fillColor=#0050ef;fontColor=#000000;strokeColor=#001DBC;" parent="1" vertex="1">
                    <mxGeometry x="644" y="185" width="160" height="90" as="geometry"/>
                </mxCell>
                <mxCell id="7" value="stayID" style="text;strokeColor=none;fillColor=none;align=left;verticalAlign=middle;spacingLeft=4;spacingRight=4;overflow=hidden;points=[[0,0.5],[1,0.5]];portConstraint=eastwest;rotatable=0;whiteSpace=wrap;html=1;fontColor=#000000;" parent="6" vertex="1">
                    <mxGeometry y="30" width="160" height="30" as="geometry"/>
                </mxCell>
                <mxCell id="8" value="arrivalDate" style="text;strokeColor=none;fillColor=none;align=left;verticalAlign=middle;spacingLeft=4;spacingRight=4;overflow=hidden;points=[[0,0.5],[1,0.5]];portConstraint=eastwest;rotatable=0;whiteSpace=wrap;html=1;fontColor=#000000;" parent="6" vertex="1">
                    <mxGeometry y="60" width="160" height="30" as="geometry"/>
                </mxCell>
                <mxCell id="10" value="ROOM" style="swimlane;fontStyle=0;childLayout=stackLayout;horizontal=1;startSize=30;horizontalStack=0;resizeParent=1;resizeParentMax=0;resizeLast=0;collapsible=1;marginBottom=0;whiteSpace=wrap;html=1;fillColor=#0050ef;fontColor=#000000;strokeColor=#001DBC;" parent="1" vertex="1">
                    <mxGeometry x="804" y="425" width="160" height="90" as="geometry"/>
                </mxCell>
                <mxCell id="11" value="roomNumber" style="text;strokeColor=none;fillColor=none;align=left;verticalAlign=middle;spacingLeft=4;spacingRight=4;overflow=hidden;points=[[0,0.5],[1,0.5]];portConstraint=eastwest;rotatable=0;whiteSpace=wrap;html=1;fontColor=#000000;" parent="10" vertex="1">
                    <mxGeometry y="30" width="160" height="30" as="geometry"/>
                </mxCell>
                <mxCell id="12" value="floor" style="text;strokeColor=none;fillColor=none;align=left;verticalAlign=middle;spacingLeft=4;spacingRight=4;overflow=hidden;points=[[0,0.5],[1,0.5]];portConstraint=eastwest;rotatable=0;whiteSpace=wrap;html=1;fontColor=#000000;" parent="10" vertex="1">
                    <mxGeometry y="60" width="160" height="30" as="geometry"/>
                </mxCell>
                <mxCell id="14" value="INTERVENTIONS" style="swimlane;fontStyle=0;childLayout=stackLayout;horizontal=1;startSize=30;horizontalStack=0;resizeParent=1;resizeParentMax=0;resizeLast=0;collapsible=1;marginBottom=0;whiteSpace=wrap;html=1;fillColor=#0050ef;fontColor=#000000;strokeColor=#001DBC;" parent="1" vertex="1">
                    <mxGeometry x="524" y="425" width="160" height="90" as="geometry"/>
                </mxCell>
                <mxCell id="15" value="operationCode" style="text;strokeColor=none;fillColor=none;align=left;verticalAlign=middle;spacingLeft=4;spacingRight=4;overflow=hidden;points=[[0,0.5],[1,0.5]];portConstraint=eastwest;rotatable=0;whiteSpace=wrap;html=1;fontColor=#000000;" parent="14" vertex="1">
                    <mxGeometry y="30" width="160" height="30" as="geometry"/>
                </mxCell>
                <mxCell id="16" value="date" style="text;strokeColor=none;fillColor=none;align=left;verticalAlign=middle;spacingLeft=4;spacingRight=4;overflow=hidden;points=[[0,0.5],[1,0.5]];portConstraint=eastwest;rotatable=0;whiteSpace=wrap;html=1;fontColor=#000000;" parent="14" vertex="1">
                    <mxGeometry y="60" width="160" height="30" as="geometry"/>
                </mxCell>
                <mxCell id="18" value="DOCTOR" style="swimlane;fontStyle=0;childLayout=stackLayout;horizontal=1;startSize=30;horizontalStack=0;resizeParent=1;resizeParentMax=0;resizeLast=0;collapsible=1;marginBottom=0;whiteSpace=wrap;html=1;fillColor=#0050ef;fontColor=#000000;strokeColor=#001DBC;" parent="1" vertex="1">
                    <mxGeometry x="204" y="425" width="160" height="90" as="geometry"/>
                </mxCell>
                <mxCell id="19" value="doctorCode" style="text;strokeColor=none;fillColor=none;align=left;verticalAlign=middle;spacingLeft=4;spacingRight=4;overflow=hidden;points=[[0,0.5],[1,0.5]];portConstraint=eastwest;rotatable=0;whiteSpace=wrap;html=1;fontColor=#000000;" parent="18" vertex="1">
                    <mxGeometry y="30" width="160" height="30" as="geometry"/>
                </mxCell>
                <mxCell id="20" value="name" style="text;strokeColor=none;fillColor=none;align=left;verticalAlign=middle;spacingLeft=4;spacingRight=4;overflow=hidden;points=[[0,0.5],[1,0.5]];portConstraint=eastwest;rotatable=0;whiteSpace=wrap;html=1;fontColor=#000000;" parent="18" vertex="1">
                    <mxGeometry y="60" width="160" height="30" as="geometry"/>
                </mxCell>
                <mxCell id="22" value="have" style="rounded=1;fontColor=#000000;labelBackgroundColor=none;fillColor=none;strokeWidth=1;strokeColor=#000000;" parent="1" vertex="1">
                    <mxGeometry x="464" y="205" width="50" height="30" as="geometry"/>
                </mxCell>
                <mxCell id="24" value="take" style="rounded=1;whiteSpace=wrap;html=1;fontColor=#000000;fillColor=none;strokeColor=#000000;" parent="1" vertex="1">
                    <mxGeometry x="864" y="325" width="40" height="30" as="geometry"/>
                </mxCell>
                <mxCell id="25" value="have" style="rounded=1;whiteSpace=wrap;html=1;fontColor=#000000;fillColor=none;strokeColor=#000000;" parent="1" vertex="1">
                    <mxGeometry x="579" y="325" width="50" height="30" as="geometry"/>
                </mxCell>
                <mxCell id="26" value="Let" style="rounded=1;whiteSpace=wrap;html=1;fontColor=#000000;fillColor=none;strokeColor=#000000;" parent="1" vertex="1">
                    <mxGeometry x="414" y="457.5" width="60" height="25" as="geometry"/>
                </mxCell>
                <mxCell id="30" value="" style="endArrow=none;html=1;fontColor=#000000;strokeColor=#000000;" parent="1" edge="1">
                    <mxGeometry width="50" height="50" relative="1" as="geometry">
                        <mxPoint x="464" y="225" as="sourcePoint"/>
                        <mxPoint x="364" y="225" as="targetPoint"/>
                    </mxGeometry>
                </mxCell>
                <mxCell id="31" value="" style="endArrow=none;fontColor=none;labelBackgroundColor=none;labelBorderColor=none;noLabel=1;strokeColor=#000000;" parent="1" edge="1">
                    <mxGeometry width="50" height="50" relative="1" as="geometry">
                        <mxPoint x="644" y="225" as="sourcePoint"/>
                        <mxPoint x="514" y="225" as="targetPoint"/>
                    </mxGeometry>
                </mxCell>
                <mxCell id="33" value="" style="endArrow=none;html=1;exitX=0.006;exitY=0.067;exitDx=0;exitDy=0;exitPerimeter=0;entryX=0.5;entryY=0;entryDx=0;entryDy=0;fontColor=#000000;strokeColor=#000000;" parent="1" source="8" target="25" edge="1">
                    <mxGeometry width="50" height="50" relative="1" as="geometry">
                        <mxPoint x="484" y="245" as="sourcePoint"/>
                        <mxPoint x="554" y="285" as="targetPoint"/>
                        <Array as="points">
                            <mxPoint x="604" y="248"/>
                        </Array>
                    </mxGeometry>
                </mxCell>
                <mxCell id="34" value="" style="endArrow=none;html=1;exitX=0.5;exitY=0;exitDx=0;exitDy=0;entryX=0.5;entryY=1;entryDx=0;entryDy=0;fontColor=#000000;strokeColor=#000000;" parent="1" source="14" target="25" edge="1">
                    <mxGeometry width="50" height="50" relative="1" as="geometry">
                        <mxPoint x="494" y="255" as="sourcePoint"/>
                        <mxPoint x="394" y="255" as="targetPoint"/>
                    </mxGeometry>
                </mxCell>
                <mxCell id="35" value="" style="endArrow=none;html=1;entryX=1;entryY=0.5;entryDx=0;entryDy=0;exitX=0;exitY=0.5;exitDx=0;exitDy=0;fontColor=#000000;strokeColor=#000000;" parent="1" source="26" target="19" edge="1">
                    <mxGeometry width="50" height="50" relative="1" as="geometry">
                        <mxPoint x="504" y="265" as="sourcePoint"/>
                        <mxPoint x="404" y="265" as="targetPoint"/>
                    </mxGeometry>
                </mxCell>
                <mxCell id="36" value="" style="endArrow=none;html=1;entryX=1;entryY=0.5;entryDx=0;entryDy=0;exitX=0;exitY=0.5;exitDx=0;exitDy=0;fontColor=#000000;strokeColor=#000000;" parent="1" source="15" target="26" edge="1">
                    <mxGeometry width="50" height="50" relative="1" as="geometry">
                        <mxPoint x="514" y="275" as="sourcePoint"/>
                        <mxPoint x="414" y="275" as="targetPoint"/>
                    </mxGeometry>
                </mxCell>
                <mxCell id="37" value="" style="endArrow=none;html=1;exitX=1;exitY=0.5;exitDx=0;exitDy=0;entryX=0.5;entryY=0;entryDx=0;entryDy=0;fontColor=#000000;strokeColor=#000000;" parent="1" source="7" target="24" edge="1">
                    <mxGeometry width="50" height="50" relative="1" as="geometry">
                        <mxPoint x="524" y="285" as="sourcePoint"/>
                        <mxPoint x="424" y="285" as="targetPoint"/>
                        <Array as="points">
                            <mxPoint x="884" y="230"/>
                        </Array>
                    </mxGeometry>
                </mxCell>
                <mxCell id="38" value="" style="endArrow=none;html=1;exitX=0.5;exitY=0;exitDx=0;exitDy=0;entryX=0.5;entryY=1;entryDx=0;entryDy=0;fontColor=#000000;strokeColor=#000000;" parent="1" source="10" target="24" edge="1">
                    <mxGeometry width="50" height="50" relative="1" as="geometry">
                        <mxPoint x="534" y="295" as="sourcePoint"/>
                        <mxPoint x="434" y="295" as="targetPoint"/>
                    </mxGeometry>
                </mxCell>
                <mxCell id="39" value="0,1" style="text;html=1;align=center;verticalAlign=middle;resizable=0;points=[];autosize=1;strokeColor=none;fillColor=none;fontColor=#000000;" parent="1" vertex="1">
                    <mxGeometry x="364" y="200" width="40" height="30" as="geometry"/>
                </mxCell>
                <mxCell id="40" value="1,n" style="text;html=1;align=center;verticalAlign=middle;resizable=0;points=[];autosize=1;strokeColor=none;fillColor=none;fontColor=#000000;" parent="1" vertex="1">
                    <mxGeometry x="594" y="200" width="40" height="30" as="geometry"/>
                </mxCell>
                <mxCell id="41" value="&lt;font color=&quot;#ff0000&quot; style=&quot;font-size: 16px;&quot;&gt;&lt;b style=&quot;&quot;&gt;Question 01&lt;/b&gt;&lt;/font&gt;" style="text;html=1;align=center;verticalAlign=middle;resizable=0;points=[];autosize=1;strokeColor=none;fillColor=none;fontColor=#000000;" parent="1" vertex="1">
                    <mxGeometry x="514" y="40" width="120" height="30" as="geometry"/>
                </mxCell>
                <mxCell id="42" value="&lt;font color=&quot;#ff0000&quot;&gt;&amp;nbsp; &amp;nbsp; &amp;nbsp; &amp;nbsp; &amp;nbsp; &amp;nbsp; &amp;nbsp; &amp;nbsp; &amp;nbsp; &amp;nbsp; &amp;nbsp; &amp;nbsp;Concenptional Data Model&lt;/font&gt;" style="text;html=1;align=center;verticalAlign=middle;resizable=0;points=[];autosize=1;strokeColor=none;fillColor=none;fontSize=16;fontColor=#000000;" parent="1" vertex="1">
                    <mxGeometry x="90" y="110" width="310" height="30" as="geometry"/>
                </mxCell>
                <mxCell id="BfHMCdmZL6r2gHwuKMxg-42" value="&lt;font style=&quot;font-size: 12px;&quot;&gt;1,n&lt;/font&gt;" style="text;html=1;align=center;verticalAlign=middle;resizable=0;points=[];autosize=1;strokeColor=none;fillColor=none;fontSize=16;fontColor=#000000;" parent="1" vertex="1">
                    <mxGeometry x="364" y="440" width="40" height="30" as="geometry"/>
                </mxCell>
                <mxCell id="BfHMCdmZL6r2gHwuKMxg-43" value="0,n" style="text;html=1;align=center;verticalAlign=middle;resizable=0;points=[];autosize=1;strokeColor=none;fillColor=none;fontSize=12;fontColor=#000000;" parent="1" vertex="1">
                    <mxGeometry x="480" y="440" width="40" height="30" as="geometry"/>
                </mxCell>
                <mxCell id="BfHMCdmZL6r2gHwuKMxg-45" value="0,n" style="text;html=1;align=center;verticalAlign=middle;resizable=0;points=[];autosize=1;strokeColor=none;fillColor=none;fontSize=12;fontColor=#000000;" parent="1" vertex="1">
                    <mxGeometry x="820" y="205" width="40" height="30" as="geometry"/>
                </mxCell>
                <mxCell id="BfHMCdmZL6r2gHwuKMxg-46" value="1,n" style="text;html=1;align=center;verticalAlign=middle;resizable=0;points=[];autosize=1;strokeColor=none;fillColor=none;fontSize=12;fontColor=#000000;" parent="1" vertex="1">
                    <mxGeometry x="880" y="385" width="40" height="30" as="geometry"/>
                </mxCell>
                <mxCell id="BfHMCdmZL6r2gHwuKMxg-47" value="1,n" style="text;html=1;align=center;verticalAlign=middle;resizable=0;points=[];autosize=1;strokeColor=none;fillColor=none;fontSize=12;fontColor=#000000;" parent="1" vertex="1">
                    <mxGeometry x="600" y="255" width="40" height="30" as="geometry"/>
                </mxCell>
                <mxCell id="BfHMCdmZL6r2gHwuKMxg-48" value="0,n" style="text;html=1;align=center;verticalAlign=middle;resizable=0;points=[];autosize=1;strokeColor=none;fillColor=none;fontSize=12;fontColor=#000000;" parent="1" vertex="1">
                    <mxGeometry x="600" y="395" width="40" height="30" as="geometry"/>
                </mxCell>
            </root>
        </mxGraphModel>
    </diagram>
    <diagram id="butiKssMekIDF3bTNwj4" name="Page-2">
        <mxGraphModel dx="655" dy="544" grid="1" gridSize="10" guides="1" tooltips="1" connect="1" arrows="1" fold="1" page="1" pageScale="1" pageWidth="1169" pageHeight="827" background="#ffffff" math="0" shadow="0">
            <root>
                <mxCell id="0"/>
                <mxCell id="1" parent="0"/>
                <mxCell id="8TP7V2wKlnL483jSaAVB-1" value="PATIENT" style="swimlane;fontStyle=0;childLayout=stackLayout;horizontal=1;startSize=30;horizontalStack=0;resizeParent=1;resizeParentMax=0;resizeLast=0;collapsible=1;marginBottom=0;whiteSpace=wrap;html=1;fillColor=#0050ef;fontColor=#000000;strokeColor=#001DBC;" parent="1" vertex="1">
                    <mxGeometry x="270" y="195" width="196" height="180" as="geometry"/>
                </mxCell>
                <mxCell id="8TP7V2wKlnL483jSaAVB-2" value="patientID &lt;font color=&quot;#ff0000&quot;&gt;&lt;b&gt;PK&lt;/b&gt;&lt;/font&gt;&amp;nbsp;" style="text;strokeColor=none;fillColor=none;align=left;verticalAlign=middle;spacingLeft=4;spacingRight=4;overflow=hidden;points=[[0,0.5],[1,0.5]];portConstraint=eastwest;rotatable=0;whiteSpace=wrap;html=1;fontColor=#000000;" parent="8TP7V2wKlnL483jSaAVB-1" vertex="1">
                    <mxGeometry y="30" width="196" height="30" as="geometry"/>
                </mxCell>
                <mxCell id="8TP7V2wKlnL483jSaAVB-3" value="name" style="text;strokeColor=none;fillColor=none;align=left;verticalAlign=middle;spacingLeft=4;spacingRight=4;overflow=hidden;points=[[0,0.5],[1,0.5]];portConstraint=eastwest;rotatable=0;whiteSpace=wrap;html=1;fontColor=#000000;" parent="8TP7V2wKlnL483jSaAVB-1" vertex="1">
                    <mxGeometry y="60" width="196" height="30" as="geometry"/>
                </mxCell>
                <mxCell id="Fm8jCkzYTNWkOouJmWlv-1" value="firstName" style="text;strokeColor=none;fillColor=none;align=left;verticalAlign=middle;spacingLeft=4;spacingRight=4;overflow=hidden;points=[[0,0.5],[1,0.5]];portConstraint=eastwest;rotatable=0;whiteSpace=wrap;html=1;fontColor=#000000;" parent="8TP7V2wKlnL483jSaAVB-1" vertex="1">
                    <mxGeometry y="90" width="196" height="30" as="geometry"/>
                </mxCell>
                <mxCell id="Fm8jCkzYTNWkOouJmWlv-2" value="address" style="text;strokeColor=none;fillColor=none;align=left;verticalAlign=middle;spacingLeft=4;spacingRight=4;overflow=hidden;points=[[0,0.5],[1,0.5]];portConstraint=eastwest;rotatable=0;whiteSpace=wrap;html=1;fontColor=#000000;" parent="8TP7V2wKlnL483jSaAVB-1" vertex="1">
                    <mxGeometry y="120" width="196" height="30" as="geometry"/>
                </mxCell>
                <mxCell id="Fm8jCkzYTNWkOouJmWlv-3" value="healthInsuranceFundName" style="text;strokeColor=none;fillColor=none;align=left;verticalAlign=middle;spacingLeft=4;spacingRight=4;overflow=hidden;points=[[0,0.5],[1,0.5]];portConstraint=eastwest;rotatable=0;whiteSpace=wrap;html=1;fontColor=#000000;" parent="8TP7V2wKlnL483jSaAVB-1" vertex="1">
                    <mxGeometry y="150" width="196" height="30" as="geometry"/>
                </mxCell>
                <mxCell id="8TP7V2wKlnL483jSaAVB-4" value="STAY" style="swimlane;fontStyle=0;childLayout=stackLayout;horizontal=1;startSize=30;horizontalStack=0;resizeParent=1;resizeParentMax=0;resizeLast=0;collapsible=1;marginBottom=0;whiteSpace=wrap;html=1;fillColor=#0050ef;fontColor=#000000;strokeColor=#001DBC;" parent="1" vertex="1">
                    <mxGeometry x="726" y="195" width="160" height="180" as="geometry"/>
                </mxCell>
                <mxCell id="8TP7V2wKlnL483jSaAVB-5" value="stayID&amp;nbsp;&lt;b style=&quot;&quot;&gt;&lt;font color=&quot;#ff0000&quot;&gt;PK&lt;/font&gt;&lt;/b&gt;" style="text;strokeColor=none;fillColor=none;align=left;verticalAlign=middle;spacingLeft=4;spacingRight=4;overflow=hidden;points=[[0,0.5],[1,0.5]];portConstraint=eastwest;rotatable=0;whiteSpace=wrap;html=1;fontColor=#000000;" parent="8TP7V2wKlnL483jSaAVB-4" vertex="1">
                    <mxGeometry y="30" width="160" height="30" as="geometry"/>
                </mxCell>
                <mxCell id="8TP7V2wKlnL483jSaAVB-6" value="patientID &lt;b&gt;&lt;font color=&quot;#ff0000&quot;&gt;FK&lt;/font&gt;&lt;/b&gt;" style="text;strokeColor=none;fillColor=none;align=left;verticalAlign=middle;spacingLeft=4;spacingRight=4;overflow=hidden;points=[[0,0.5],[1,0.5]];portConstraint=eastwest;rotatable=0;whiteSpace=wrap;html=1;fontColor=#000000;" parent="8TP7V2wKlnL483jSaAVB-4" vertex="1">
                    <mxGeometry y="60" width="160" height="30" as="geometry"/>
                </mxCell>
                <mxCell id="Fm8jCkzYTNWkOouJmWlv-10" value="arrivalDate" style="text;strokeColor=none;fillColor=none;align=left;verticalAlign=middle;spacingLeft=4;spacingRight=4;overflow=hidden;points=[[0,0.5],[1,0.5]];portConstraint=eastwest;rotatable=0;whiteSpace=wrap;html=1;fontColor=#000000;" parent="8TP7V2wKlnL483jSaAVB-4" vertex="1">
                    <mxGeometry y="90" width="160" height="30" as="geometry"/>
                </mxCell>
                <mxCell id="Fm8jCkzYTNWkOouJmWlv-11" value="departureDate" style="text;strokeColor=none;fillColor=none;align=left;verticalAlign=middle;spacingLeft=4;spacingRight=4;overflow=hidden;points=[[0,0.5],[1,0.5]];portConstraint=eastwest;rotatable=0;whiteSpace=wrap;html=1;fontColor=#000000;" parent="8TP7V2wKlnL483jSaAVB-4" vertex="1">
                    <mxGeometry y="120" width="160" height="30" as="geometry"/>
                </mxCell>
                <mxCell id="Fm8jCkzYTNWkOouJmWlv-12" value="roomNumber &lt;b style=&quot;&quot;&gt;&lt;font color=&quot;#ff0000&quot;&gt;FK&lt;/font&gt;&lt;/b&gt;" style="text;strokeColor=none;fillColor=none;align=left;verticalAlign=middle;spacingLeft=4;spacingRight=4;overflow=hidden;points=[[0,0.5],[1,0.5]];portConstraint=eastwest;rotatable=0;whiteSpace=wrap;html=1;fontColor=#000000;" parent="8TP7V2wKlnL483jSaAVB-4" vertex="1">
                    <mxGeometry y="150" width="160" height="30" as="geometry"/>
                </mxCell>
                <mxCell id="8TP7V2wKlnL483jSaAVB-7" value="ROOM" style="swimlane;fontStyle=0;childLayout=stackLayout;horizontal=1;startSize=30;horizontalStack=0;resizeParent=1;resizeParentMax=0;resizeLast=0;collapsible=1;marginBottom=0;whiteSpace=wrap;html=1;fillColor=#0050ef;fontColor=#000000;strokeColor=#001DBC;" parent="1" vertex="1">
                    <mxGeometry x="870" y="435" width="160" height="120" as="geometry"/>
                </mxCell>
                <mxCell id="8TP7V2wKlnL483jSaAVB-8" value="roomNumber&amp;nbsp;&lt;b style=&quot;&quot;&gt;&lt;font color=&quot;#ff0000&quot;&gt;PK&lt;/font&gt;&lt;/b&gt;" style="text;strokeColor=none;fillColor=none;align=left;verticalAlign=middle;spacingLeft=4;spacingRight=4;overflow=hidden;points=[[0,0.5],[1,0.5]];portConstraint=eastwest;rotatable=0;whiteSpace=wrap;html=1;fontColor=#000000;" parent="8TP7V2wKlnL483jSaAVB-7" vertex="1">
                    <mxGeometry y="30" width="160" height="30" as="geometry"/>
                </mxCell>
                <mxCell id="8TP7V2wKlnL483jSaAVB-9" value="floor" style="text;strokeColor=none;fillColor=none;align=left;verticalAlign=middle;spacingLeft=4;spacingRight=4;overflow=hidden;points=[[0,0.5],[1,0.5]];portConstraint=eastwest;rotatable=0;whiteSpace=wrap;html=1;fontColor=#000000;" parent="8TP7V2wKlnL483jSaAVB-7" vertex="1">
                    <mxGeometry y="60" width="160" height="30" as="geometry"/>
                </mxCell>
                <mxCell id="Fm8jCkzYTNWkOouJmWlv-13" value="departmentName" style="text;strokeColor=none;fillColor=none;align=left;verticalAlign=middle;spacingLeft=4;spacingRight=4;overflow=hidden;points=[[0,0.5],[1,0.5]];portConstraint=eastwest;rotatable=0;whiteSpace=wrap;html=1;fontColor=#000000;" parent="8TP7V2wKlnL483jSaAVB-7" vertex="1">
                    <mxGeometry y="90" width="160" height="30" as="geometry"/>
                </mxCell>
                <mxCell id="8TP7V2wKlnL483jSaAVB-10" value="INTERVENTIONS" style="swimlane;fontStyle=0;childLayout=stackLayout;horizontal=1;startSize=30;horizontalStack=0;resizeParent=1;resizeParentMax=0;resizeLast=0;collapsible=1;marginBottom=0;whiteSpace=wrap;html=1;fillColor=#0050ef;fontColor=#000000;strokeColor=#001DBC;" parent="1" vertex="1">
                    <mxGeometry x="590" y="435" width="160" height="150" as="geometry"/>
                </mxCell>
                <mxCell id="8TP7V2wKlnL483jSaAVB-11" value="operationCode&amp;nbsp;&lt;b style=&quot;&quot;&gt;&lt;font color=&quot;#ff0000&quot;&gt;PK&lt;/font&gt;&lt;/b&gt;" style="text;strokeColor=none;fillColor=none;align=left;verticalAlign=middle;spacingLeft=4;spacingRight=4;overflow=hidden;points=[[0,0.5],[1,0.5]];portConstraint=eastwest;rotatable=0;whiteSpace=wrap;html=1;fontColor=#000000;" parent="8TP7V2wKlnL483jSaAVB-10" vertex="1">
                    <mxGeometry y="30" width="160" height="30" as="geometry"/>
                </mxCell>
                <mxCell id="8TP7V2wKlnL483jSaAVB-12" value="date" style="text;strokeColor=none;fillColor=none;align=left;verticalAlign=middle;spacingLeft=4;spacingRight=4;overflow=hidden;points=[[0,0.5],[1,0.5]];portConstraint=eastwest;rotatable=0;whiteSpace=wrap;html=1;fontColor=#000000;" parent="8TP7V2wKlnL483jSaAVB-10" vertex="1">
                    <mxGeometry y="60" width="160" height="30" as="geometry"/>
                </mxCell>
                <mxCell id="Fm8jCkzYTNWkOouJmWlv-8" value="name" style="text;strokeColor=none;fillColor=none;align=left;verticalAlign=middle;spacingLeft=4;spacingRight=4;overflow=hidden;points=[[0,0.5],[1,0.5]];portConstraint=eastwest;rotatable=0;whiteSpace=wrap;html=1;fontColor=#000000;" parent="8TP7V2wKlnL483jSaAVB-10" vertex="1">
                    <mxGeometry y="90" width="160" height="30" as="geometry"/>
                </mxCell>
                <mxCell id="Fm8jCkzYTNWkOouJmWlv-9" value="doctorCode&amp;nbsp;&lt;b style=&quot;&quot;&gt;&lt;font color=&quot;#ff0000&quot;&gt;FK&lt;/font&gt;&lt;/b&gt;" style="text;strokeColor=none;fillColor=none;align=left;verticalAlign=middle;spacingLeft=4;spacingRight=4;overflow=hidden;points=[[0,0.5],[1,0.5]];portConstraint=eastwest;rotatable=0;whiteSpace=wrap;html=1;fontColor=#000000;" parent="8TP7V2wKlnL483jSaAVB-10" vertex="1">
                    <mxGeometry y="120" width="160" height="30" as="geometry"/>
                </mxCell>
                <mxCell id="8TP7V2wKlnL483jSaAVB-13" value="DOCTOR" style="swimlane;fontStyle=0;childLayout=stackLayout;horizontal=1;startSize=30;horizontalStack=0;resizeParent=1;resizeParentMax=0;resizeLast=0;collapsible=1;marginBottom=0;whiteSpace=wrap;html=1;fillColor=#0050ef;fontColor=#000000;strokeColor=#001DBC;" parent="1" vertex="1">
                    <mxGeometry x="270" y="435" width="160" height="150" as="geometry"/>
                </mxCell>
                <mxCell id="8TP7V2wKlnL483jSaAVB-14" value="doctorCode&amp;nbsp;&lt;b style=&quot;&quot;&gt;&lt;font color=&quot;#ff0000&quot;&gt;PK&lt;/font&gt;&lt;/b&gt;" style="text;strokeColor=none;fillColor=none;align=left;verticalAlign=middle;spacingLeft=4;spacingRight=4;overflow=hidden;points=[[0,0.5],[1,0.5]];portConstraint=eastwest;rotatable=0;whiteSpace=wrap;html=1;fontColor=#000000;" parent="8TP7V2wKlnL483jSaAVB-13" vertex="1">
                    <mxGeometry y="30" width="160" height="30" as="geometry"/>
                </mxCell>
                <mxCell id="8TP7V2wKlnL483jSaAVB-15" value="lastName" style="text;strokeColor=none;fillColor=none;align=left;verticalAlign=middle;spacingLeft=4;spacingRight=4;overflow=hidden;points=[[0,0.5],[1,0.5]];portConstraint=eastwest;rotatable=0;whiteSpace=wrap;html=1;fontColor=#000000;" parent="8TP7V2wKlnL483jSaAVB-13" vertex="1">
                    <mxGeometry y="60" width="160" height="30" as="geometry"/>
                </mxCell>
                <mxCell id="Fm8jCkzYTNWkOouJmWlv-6" value="firstName" style="text;strokeColor=none;fillColor=none;align=left;verticalAlign=middle;spacingLeft=4;spacingRight=4;overflow=hidden;points=[[0,0.5],[1,0.5]];portConstraint=eastwest;rotatable=0;whiteSpace=wrap;html=1;fontColor=#000000;" parent="8TP7V2wKlnL483jSaAVB-13" vertex="1">
                    <mxGeometry y="90" width="160" height="30" as="geometry"/>
                </mxCell>
                <mxCell id="Fm8jCkzYTNWkOouJmWlv-7" value="speciality" style="text;strokeColor=none;fillColor=none;align=left;verticalAlign=middle;spacingLeft=4;spacingRight=4;overflow=hidden;points=[[0,0.5],[1,0.5]];portConstraint=eastwest;rotatable=0;whiteSpace=wrap;html=1;fontColor=#000000;" parent="8TP7V2wKlnL483jSaAVB-13" vertex="1">
                    <mxGeometry y="120" width="160" height="30" as="geometry"/>
                </mxCell>
                <mxCell id="8TP7V2wKlnL483jSaAVB-28" value="0,1" style="text;html=1;align=center;verticalAlign=middle;resizable=0;points=[];autosize=1;strokeColor=none;fillColor=none;fontColor=#000000;" parent="1" vertex="1">
                    <mxGeometry x="476" y="210" width="40" height="30" as="geometry"/>
                </mxCell>
                <mxCell id="8TP7V2wKlnL483jSaAVB-29" value="1,n" style="text;html=1;align=center;verticalAlign=middle;resizable=0;points=[];autosize=1;strokeColor=none;fillColor=none;fontColor=#000000;" parent="1" vertex="1">
                    <mxGeometry x="676" y="210" width="40" height="30" as="geometry"/>
                </mxCell>
                <mxCell id="8TP7V2wKlnL483jSaAVB-30" value="&lt;font color=&quot;#ff0000&quot; style=&quot;font-size: 16px;&quot;&gt;&lt;b&gt;Question 01&lt;/b&gt;&lt;/font&gt;" style="text;html=1;align=center;verticalAlign=middle;resizable=0;points=[];autosize=1;strokeColor=none;fillColor=none;fontColor=#000000;" parent="1" vertex="1">
                    <mxGeometry x="524" y="50" width="120" height="30" as="geometry"/>
                </mxCell>
                <mxCell id="8TP7V2wKlnL483jSaAVB-31" value="&lt;font color=&quot;#ff0000&quot;&gt;&lt;b&gt;&amp;nbsp; &amp;nbsp; &amp;nbsp; &amp;nbsp; &amp;nbsp; &amp;nbsp; &amp;nbsp; &amp;nbsp; &amp;nbsp; &amp;nbsp; &amp;nbsp; &amp;nbsp;Logical Data Model&lt;/b&gt;&lt;/font&gt;" style="text;html=1;align=center;verticalAlign=middle;resizable=0;points=[];autosize=1;strokeColor=none;fillColor=none;fontSize=16;fontColor=#000000;" parent="1" vertex="1">
                    <mxGeometry x="166" y="120" width="270" height="30" as="geometry"/>
                </mxCell>
                <mxCell id="8TP7V2wKlnL483jSaAVB-32" value="&lt;font style=&quot;font-size: 12px;&quot;&gt;1,n&lt;/font&gt;" style="text;html=1;align=center;verticalAlign=middle;resizable=0;points=[];autosize=1;strokeColor=none;fillColor=none;fontSize=16;fontColor=#000000;" parent="1" vertex="1">
                    <mxGeometry x="436" y="455" width="40" height="30" as="geometry"/>
                </mxCell>
                <mxCell id="8TP7V2wKlnL483jSaAVB-33" value="0,n" style="text;html=1;align=center;verticalAlign=middle;resizable=0;points=[];autosize=1;strokeColor=none;fillColor=none;fontSize=12;fontColor=#000000;" parent="1" vertex="1">
                    <mxGeometry x="546" y="455" width="40" height="30" as="geometry"/>
                </mxCell>
                <mxCell id="8TP7V2wKlnL483jSaAVB-34" value="0,n" style="text;html=1;align=center;verticalAlign=middle;resizable=0;points=[];autosize=1;strokeColor=none;fillColor=none;fontSize=12;fontColor=#000000;" parent="1" vertex="1">
                    <mxGeometry x="890" y="215" width="40" height="30" as="geometry"/>
                </mxCell>
                <mxCell id="8TP7V2wKlnL483jSaAVB-35" value="1,n" style="text;html=1;align=center;verticalAlign=middle;resizable=0;points=[];autosize=1;strokeColor=none;fillColor=none;fontSize=12;fontColor=#000000;" parent="1" vertex="1">
                    <mxGeometry x="946" y="395" width="40" height="30" as="geometry"/>
                </mxCell>
                <mxCell id="8TP7V2wKlnL483jSaAVB-36" value="1,n" style="text;html=1;align=center;verticalAlign=middle;resizable=0;points=[];autosize=1;strokeColor=none;fillColor=none;fontSize=12;fontColor=#000000;" parent="1" vertex="1">
                    <mxGeometry x="686" y="270" width="40" height="30" as="geometry"/>
                </mxCell>
                <mxCell id="8TP7V2wKlnL483jSaAVB-37" value="0,n" style="text;html=1;align=center;verticalAlign=middle;resizable=0;points=[];autosize=1;strokeColor=none;fillColor=none;fontSize=12;fontColor=#000000;" parent="1" vertex="1">
                    <mxGeometry x="636" y="405" width="40" height="30" as="geometry"/>
                </mxCell>
                <mxCell id="SYTk_ZMheSnamFdRtwQ0-1" style="edgeStyle=none;html=1;entryX=0;entryY=0.5;entryDx=0;entryDy=0;fontSize=12;fontColor=#000000;exitX=1;exitY=0.5;exitDx=0;exitDy=0;strokeColor=#000000;" parent="1" source="8TP7V2wKlnL483jSaAVB-2" target="8TP7V2wKlnL483jSaAVB-5" edge="1">
                    <mxGeometry relative="1" as="geometry"/>
                </mxCell>
                <mxCell id="SYTk_ZMheSnamFdRtwQ0-2" style="edgeStyle=none;html=1;entryX=0.25;entryY=0;entryDx=0;entryDy=0;fontSize=12;fontColor=#000000;strokeColor=#000000;" parent="1" source="8TP7V2wKlnL483jSaAVB-6" target="8TP7V2wKlnL483jSaAVB-10" edge="1">
                    <mxGeometry relative="1" as="geometry">
                        <Array as="points">
                            <mxPoint x="630" y="270"/>
                        </Array>
                    </mxGeometry>
                </mxCell>
                <mxCell id="SYTk_ZMheSnamFdRtwQ0-3" style="edgeStyle=none;html=1;exitX=1;exitY=0.5;exitDx=0;exitDy=0;entryX=0.75;entryY=0;entryDx=0;entryDy=0;fontSize=12;fontColor=#000000;strokeColor=#000000;" parent="1" source="8TP7V2wKlnL483jSaAVB-5" target="8TP7V2wKlnL483jSaAVB-7" edge="1">
                    <mxGeometry relative="1" as="geometry">
                        <Array as="points">
                            <mxPoint x="990" y="240"/>
                        </Array>
                    </mxGeometry>
                </mxCell>
                <mxCell id="SYTk_ZMheSnamFdRtwQ0-4" style="edgeStyle=none;html=1;exitX=1;exitY=0.5;exitDx=0;exitDy=0;fontSize=12;fontColor=#000000;strokeColor=#000000;" parent="1" source="8TP7V2wKlnL483jSaAVB-14" target="8TP7V2wKlnL483jSaAVB-11" edge="1">
                    <mxGeometry relative="1" as="geometry"/>
                </mxCell>
            </root>
        </mxGraphModel>
    </diagram>
    <diagram id="N4jcXyIR9QM_YtdzfWj7" name="Page-3">
        <mxGraphModel dx="1066" dy="640" grid="1" gridSize="10" guides="1" tooltips="1" connect="1" arrows="1" fold="1" page="1" pageScale="1" pageWidth="1169" pageHeight="827" background="#ffffff" math="0" shadow="0">
            <root>
                <mxCell id="0"/>
                <mxCell id="1" parent="0"/>
                <mxCell id="DYG0ocCDO50_dI9Aoc4d-1" value="DOCTOR" style="swimlane;fontStyle=0;childLayout=stackLayout;horizontal=1;startSize=30;horizontalStack=0;resizeParent=1;resizeParentMax=0;resizeLast=0;collapsible=1;marginBottom=0;whiteSpace=wrap;html=1;fillColor=#0050ef;fontColor=#000000;strokeColor=#001DBC;" vertex="1" parent="1">
                    <mxGeometry x="270" y="195" width="196" height="120" as="geometry"/>
                </mxCell>
                <mxCell id="DYG0ocCDO50_dI9Aoc4d-2" value="doctorID &lt;font color=&quot;#ff0000&quot;&gt;&lt;b&gt;PK&lt;/b&gt;&lt;/font&gt;&amp;nbsp;" style="text;strokeColor=none;fillColor=none;align=left;verticalAlign=middle;spacingLeft=4;spacingRight=4;overflow=hidden;points=[[0,0.5],[1,0.5]];portConstraint=eastwest;rotatable=0;whiteSpace=wrap;html=1;fontColor=#000000;" vertex="1" parent="DYG0ocCDO50_dI9Aoc4d-1">
                    <mxGeometry y="30" width="196" height="30" as="geometry"/>
                </mxCell>
                <mxCell id="DYG0ocCDO50_dI9Aoc4d-3" value="lastName" style="text;strokeColor=none;fillColor=none;align=left;verticalAlign=middle;spacingLeft=4;spacingRight=4;overflow=hidden;points=[[0,0.5],[1,0.5]];portConstraint=eastwest;rotatable=0;whiteSpace=wrap;html=1;fontColor=#000000;" vertex="1" parent="DYG0ocCDO50_dI9Aoc4d-1">
                    <mxGeometry y="60" width="196" height="30" as="geometry"/>
                </mxCell>
                <mxCell id="DYG0ocCDO50_dI9Aoc4d-41" value="firstName" style="text;strokeColor=none;fillColor=none;align=left;verticalAlign=middle;spacingLeft=4;spacingRight=4;overflow=hidden;points=[[0,0.5],[1,0.5]];portConstraint=eastwest;rotatable=0;whiteSpace=wrap;html=1;fontColor=#000000;" vertex="1" parent="DYG0ocCDO50_dI9Aoc4d-1">
                    <mxGeometry y="90" width="196" height="30" as="geometry"/>
                </mxCell>
                <mxCell id="_qpmjWrmrqkB1k-XIgsL-1" style="edgeStyle=none;html=1;entryX=1;entryY=0.5;entryDx=0;entryDy=0;fontColor=#FF0000;strokeColor=#000000;" edge="1" parent="1" source="DYG0ocCDO50_dI9Aoc4d-7" target="DYG0ocCDO50_dI9Aoc4d-18">
                    <mxGeometry relative="1" as="geometry">
                        <Array as="points">
                            <mxPoint x="806" y="480"/>
                        </Array>
                    </mxGeometry>
                </mxCell>
                <mxCell id="DYG0ocCDO50_dI9Aoc4d-7" value="CONSULTATION" style="swimlane;fontStyle=0;childLayout=stackLayout;horizontal=1;startSize=30;horizontalStack=0;resizeParent=1;resizeParentMax=0;resizeLast=0;collapsible=1;marginBottom=0;whiteSpace=wrap;html=1;fillColor=#0050ef;fontColor=#000000;strokeColor=#001DBC;" vertex="1" parent="1">
                    <mxGeometry x="726" y="195" width="160" height="150" as="geometry"/>
                </mxCell>
                <mxCell id="DYG0ocCDO50_dI9Aoc4d-8" value="ConsultationID&amp;nbsp;&lt;b style=&quot;&quot;&gt;&lt;font color=&quot;#ff0000&quot;&gt;PK&lt;/font&gt;&lt;/b&gt;" style="text;strokeColor=none;fillColor=none;align=left;verticalAlign=middle;spacingLeft=4;spacingRight=4;overflow=hidden;points=[[0,0.5],[1,0.5]];portConstraint=eastwest;rotatable=0;whiteSpace=wrap;html=1;fontColor=#000000;" vertex="1" parent="DYG0ocCDO50_dI9Aoc4d-7">
                    <mxGeometry y="30" width="160" height="30" as="geometry"/>
                </mxCell>
                <mxCell id="DYG0ocCDO50_dI9Aoc4d-9" value="sickID" style="text;strokeColor=none;fillColor=none;align=left;verticalAlign=middle;spacingLeft=4;spacingRight=4;overflow=hidden;points=[[0,0.5],[1,0.5]];portConstraint=eastwest;rotatable=0;whiteSpace=wrap;html=1;fontColor=#000000;" vertex="1" parent="DYG0ocCDO50_dI9Aoc4d-7">
                    <mxGeometry y="60" width="160" height="30" as="geometry"/>
                </mxCell>
                <mxCell id="DYG0ocCDO50_dI9Aoc4d-10" value="date" style="text;strokeColor=none;fillColor=none;align=left;verticalAlign=middle;spacingLeft=4;spacingRight=4;overflow=hidden;points=[[0,0.5],[1,0.5]];portConstraint=eastwest;rotatable=0;whiteSpace=wrap;html=1;fontColor=#000000;" vertex="1" parent="DYG0ocCDO50_dI9Aoc4d-7">
                    <mxGeometry y="90" width="160" height="30" as="geometry"/>
                </mxCell>
                <mxCell id="DYG0ocCDO50_dI9Aoc4d-11" value="price" style="text;strokeColor=none;fillColor=none;align=left;verticalAlign=middle;spacingLeft=4;spacingRight=4;overflow=hidden;points=[[0,0.5],[1,0.5]];portConstraint=eastwest;rotatable=0;whiteSpace=wrap;html=1;fontColor=#000000;" vertex="1" parent="DYG0ocCDO50_dI9Aoc4d-7">
                    <mxGeometry y="120" width="160" height="30" as="geometry"/>
                </mxCell>
                <mxCell id="DYG0ocCDO50_dI9Aoc4d-13" value="SICK" style="swimlane;fontStyle=0;childLayout=stackLayout;horizontal=1;startSize=30;horizontalStack=0;resizeParent=1;resizeParentMax=0;resizeLast=0;collapsible=1;marginBottom=0;whiteSpace=wrap;html=1;fillColor=#0050ef;fontColor=#000000;strokeColor=#001DBC;" vertex="1" parent="1">
                    <mxGeometry x="870" y="435" width="160" height="90" as="geometry"/>
                </mxCell>
                <mxCell id="DYG0ocCDO50_dI9Aoc4d-14" value="sickID&amp;nbsp; &lt;b&gt;&lt;font color=&quot;#ff0000&quot;&gt;PK&lt;/font&gt;&lt;/b&gt;" style="text;strokeColor=none;fillColor=none;align=left;verticalAlign=middle;spacingLeft=4;spacingRight=4;overflow=hidden;points=[[0,0.5],[1,0.5]];portConstraint=eastwest;rotatable=0;whiteSpace=wrap;html=1;fontColor=#000000;" vertex="1" parent="DYG0ocCDO50_dI9Aoc4d-13">
                    <mxGeometry y="30" width="160" height="30" as="geometry"/>
                </mxCell>
                <mxCell id="DYG0ocCDO50_dI9Aoc4d-15" value="name" style="text;strokeColor=none;fillColor=none;align=left;verticalAlign=middle;spacingLeft=4;spacingRight=4;overflow=hidden;points=[[0,0.5],[1,0.5]];portConstraint=eastwest;rotatable=0;whiteSpace=wrap;html=1;fontColor=#000000;" vertex="1" parent="DYG0ocCDO50_dI9Aoc4d-13">
                    <mxGeometry y="60" width="160" height="30" as="geometry"/>
                </mxCell>
                <mxCell id="DYG0ocCDO50_dI9Aoc4d-17" value="DISEASE" style="swimlane;fontStyle=0;childLayout=stackLayout;horizontal=1;startSize=30;horizontalStack=0;resizeParent=1;resizeParentMax=0;resizeLast=0;collapsible=1;marginBottom=0;whiteSpace=wrap;html=1;fillColor=#0050ef;fontColor=#000000;strokeColor=#001DBC;" vertex="1" parent="1">
                    <mxGeometry x="590" y="435" width="160" height="90" as="geometry"/>
                </mxCell>
                <mxCell id="DYG0ocCDO50_dI9Aoc4d-18" value="diseaseID &lt;b&gt;&lt;font color=&quot;#ff0000&quot;&gt;PK&lt;/font&gt;&lt;/b&gt;" style="text;strokeColor=none;fillColor=none;align=left;verticalAlign=middle;spacingLeft=4;spacingRight=4;overflow=hidden;points=[[0,0.5],[1,0.5]];portConstraint=eastwest;rotatable=0;whiteSpace=wrap;html=1;fontColor=#000000;" vertex="1" parent="DYG0ocCDO50_dI9Aoc4d-17">
                    <mxGeometry y="30" width="160" height="30" as="geometry"/>
                </mxCell>
                <mxCell id="DYG0ocCDO50_dI9Aoc4d-19" value="name" style="text;strokeColor=none;fillColor=none;align=left;verticalAlign=middle;spacingLeft=4;spacingRight=4;overflow=hidden;points=[[0,0.5],[1,0.5]];portConstraint=eastwest;rotatable=0;whiteSpace=wrap;html=1;fontColor=#000000;" vertex="1" parent="DYG0ocCDO50_dI9Aoc4d-17">
                    <mxGeometry y="60" width="160" height="30" as="geometry"/>
                </mxCell>
                <mxCell id="DYG0ocCDO50_dI9Aoc4d-22" value="SYMPTOM" style="swimlane;fontStyle=0;childLayout=stackLayout;horizontal=1;startSize=30;horizontalStack=0;resizeParent=1;resizeParentMax=0;resizeLast=0;collapsible=1;marginBottom=0;whiteSpace=wrap;html=1;fillColor=#0050ef;fontColor=#000000;strokeColor=#001DBC;" vertex="1" parent="1">
                    <mxGeometry x="270" y="435" width="160" height="90" as="geometry"/>
                </mxCell>
                <mxCell id="DYG0ocCDO50_dI9Aoc4d-23" value="symptomID&amp;nbsp;&lt;b style=&quot;&quot;&gt;&lt;font color=&quot;#ff0000&quot;&gt;PK&lt;/font&gt;&lt;/b&gt;" style="text;strokeColor=none;fillColor=none;align=left;verticalAlign=middle;spacingLeft=4;spacingRight=4;overflow=hidden;points=[[0,0.5],[1,0.5]];portConstraint=eastwest;rotatable=0;whiteSpace=wrap;html=1;fontColor=#000000;" vertex="1" parent="DYG0ocCDO50_dI9Aoc4d-22">
                    <mxGeometry y="30" width="160" height="30" as="geometry"/>
                </mxCell>
                <mxCell id="DYG0ocCDO50_dI9Aoc4d-24" value="name" style="text;strokeColor=none;fillColor=none;align=left;verticalAlign=middle;spacingLeft=4;spacingRight=4;overflow=hidden;points=[[0,0.5],[1,0.5]];portConstraint=eastwest;rotatable=0;whiteSpace=wrap;html=1;fontColor=#000000;" vertex="1" parent="DYG0ocCDO50_dI9Aoc4d-22">
                    <mxGeometry y="60" width="160" height="30" as="geometry"/>
                </mxCell>
                <mxCell id="DYG0ocCDO50_dI9Aoc4d-27" value="0,n" style="text;html=1;align=center;verticalAlign=middle;resizable=0;points=[];autosize=1;strokeColor=none;fillColor=none;fontColor=#000000;" vertex="1" parent="1">
                    <mxGeometry x="476" y="210" width="40" height="30" as="geometry"/>
                </mxCell>
                <mxCell id="DYG0ocCDO50_dI9Aoc4d-28" value="1,1" style="text;html=1;align=center;verticalAlign=middle;resizable=0;points=[];autosize=1;strokeColor=none;fillColor=none;fontColor=#000000;" vertex="1" parent="1">
                    <mxGeometry x="676" y="210" width="40" height="30" as="geometry"/>
                </mxCell>
                <mxCell id="DYG0ocCDO50_dI9Aoc4d-29" value="&lt;font color=&quot;#ff0000&quot; style=&quot;font-size: 16px;&quot;&gt;&lt;b&gt;Question 02&lt;/b&gt;&lt;/font&gt;" style="text;html=1;align=center;verticalAlign=middle;resizable=0;points=[];autosize=1;strokeColor=none;fillColor=none;fontColor=#000000;" vertex="1" parent="1">
                    <mxGeometry x="524" y="50" width="120" height="30" as="geometry"/>
                </mxCell>
                <mxCell id="DYG0ocCDO50_dI9Aoc4d-30" value="&lt;font color=&quot;#ff0000&quot;&gt;&lt;b&gt;&amp;nbsp; &amp;nbsp; &amp;nbsp; &amp;nbsp; &amp;nbsp; &amp;nbsp; &amp;nbsp; &amp;nbsp; &amp;nbsp; &amp;nbsp; &amp;nbsp; &amp;nbsp;Logical Data Model&lt;/b&gt;&lt;/font&gt;" style="text;html=1;align=center;verticalAlign=middle;resizable=0;points=[];autosize=1;strokeColor=none;fillColor=none;fontSize=16;fontColor=#000000;" vertex="1" parent="1">
                    <mxGeometry x="166" y="120" width="270" height="30" as="geometry"/>
                </mxCell>
                <mxCell id="DYG0ocCDO50_dI9Aoc4d-33" value="1,1" style="text;html=1;align=center;verticalAlign=middle;resizable=0;points=[];autosize=1;strokeColor=none;fillColor=none;fontSize=12;fontColor=#000000;" vertex="1" parent="1">
                    <mxGeometry x="890" y="215" width="40" height="30" as="geometry"/>
                </mxCell>
                <mxCell id="DYG0ocCDO50_dI9Aoc4d-34" value="0,n" style="text;html=1;align=center;verticalAlign=middle;resizable=0;points=[];autosize=1;strokeColor=none;fillColor=none;fontSize=12;fontColor=#000000;" vertex="1" parent="1">
                    <mxGeometry x="946" y="395" width="40" height="30" as="geometry"/>
                </mxCell>
                <mxCell id="DYG0ocCDO50_dI9Aoc4d-35" value="0,n" style="text;html=1;align=center;verticalAlign=middle;resizable=0;points=[];autosize=1;strokeColor=none;fillColor=none;fontSize=12;fontColor=#000000;" vertex="1" parent="1">
                    <mxGeometry x="770" y="345" width="40" height="30" as="geometry"/>
                </mxCell>
                <mxCell id="DYG0ocCDO50_dI9Aoc4d-36" value="0,n" style="text;html=1;align=center;verticalAlign=middle;resizable=0;points=[];autosize=1;strokeColor=none;fillColor=none;fontSize=12;fontColor=#000000;" vertex="1" parent="1">
                    <mxGeometry x="760" y="480" width="40" height="30" as="geometry"/>
                </mxCell>
                <mxCell id="DYG0ocCDO50_dI9Aoc4d-37" style="edgeStyle=none;html=1;entryX=0;entryY=0.5;entryDx=0;entryDy=0;fontSize=12;fontColor=#000000;exitX=1;exitY=0.5;exitDx=0;exitDy=0;strokeColor=#000000;" edge="1" parent="1" source="DYG0ocCDO50_dI9Aoc4d-2" target="DYG0ocCDO50_dI9Aoc4d-8">
                    <mxGeometry relative="1" as="geometry"/>
                </mxCell>
                <mxCell id="DYG0ocCDO50_dI9Aoc4d-39" style="edgeStyle=none;html=1;exitX=1;exitY=0.5;exitDx=0;exitDy=0;entryX=0.75;entryY=0;entryDx=0;entryDy=0;fontSize=12;fontColor=#000000;strokeColor=#000000;" edge="1" parent="1" source="DYG0ocCDO50_dI9Aoc4d-8" target="DYG0ocCDO50_dI9Aoc4d-13">
                    <mxGeometry relative="1" as="geometry">
                        <Array as="points">
                            <mxPoint x="990" y="240"/>
                        </Array>
                    </mxGeometry>
                </mxCell>
                <mxCell id="_qpmjWrmrqkB1k-XIgsL-2" style="edgeStyle=none;html=1;strokeColor=#000000;fontColor=#FF0000;exitX=-0.001;exitY=-0.186;exitDx=0;exitDy=0;exitPerimeter=0;" edge="1" parent="1" source="DYG0ocCDO50_dI9Aoc4d-10">
                    <mxGeometry relative="1" as="geometry">
                        <mxPoint x="340" y="430" as="targetPoint"/>
                        <Array as="points">
                            <mxPoint x="560" y="279"/>
                            <mxPoint x="560" y="360"/>
                            <mxPoint x="340" y="360"/>
                        </Array>
                    </mxGeometry>
                </mxCell>
                <mxCell id="_qpmjWrmrqkB1k-XIgsL-3" value="&lt;font color=&quot;#000000&quot;&gt;o,n&lt;/font&gt;" style="text;html=1;align=center;verticalAlign=middle;resizable=0;points=[];autosize=1;strokeColor=none;fillColor=none;fontColor=#FF0000;" vertex="1" parent="1">
                    <mxGeometry x="340" y="395" width="40" height="30" as="geometry"/>
                </mxCell>
                <mxCell id="_qpmjWrmrqkB1k-XIgsL-4" value="1,1" style="text;html=1;align=center;verticalAlign=middle;resizable=0;points=[];autosize=1;strokeColor=none;fillColor=none;fontColor=#000000;" vertex="1" parent="1">
                    <mxGeometry x="686" y="285" width="40" height="30" as="geometry"/>
                </mxCell>
            </root>
        </mxGraphModel>
    </diagram>
    <diagram id="V_BP86rbbAJ8k_h0V6St" name="Page-4">
        <mxGraphModel dx="906" dy="544" grid="1" gridSize="10" guides="1" tooltips="1" connect="1" arrows="1" fold="1" page="1" pageScale="1" pageWidth="1169" pageHeight="827" background="#ffffff" math="0" shadow="0">
            <root>
                <mxCell id="0"/>
                <mxCell id="1" parent="0"/>
                <mxCell id="0gerDn0vEaI05jE7arR5-1" value="DOCTOR" style="swimlane;fontStyle=0;childLayout=stackLayout;horizontal=1;startSize=30;horizontalStack=0;resizeParent=1;resizeParentMax=0;resizeLast=0;collapsible=1;marginBottom=0;whiteSpace=wrap;html=1;fillColor=#0050ef;fontColor=#000000;strokeColor=#001DBC;labelBackgroundColor=none;" vertex="1" parent="1">
                    <mxGeometry x="270" y="195" width="196" height="120" as="geometry"/>
                </mxCell>
                <mxCell id="0gerDn0vEaI05jE7arR5-2" value="doctorID &lt;b style=&quot;&quot;&gt;&lt;font color=&quot;#ff0000&quot;&gt;PK &lt;/font&gt;&lt;font color=&quot;#0000ff&quot;&gt;INTEGER&lt;/font&gt;&lt;/b&gt;&amp;nbsp;" style="text;strokeColor=none;fillColor=none;align=left;verticalAlign=middle;spacingLeft=4;spacingRight=4;overflow=hidden;points=[[0,0.5],[1,0.5]];portConstraint=eastwest;rotatable=0;whiteSpace=wrap;html=1;fontColor=#000000;" vertex="1" parent="0gerDn0vEaI05jE7arR5-1">
                    <mxGeometry y="30" width="196" height="30" as="geometry"/>
                </mxCell>
                <mxCell id="0gerDn0vEaI05jE7arR5-3" value="lastName &lt;b&gt;&lt;font color=&quot;#0000ff&quot;&gt;VARCHAR&lt;/font&gt;&lt;/b&gt;&amp;nbsp;" style="text;strokeColor=none;fillColor=none;align=left;verticalAlign=middle;spacingLeft=4;spacingRight=4;overflow=hidden;points=[[0,0.5],[1,0.5]];portConstraint=eastwest;rotatable=0;whiteSpace=wrap;html=1;fontColor=#000000;" vertex="1" parent="0gerDn0vEaI05jE7arR5-1">
                    <mxGeometry y="60" width="196" height="30" as="geometry"/>
                </mxCell>
                <mxCell id="0gerDn0vEaI05jE7arR5-4" value="firstName&amp;nbsp; &lt;b&gt;&lt;font color=&quot;#0000ff&quot;&gt;VARCHAR&lt;/font&gt;&lt;/b&gt;" style="text;strokeColor=none;fillColor=none;align=left;verticalAlign=middle;spacingLeft=4;spacingRight=4;overflow=hidden;points=[[0,0.5],[1,0.5]];portConstraint=eastwest;rotatable=0;whiteSpace=wrap;html=1;fontColor=#000000;" vertex="1" parent="0gerDn0vEaI05jE7arR5-1">
                    <mxGeometry y="90" width="196" height="30" as="geometry"/>
                </mxCell>
                <mxCell id="0gerDn0vEaI05jE7arR5-5" style="edgeStyle=none;html=1;entryX=1;entryY=0.5;entryDx=0;entryDy=0;fontColor=#FF0000;strokeColor=#000000;labelBackgroundColor=none;" edge="1" parent="1" source="0gerDn0vEaI05jE7arR5-6" target="0gerDn0vEaI05jE7arR5-15">
                    <mxGeometry relative="1" as="geometry">
                        <Array as="points">
                            <mxPoint x="813" y="480"/>
                        </Array>
                    </mxGeometry>
                </mxCell>
                <mxCell id="0gerDn0vEaI05jE7arR5-6" value="CONSULTATION" style="swimlane;fontStyle=0;childLayout=stackLayout;horizontal=1;startSize=30;horizontalStack=0;resizeParent=1;resizeParentMax=0;resizeLast=0;collapsible=1;marginBottom=0;whiteSpace=wrap;html=1;fillColor=#0050ef;fontColor=#000000;strokeColor=#001DBC;labelBackgroundColor=none;" vertex="1" parent="1">
                    <mxGeometry x="726" y="195" width="174" height="150" as="geometry"/>
                </mxCell>
                <mxCell id="0gerDn0vEaI05jE7arR5-7" value="ConsultationID&amp;nbsp;&lt;b style=&quot;&quot;&gt;&lt;font color=&quot;#ff0000&quot;&gt;PK &lt;/font&gt;&lt;font color=&quot;#0000ff&quot;&gt;INTEGER&lt;/font&gt;&lt;/b&gt;" style="text;strokeColor=none;fillColor=none;align=left;verticalAlign=middle;spacingLeft=4;spacingRight=4;overflow=hidden;points=[[0,0.5],[1,0.5]];portConstraint=eastwest;rotatable=0;whiteSpace=wrap;html=1;fontColor=#000000;" vertex="1" parent="0gerDn0vEaI05jE7arR5-6">
                    <mxGeometry y="30" width="174" height="30" as="geometry"/>
                </mxCell>
                <mxCell id="0gerDn0vEaI05jE7arR5-8" value="sickID&amp;nbsp; &lt;b style=&quot;&quot;&gt;&lt;font color=&quot;#ff0000&quot;&gt;FK &lt;/font&gt;&lt;font color=&quot;#0000ff&quot;&gt;INTEGER&lt;/font&gt;&lt;/b&gt;" style="text;strokeColor=none;fillColor=none;align=left;verticalAlign=middle;spacingLeft=4;spacingRight=4;overflow=hidden;points=[[0,0.5],[1,0.5]];portConstraint=eastwest;rotatable=0;whiteSpace=wrap;html=1;fontColor=#000000;" vertex="1" parent="0gerDn0vEaI05jE7arR5-6">
                    <mxGeometry y="60" width="174" height="30" as="geometry"/>
                </mxCell>
                <mxCell id="0gerDn0vEaI05jE7arR5-9" value="date &lt;b&gt;&lt;font color=&quot;#0000ff&quot;&gt;DATETIME&lt;/font&gt;&lt;/b&gt;&amp;nbsp;" style="text;strokeColor=none;fillColor=none;align=left;verticalAlign=middle;spacingLeft=4;spacingRight=4;overflow=hidden;points=[[0,0.5],[1,0.5]];portConstraint=eastwest;rotatable=0;whiteSpace=wrap;html=1;fontColor=#000000;" vertex="1" parent="0gerDn0vEaI05jE7arR5-6">
                    <mxGeometry y="90" width="174" height="30" as="geometry"/>
                </mxCell>
                <mxCell id="0gerDn0vEaI05jE7arR5-10" value="price &lt;b&gt;&lt;font color=&quot;#0000ff&quot;&gt;FLOAT&lt;/font&gt;&lt;/b&gt;" style="text;strokeColor=none;fillColor=none;align=left;verticalAlign=middle;spacingLeft=4;spacingRight=4;overflow=hidden;points=[[0,0.5],[1,0.5]];portConstraint=eastwest;rotatable=0;whiteSpace=wrap;html=1;fontColor=#000000;" vertex="1" parent="0gerDn0vEaI05jE7arR5-6">
                    <mxGeometry y="120" width="174" height="30" as="geometry"/>
                </mxCell>
                <mxCell id="0gerDn0vEaI05jE7arR5-11" value="SICK" style="swimlane;fontStyle=0;childLayout=stackLayout;horizontal=1;startSize=30;horizontalStack=0;resizeParent=1;resizeParentMax=0;resizeLast=0;collapsible=1;marginBottom=0;whiteSpace=wrap;html=1;fillColor=#0050ef;fontColor=#000000;strokeColor=#001DBC;labelBackgroundColor=none;" vertex="1" parent="1">
                    <mxGeometry x="870" y="435" width="160" height="90" as="geometry"/>
                </mxCell>
                <mxCell id="0gerDn0vEaI05jE7arR5-12" value="sickID&amp;nbsp; &lt;b&gt;&lt;font color=&quot;#ff0000&quot;&gt;PK &lt;/font&gt;&lt;font color=&quot;#0000ff&quot;&gt;INTEGER&lt;/font&gt;&lt;/b&gt;" style="text;strokeColor=none;fillColor=none;align=left;verticalAlign=middle;spacingLeft=4;spacingRight=4;overflow=hidden;points=[[0,0.5],[1,0.5]];portConstraint=eastwest;rotatable=0;whiteSpace=wrap;html=1;fontColor=#000000;" vertex="1" parent="0gerDn0vEaI05jE7arR5-11">
                    <mxGeometry y="30" width="160" height="30" as="geometry"/>
                </mxCell>
                <mxCell id="0gerDn0vEaI05jE7arR5-13" value="name &lt;b&gt;&lt;font color=&quot;#0000ff&quot;&gt;VARCHAR&lt;/font&gt;&lt;/b&gt;" style="text;strokeColor=none;fillColor=none;align=left;verticalAlign=middle;spacingLeft=4;spacingRight=4;overflow=hidden;points=[[0,0.5],[1,0.5]];portConstraint=eastwest;rotatable=0;whiteSpace=wrap;html=1;fontColor=#000000;" vertex="1" parent="0gerDn0vEaI05jE7arR5-11">
                    <mxGeometry y="60" width="160" height="30" as="geometry"/>
                </mxCell>
                <mxCell id="0gerDn0vEaI05jE7arR5-14" value="DISEASE" style="swimlane;fontStyle=0;childLayout=stackLayout;horizontal=1;startSize=30;horizontalStack=0;resizeParent=1;resizeParentMax=0;resizeLast=0;collapsible=1;marginBottom=0;whiteSpace=wrap;html=1;fillColor=#0050ef;fontColor=#000000;strokeColor=#001DBC;labelBackgroundColor=none;" vertex="1" parent="1">
                    <mxGeometry x="590" y="435" width="160" height="90" as="geometry"/>
                </mxCell>
                <mxCell id="0gerDn0vEaI05jE7arR5-15" value="diseaseID &lt;b&gt;&lt;font color=&quot;#ff0000&quot;&gt;PK&amp;nbsp; &lt;/font&gt;&lt;font color=&quot;#0000ff&quot;&gt;INTEGER&lt;/font&gt;&lt;/b&gt;" style="text;strokeColor=none;fillColor=none;align=left;verticalAlign=middle;spacingLeft=4;spacingRight=4;overflow=hidden;points=[[0,0.5],[1,0.5]];portConstraint=eastwest;rotatable=0;whiteSpace=wrap;html=1;fontColor=#000000;" vertex="1" parent="0gerDn0vEaI05jE7arR5-14">
                    <mxGeometry y="30" width="160" height="30" as="geometry"/>
                </mxCell>
                <mxCell id="0gerDn0vEaI05jE7arR5-16" value="name &lt;b&gt;&lt;font color=&quot;#0000ff&quot;&gt;VARCHAR&lt;/font&gt;&lt;/b&gt;" style="text;strokeColor=none;fillColor=none;align=left;verticalAlign=middle;spacingLeft=4;spacingRight=4;overflow=hidden;points=[[0,0.5],[1,0.5]];portConstraint=eastwest;rotatable=0;whiteSpace=wrap;html=1;fontColor=#000000;" vertex="1" parent="0gerDn0vEaI05jE7arR5-14">
                    <mxGeometry y="60" width="160" height="30" as="geometry"/>
                </mxCell>
                <mxCell id="0gerDn0vEaI05jE7arR5-17" value="SYMPTOM" style="swimlane;fontStyle=0;childLayout=stackLayout;horizontal=1;startSize=30;horizontalStack=0;resizeParent=1;resizeParentMax=0;resizeLast=0;collapsible=1;marginBottom=0;whiteSpace=wrap;html=1;fillColor=#0050ef;fontColor=#000000;strokeColor=#001DBC;labelBackgroundColor=none;" vertex="1" parent="1">
                    <mxGeometry x="270" y="435" width="160" height="90" as="geometry"/>
                </mxCell>
                <mxCell id="0gerDn0vEaI05jE7arR5-18" value="symptomID&amp;nbsp;&lt;b style=&quot;&quot;&gt;&lt;font color=&quot;#ff0000&quot;&gt;PK&amp;nbsp; &lt;/font&gt;&lt;font color=&quot;#0000ff&quot;&gt;INTEGER&lt;/font&gt;&lt;/b&gt;" style="text;strokeColor=none;fillColor=none;align=left;verticalAlign=middle;spacingLeft=4;spacingRight=4;overflow=hidden;points=[[0,0.5],[1,0.5]];portConstraint=eastwest;rotatable=0;whiteSpace=wrap;html=1;fontColor=#000000;" vertex="1" parent="0gerDn0vEaI05jE7arR5-17">
                    <mxGeometry y="30" width="160" height="30" as="geometry"/>
                </mxCell>
                <mxCell id="0gerDn0vEaI05jE7arR5-19" value="name&amp;nbsp; &lt;font color=&quot;#0000ff&quot;&gt;&lt;b&gt;VARCHAR&lt;/b&gt;&lt;/font&gt;" style="text;strokeColor=none;fillColor=none;align=left;verticalAlign=middle;spacingLeft=4;spacingRight=4;overflow=hidden;points=[[0,0.5],[1,0.5]];portConstraint=eastwest;rotatable=0;whiteSpace=wrap;html=1;fontColor=#000000;" vertex="1" parent="0gerDn0vEaI05jE7arR5-17">
                    <mxGeometry y="60" width="160" height="30" as="geometry"/>
                </mxCell>
                <mxCell id="0gerDn0vEaI05jE7arR5-20" value="0,n" style="text;html=1;align=center;verticalAlign=middle;resizable=0;points=[];autosize=1;strokeColor=none;fillColor=none;fontColor=#000000;labelBackgroundColor=none;" vertex="1" parent="1">
                    <mxGeometry x="476" y="210" width="40" height="30" as="geometry"/>
                </mxCell>
                <mxCell id="0gerDn0vEaI05jE7arR5-21" value="1,1" style="text;html=1;align=center;verticalAlign=middle;resizable=0;points=[];autosize=1;strokeColor=none;fillColor=none;fontColor=#000000;labelBackgroundColor=none;" vertex="1" parent="1">
                    <mxGeometry x="676" y="210" width="40" height="30" as="geometry"/>
                </mxCell>
                <mxCell id="0gerDn0vEaI05jE7arR5-22" value="&lt;font color=&quot;#ff0000&quot; style=&quot;font-size: 16px;&quot;&gt;&lt;b&gt;Question 02&lt;/b&gt;&lt;/font&gt;" style="text;html=1;align=center;verticalAlign=middle;resizable=0;points=[];autosize=1;strokeColor=none;fillColor=none;fontColor=#000000;labelBackgroundColor=none;" vertex="1" parent="1">
                    <mxGeometry x="524" y="50" width="120" height="30" as="geometry"/>
                </mxCell>
                <mxCell id="0gerDn0vEaI05jE7arR5-23" value="&lt;font color=&quot;#ff0000&quot;&gt;&lt;b&gt;&amp;nbsp; &amp;nbsp; &amp;nbsp; &amp;nbsp; &amp;nbsp; &amp;nbsp; &amp;nbsp; &amp;nbsp; &amp;nbsp; &amp;nbsp; &amp;nbsp; Physical Data Model&lt;/b&gt;&lt;/font&gt;" style="text;html=1;align=center;verticalAlign=middle;resizable=0;points=[];autosize=1;strokeColor=none;fillColor=none;fontSize=16;fontColor=#000000;labelBackgroundColor=none;" vertex="1" parent="1">
                    <mxGeometry x="161" y="120" width="280" height="30" as="geometry"/>
                </mxCell>
                <mxCell id="0gerDn0vEaI05jE7arR5-24" value="1,1" style="text;html=1;align=center;verticalAlign=middle;resizable=0;points=[];autosize=1;strokeColor=none;fillColor=none;fontSize=12;fontColor=#000000;labelBackgroundColor=none;" vertex="1" parent="1">
                    <mxGeometry x="890" y="215" width="40" height="30" as="geometry"/>
                </mxCell>
                <mxCell id="0gerDn0vEaI05jE7arR5-25" value="0,n" style="text;html=1;align=center;verticalAlign=middle;resizable=0;points=[];autosize=1;strokeColor=none;fillColor=none;fontSize=12;fontColor=#000000;labelBackgroundColor=none;" vertex="1" parent="1">
                    <mxGeometry x="946" y="395" width="40" height="30" as="geometry"/>
                </mxCell>
                <mxCell id="0gerDn0vEaI05jE7arR5-26" value="0,n" style="text;html=1;align=center;verticalAlign=middle;resizable=0;points=[];autosize=1;strokeColor=none;fillColor=none;fontSize=12;fontColor=#000000;labelBackgroundColor=none;" vertex="1" parent="1">
                    <mxGeometry x="770" y="345" width="40" height="30" as="geometry"/>
                </mxCell>
                <mxCell id="0gerDn0vEaI05jE7arR5-27" value="0,n" style="text;html=1;align=center;verticalAlign=middle;resizable=0;points=[];autosize=1;strokeColor=none;fillColor=none;fontSize=12;fontColor=#000000;labelBackgroundColor=none;" vertex="1" parent="1">
                    <mxGeometry x="760" y="480" width="40" height="30" as="geometry"/>
                </mxCell>
                <mxCell id="0gerDn0vEaI05jE7arR5-28" style="edgeStyle=none;html=1;entryX=0;entryY=0.5;entryDx=0;entryDy=0;fontSize=12;fontColor=#000000;exitX=1;exitY=0.5;exitDx=0;exitDy=0;strokeColor=#000000;labelBackgroundColor=none;" edge="1" parent="1" source="0gerDn0vEaI05jE7arR5-2" target="0gerDn0vEaI05jE7arR5-7">
                    <mxGeometry relative="1" as="geometry"/>
                </mxCell>
                <mxCell id="0gerDn0vEaI05jE7arR5-29" style="edgeStyle=none;html=1;exitX=1;exitY=0.5;exitDx=0;exitDy=0;entryX=0.75;entryY=0;entryDx=0;entryDy=0;fontSize=12;fontColor=#000000;strokeColor=#000000;labelBackgroundColor=none;" edge="1" parent="1" source="0gerDn0vEaI05jE7arR5-7" target="0gerDn0vEaI05jE7arR5-11">
                    <mxGeometry relative="1" as="geometry">
                        <Array as="points">
                            <mxPoint x="990" y="240"/>
                        </Array>
                    </mxGeometry>
                </mxCell>
                <mxCell id="0gerDn0vEaI05jE7arR5-30" style="edgeStyle=none;html=1;strokeColor=#000000;fontColor=#FF0000;exitX=-0.001;exitY=-0.186;exitDx=0;exitDy=0;exitPerimeter=0;labelBackgroundColor=none;" edge="1" parent="1" source="0gerDn0vEaI05jE7arR5-9">
                    <mxGeometry relative="1" as="geometry">
                        <mxPoint x="340" y="430" as="targetPoint"/>
                        <Array as="points">
                            <mxPoint x="560" y="279"/>
                            <mxPoint x="560" y="360"/>
                            <mxPoint x="340" y="360"/>
                        </Array>
                    </mxGeometry>
                </mxCell>
                <mxCell id="0gerDn0vEaI05jE7arR5-31" value="&lt;font color=&quot;#000000&quot;&gt;o,n&lt;/font&gt;" style="text;html=1;align=center;verticalAlign=middle;resizable=0;points=[];autosize=1;strokeColor=none;fillColor=none;fontColor=#FF0000;labelBackgroundColor=none;" vertex="1" parent="1">
                    <mxGeometry x="340" y="395" width="40" height="30" as="geometry"/>
                </mxCell>
                <mxCell id="0gerDn0vEaI05jE7arR5-32" value="0,n" style="text;html=1;align=center;verticalAlign=middle;resizable=0;points=[];autosize=1;strokeColor=none;fillColor=none;fontColor=#000000;labelBackgroundColor=none;" vertex="1" parent="1">
                    <mxGeometry x="686" y="285" width="40" height="30" as="geometry"/>
                </mxCell>
                <mxCell id="0gerDn0vEaI05jE7arR5-34" style="edgeStyle=none;html=1;exitX=1;exitY=0.5;exitDx=0;exitDy=0;entryX=0;entryY=0.5;entryDx=0;entryDy=0;labelBackgroundColor=none;strokeColor=#000000;fontColor=#0000FF;" edge="1" parent="1" source="0gerDn0vEaI05jE7arR5-18" target="0gerDn0vEaI05jE7arR5-15">
                    <mxGeometry relative="1" as="geometry"/>
                </mxCell>
                <mxCell id="0gerDn0vEaI05jE7arR5-36" value="&lt;font color=&quot;#000000&quot;&gt;0,n&lt;/font&gt;" style="text;html=1;align=center;verticalAlign=middle;resizable=0;points=[];autosize=1;strokeColor=none;fillColor=none;fontColor=#0000FF;" vertex="1" parent="1">
                    <mxGeometry x="440" y="475" width="40" height="30" as="geometry"/>
                </mxCell>
                <mxCell id="0gerDn0vEaI05jE7arR5-37" value="1,n" style="text;html=1;align=center;verticalAlign=middle;resizable=0;points=[];autosize=1;strokeColor=none;fillColor=none;fontColor=#000000;" vertex="1" parent="1">
                    <mxGeometry x="540" y="475" width="40" height="30" as="geometry"/>
                </mxCell>
            </root>
        </mxGraphModel>
    </diagram>
    <diagram id="b2A4F7CNaqI1tB_fAS5-" name="Page-5">
        <mxGraphModel dx="655" dy="544" grid="1" gridSize="10" guides="1" tooltips="1" connect="1" arrows="1" fold="1" page="1" pageScale="1" pageWidth="1169" pageHeight="827" background="#ffffff" math="0" shadow="0">
            <root>
                <mxCell id="0"/>
                <mxCell id="1" parent="0"/>
                <mxCell id="pw06LkprS88FTKxc_JzM-1" value="OWNER" style="swimlane;fontStyle=0;childLayout=stackLayout;horizontal=1;startSize=30;horizontalStack=0;resizeParent=1;resizeParentMax=0;resizeLast=0;collapsible=1;marginBottom=0;whiteSpace=wrap;html=1;fillColor=#0050ef;fontColor=#000000;strokeColor=#001DBC;labelBackgroundColor=none;" parent="1" vertex="1">
                    <mxGeometry x="270" y="195" width="196" height="210" as="geometry"/>
                </mxCell>
                <mxCell id="pw06LkprS88FTKxc_JzM-2" value="ownerID &lt;b style=&quot;&quot;&gt;&lt;font color=&quot;#ff0000&quot;&gt;PK &lt;/font&gt;&lt;font color=&quot;#0000ff&quot;&gt;INTEGER&lt;/font&gt;&lt;/b&gt;&amp;nbsp;" style="text;strokeColor=none;fillColor=none;align=left;verticalAlign=middle;spacingLeft=4;spacingRight=4;overflow=hidden;points=[[0,0.5],[1,0.5]];portConstraint=eastwest;rotatable=0;whiteSpace=wrap;html=1;fontColor=#000000;" parent="pw06LkprS88FTKxc_JzM-1" vertex="1">
                    <mxGeometry y="30" width="196" height="30" as="geometry"/>
                </mxCell>
                <mxCell id="pw06LkprS88FTKxc_JzM-3" value="lastName &lt;b&gt;&lt;font color=&quot;#0000ff&quot;&gt;VARCHAR&lt;/font&gt;&lt;/b&gt;&amp;nbsp;" style="text;strokeColor=none;fillColor=none;align=left;verticalAlign=middle;spacingLeft=4;spacingRight=4;overflow=hidden;points=[[0,0.5],[1,0.5]];portConstraint=eastwest;rotatable=0;whiteSpace=wrap;html=1;fontColor=#000000;" parent="pw06LkprS88FTKxc_JzM-1" vertex="1">
                    <mxGeometry y="60" width="196" height="30" as="geometry"/>
                </mxCell>
                <mxCell id="pw06LkprS88FTKxc_JzM-4" value="firstName&amp;nbsp; &lt;b&gt;&lt;font color=&quot;#0000ff&quot;&gt;VARCHAR&lt;/font&gt;&lt;/b&gt;" style="text;strokeColor=none;fillColor=none;align=left;verticalAlign=middle;spacingLeft=4;spacingRight=4;overflow=hidden;points=[[0,0.5],[1,0.5]];portConstraint=eastwest;rotatable=0;whiteSpace=wrap;html=1;fontColor=#000000;" parent="pw06LkprS88FTKxc_JzM-1" vertex="1">
                    <mxGeometry y="90" width="196" height="30" as="geometry"/>
                </mxCell>
                <mxCell id="pw06LkprS88FTKxc_JzM-36" value="address&amp;nbsp;&amp;nbsp;&lt;b&gt;&lt;font color=&quot;#0000ff&quot;&gt;VARCHAR&lt;/font&gt;&lt;/b&gt;" style="text;strokeColor=none;fillColor=none;align=left;verticalAlign=middle;spacingLeft=4;spacingRight=4;overflow=hidden;points=[[0,0.5],[1,0.5]];portConstraint=eastwest;rotatable=0;whiteSpace=wrap;html=1;fontColor=#000000;" parent="pw06LkprS88FTKxc_JzM-1" vertex="1">
                    <mxGeometry y="120" width="196" height="30" as="geometry"/>
                </mxCell>
                <mxCell id="pw06LkprS88FTKxc_JzM-37" value="address&amp;nbsp;&amp;nbsp;&lt;b&gt;&lt;font color=&quot;#0000ff&quot;&gt;VARCHAR&lt;/font&gt;&lt;/b&gt;" style="text;strokeColor=none;fillColor=none;align=left;verticalAlign=middle;spacingLeft=4;spacingRight=4;overflow=hidden;points=[[0,0.5],[1,0.5]];portConstraint=eastwest;rotatable=0;whiteSpace=wrap;html=1;fontColor=#000000;" parent="pw06LkprS88FTKxc_JzM-1" vertex="1">
                    <mxGeometry y="150" width="196" height="30" as="geometry"/>
                </mxCell>
                <mxCell id="pw06LkprS88FTKxc_JzM-38" value="telephoneNumber&amp;nbsp; &lt;font color=&quot;#0000ff&quot;&gt;&lt;b&gt;VARCHAR&lt;/b&gt;&lt;/font&gt;" style="text;strokeColor=none;fillColor=none;align=left;verticalAlign=middle;spacingLeft=4;spacingRight=4;overflow=hidden;points=[[0,0.5],[1,0.5]];portConstraint=eastwest;rotatable=0;whiteSpace=wrap;html=1;fontColor=#000000;" parent="pw06LkprS88FTKxc_JzM-1" vertex="1">
                    <mxGeometry y="180" width="196" height="30" as="geometry"/>
                </mxCell>
                <mxCell id="pw06LkprS88FTKxc_JzM-6" value="PROPERTY" style="swimlane;fontStyle=0;childLayout=stackLayout;horizontal=1;startSize=30;horizontalStack=0;resizeParent=1;resizeParentMax=0;resizeLast=0;collapsible=1;marginBottom=0;whiteSpace=wrap;html=1;fillColor=#0050ef;fontColor=#000000;strokeColor=#001DBC;labelBackgroundColor=none;" parent="1" vertex="1">
                    <mxGeometry x="726" y="195" width="174" height="180" as="geometry"/>
                </mxCell>
                <mxCell id="pw06LkprS88FTKxc_JzM-7" value="propertyID&amp;nbsp;&lt;b style=&quot;&quot;&gt;&lt;font color=&quot;#ff0000&quot;&gt;PK &lt;/font&gt;&lt;font color=&quot;#0000ff&quot;&gt;INTEGER&lt;/font&gt;&lt;/b&gt;" style="text;strokeColor=none;fillColor=none;align=left;verticalAlign=middle;spacingLeft=4;spacingRight=4;overflow=hidden;points=[[0,0.5],[1,0.5]];portConstraint=eastwest;rotatable=0;whiteSpace=wrap;html=1;fontColor=#000000;" parent="pw06LkprS88FTKxc_JzM-6" vertex="1">
                    <mxGeometry y="30" width="174" height="30" as="geometry"/>
                </mxCell>
                <mxCell id="pw06LkprS88FTKxc_JzM-8" value="ownerID&amp;nbsp; &lt;b style=&quot;&quot;&gt;&lt;font color=&quot;#ff0000&quot;&gt;FK &lt;/font&gt;&lt;font color=&quot;#0000ff&quot;&gt;INTEGER&lt;/font&gt;&lt;/b&gt;" style="text;strokeColor=none;fillColor=none;align=left;verticalAlign=middle;spacingLeft=4;spacingRight=4;overflow=hidden;points=[[0,0.5],[1,0.5]];portConstraint=eastwest;rotatable=0;whiteSpace=wrap;html=1;fontColor=#000000;" parent="pw06LkprS88FTKxc_JzM-6" vertex="1">
                    <mxGeometry y="60" width="174" height="30" as="geometry"/>
                </mxCell>
                <mxCell id="pw06LkprS88FTKxc_JzM-9" value="size &lt;font color=&quot;#0000ff&quot;&gt;&lt;b&gt;FLOAT&lt;/b&gt;&lt;/font&gt;&amp;nbsp;" style="text;strokeColor=none;fillColor=none;align=left;verticalAlign=middle;spacingLeft=4;spacingRight=4;overflow=hidden;points=[[0,0.5],[1,0.5]];portConstraint=eastwest;rotatable=0;whiteSpace=wrap;html=1;fontColor=#000000;" parent="pw06LkprS88FTKxc_JzM-6" vertex="1">
                    <mxGeometry y="90" width="174" height="30" as="geometry"/>
                </mxCell>
                <mxCell id="pw06LkprS88FTKxc_JzM-10" value="rentalPrice &lt;font color=&quot;#0000ff&quot;&gt;&lt;b&gt;DECIMAL(10,2)&lt;/b&gt;&lt;/font&gt;" style="text;strokeColor=none;fillColor=none;align=left;verticalAlign=middle;spacingLeft=4;spacingRight=4;overflow=hidden;points=[[0,0.5],[1,0.5]];portConstraint=eastwest;rotatable=0;whiteSpace=wrap;html=1;fontColor=#000000;" parent="pw06LkprS88FTKxc_JzM-6" vertex="1">
                    <mxGeometry y="120" width="174" height="30" as="geometry"/>
                </mxCell>
                <mxCell id="pw06LkprS88FTKxc_JzM-39" value="address &lt;font color=&quot;#0000ff&quot;&gt;&lt;b&gt;VARCHAR&lt;/b&gt;&lt;/font&gt;" style="text;strokeColor=none;fillColor=none;align=left;verticalAlign=middle;spacingLeft=4;spacingRight=4;overflow=hidden;points=[[0,0.5],[1,0.5]];portConstraint=eastwest;rotatable=0;whiteSpace=wrap;html=1;fontColor=#000000;" parent="pw06LkprS88FTKxc_JzM-6" vertex="1">
                    <mxGeometry y="150" width="174" height="30" as="geometry"/>
                </mxCell>
                <mxCell id="pw06LkprS88FTKxc_JzM-11" value="CONTRACT" style="swimlane;fontStyle=0;childLayout=stackLayout;horizontal=1;startSize=30;horizontalStack=0;resizeParent=1;resizeParentMax=0;resizeLast=0;collapsible=1;marginBottom=0;whiteSpace=wrap;html=1;fillColor=#0050ef;fontColor=#000000;strokeColor=#001DBC;labelBackgroundColor=none;" parent="1" vertex="1">
                    <mxGeometry x="870" y="550" width="160" height="150" as="geometry"/>
                </mxCell>
                <mxCell id="pw06LkprS88FTKxc_JzM-12" value="contactID&amp;nbsp; &lt;b&gt;&lt;font color=&quot;#ff0000&quot;&gt;PK &lt;/font&gt;&lt;font color=&quot;#0000ff&quot;&gt;INTEGER&lt;/font&gt;&lt;/b&gt;" style="text;strokeColor=none;fillColor=none;align=left;verticalAlign=middle;spacingLeft=4;spacingRight=4;overflow=hidden;points=[[0,0.5],[1,0.5]];portConstraint=eastwest;rotatable=0;whiteSpace=wrap;html=1;fontColor=#000000;" parent="pw06LkprS88FTKxc_JzM-11" vertex="1">
                    <mxGeometry y="30" width="160" height="30" as="geometry"/>
                </mxCell>
                <mxCell id="pw06LkprS88FTKxc_JzM-47" value="propertyID&amp;nbsp; &lt;b&gt;&lt;font color=&quot;#ff0000&quot;&gt;FK &lt;/font&gt;&lt;font color=&quot;#0000ff&quot;&gt;INTEGER&lt;/font&gt;&lt;/b&gt;" style="text;strokeColor=none;fillColor=none;align=left;verticalAlign=middle;spacingLeft=4;spacingRight=4;overflow=hidden;points=[[0,0.5],[1,0.5]];portConstraint=eastwest;rotatable=0;whiteSpace=wrap;html=1;fontColor=#000000;" parent="pw06LkprS88FTKxc_JzM-11" vertex="1">
                    <mxGeometry y="60" width="160" height="30" as="geometry"/>
                </mxCell>
                <mxCell id="pw06LkprS88FTKxc_JzM-48" value="&lt;font style=&quot;&quot;&gt;duration&lt;/font&gt;&lt;font style=&quot;font-weight: bold;&quot; color=&quot;#ff0000&quot;&gt;&amp;nbsp;&lt;/font&gt;&lt;font style=&quot;font-weight: bold;&quot; color=&quot;#0000ff&quot;&gt;DATE&lt;/font&gt;" style="text;strokeColor=none;fillColor=none;align=left;verticalAlign=middle;spacingLeft=4;spacingRight=4;overflow=hidden;points=[[0,0.5],[1,0.5]];portConstraint=eastwest;rotatable=0;whiteSpace=wrap;html=1;fontColor=#000000;" parent="pw06LkprS88FTKxc_JzM-11" vertex="1">
                    <mxGeometry y="90" width="160" height="30" as="geometry"/>
                </mxCell>
                <mxCell id="pw06LkprS88FTKxc_JzM-49" value="&lt;font style=&quot;&quot;&gt;percentage&lt;/font&gt;&lt;font style=&quot;font-weight: bold;&quot; color=&quot;#ff0000&quot;&gt;&amp;nbsp;&lt;/font&gt;&lt;font color=&quot;#0000ff&quot; style=&quot;font-weight: bold;&quot;&gt;DECIMAL(10,2)&lt;/font&gt;" style="text;strokeColor=none;fillColor=none;align=left;verticalAlign=middle;spacingLeft=4;spacingRight=4;overflow=hidden;points=[[0,0.5],[1,0.5]];portConstraint=eastwest;rotatable=0;whiteSpace=wrap;html=1;fontColor=#000000;" parent="pw06LkprS88FTKxc_JzM-11" vertex="1">
                    <mxGeometry y="120" width="160" height="30" as="geometry"/>
                </mxCell>
                <mxCell id="pw06LkprS88FTKxc_JzM-14" value="TENANT" style="swimlane;fontStyle=0;childLayout=stackLayout;horizontal=1;startSize=30;horizontalStack=0;resizeParent=1;resizeParentMax=0;resizeLast=0;collapsible=1;marginBottom=0;whiteSpace=wrap;html=1;fillColor=#0050ef;fontColor=#000000;strokeColor=#001DBC;labelBackgroundColor=none;" parent="1" vertex="1">
                    <mxGeometry x="600" y="560" width="190" height="150" as="geometry"/>
                </mxCell>
                <mxCell id="pw06LkprS88FTKxc_JzM-15" value="tenantID &lt;b&gt;&lt;font color=&quot;#ff0000&quot;&gt;PK&amp;nbsp; &lt;/font&gt;&lt;font color=&quot;#0000ff&quot;&gt;INTEGER&lt;/font&gt;&lt;/b&gt;" style="text;strokeColor=none;fillColor=none;align=left;verticalAlign=middle;spacingLeft=4;spacingRight=4;overflow=hidden;points=[[0,0.5],[1,0.5]];portConstraint=eastwest;rotatable=0;whiteSpace=wrap;html=1;fontColor=#000000;" parent="pw06LkprS88FTKxc_JzM-14" vertex="1">
                    <mxGeometry y="30" width="190" height="30" as="geometry"/>
                </mxCell>
                <mxCell id="pw06LkprS88FTKxc_JzM-16" value="lastName &lt;b&gt;&lt;font color=&quot;#0000ff&quot;&gt;VARCHAR&lt;/font&gt;&lt;/b&gt;" style="text;strokeColor=none;fillColor=none;align=left;verticalAlign=middle;spacingLeft=4;spacingRight=4;overflow=hidden;points=[[0,0.5],[1,0.5]];portConstraint=eastwest;rotatable=0;whiteSpace=wrap;html=1;fontColor=#000000;" parent="pw06LkprS88FTKxc_JzM-14" vertex="1">
                    <mxGeometry y="60" width="190" height="30" as="geometry"/>
                </mxCell>
                <mxCell id="pw06LkprS88FTKxc_JzM-44" value="firstName &lt;b&gt;&lt;font color=&quot;#0000ff&quot;&gt;VARCHAR&lt;/font&gt;&lt;/b&gt;" style="text;strokeColor=none;fillColor=none;align=left;verticalAlign=middle;spacingLeft=4;spacingRight=4;overflow=hidden;points=[[0,0.5],[1,0.5]];portConstraint=eastwest;rotatable=0;whiteSpace=wrap;html=1;fontColor=#000000;" parent="pw06LkprS88FTKxc_JzM-14" vertex="1">
                    <mxGeometry y="90" width="190" height="30" as="geometry"/>
                </mxCell>
                <mxCell id="pw06LkprS88FTKxc_JzM-45" value="telephoneNumber &lt;font color=&quot;#0000ff&quot;&gt;&lt;b&gt;INTEGER&lt;/b&gt;&lt;/font&gt;" style="text;strokeColor=none;fillColor=none;align=left;verticalAlign=middle;spacingLeft=4;spacingRight=4;overflow=hidden;points=[[0,0.5],[1,0.5]];portConstraint=eastwest;rotatable=0;whiteSpace=wrap;html=1;fontColor=#000000;" parent="pw06LkprS88FTKxc_JzM-14" vertex="1">
                    <mxGeometry y="120" width="190" height="30" as="geometry"/>
                </mxCell>
                <mxCell id="pw06LkprS88FTKxc_JzM-17" value="LEASE" style="swimlane;fontStyle=0;childLayout=stackLayout;horizontal=1;startSize=30;horizontalStack=0;resizeParent=1;resizeParentMax=0;resizeLast=0;collapsible=1;marginBottom=0;whiteSpace=wrap;html=1;fillColor=#0050ef;fontColor=#000000;strokeColor=#001DBC;labelBackgroundColor=none;" parent="1" vertex="1">
                    <mxGeometry x="270" y="560" width="190" height="180" as="geometry"/>
                </mxCell>
                <mxCell id="pw06LkprS88FTKxc_JzM-18" value="leaseID&amp;nbsp;&lt;b style=&quot;&quot;&gt;&lt;font color=&quot;#ff0000&quot;&gt;PK&amp;nbsp; &lt;/font&gt;&lt;font color=&quot;#0000ff&quot;&gt;INTEGER&lt;/font&gt;&lt;/b&gt;" style="text;strokeColor=none;fillColor=none;align=left;verticalAlign=middle;spacingLeft=4;spacingRight=4;overflow=hidden;points=[[0,0.5],[1,0.5]];portConstraint=eastwest;rotatable=0;whiteSpace=wrap;html=1;fontColor=#000000;" parent="pw06LkprS88FTKxc_JzM-17" vertex="1">
                    <mxGeometry y="30" width="190" height="30" as="geometry"/>
                </mxCell>
                <mxCell id="pw06LkprS88FTKxc_JzM-40" value="propertyID &lt;b style=&quot;&quot;&gt;&lt;font color=&quot;#ff0000&quot;&gt;FK&amp;nbsp;&amp;nbsp;&lt;/font&gt;&lt;font color=&quot;#0000ff&quot;&gt;INTEGER&lt;/font&gt;&lt;/b&gt;" style="text;strokeColor=none;fillColor=none;align=left;verticalAlign=middle;spacingLeft=4;spacingRight=4;overflow=hidden;points=[[0,0.5],[1,0.5]];portConstraint=eastwest;rotatable=0;whiteSpace=wrap;html=1;fontColor=#000000;" parent="pw06LkprS88FTKxc_JzM-17" vertex="1">
                    <mxGeometry y="60" width="190" height="30" as="geometry"/>
                </mxCell>
                <mxCell id="pw06LkprS88FTKxc_JzM-41" value="tenantID&amp;nbsp;&lt;b style=&quot;&quot;&gt;&lt;font color=&quot;#ff0000&quot;&gt;FK&amp;nbsp; &lt;/font&gt;&lt;font color=&quot;#0000ff&quot;&gt;INTEGER&lt;/font&gt;&lt;/b&gt;" style="text;strokeColor=none;fillColor=none;align=left;verticalAlign=middle;spacingLeft=4;spacingRight=4;overflow=hidden;points=[[0,0.5],[1,0.5]];portConstraint=eastwest;rotatable=0;whiteSpace=wrap;html=1;fontColor=#000000;" parent="pw06LkprS88FTKxc_JzM-17" vertex="1">
                    <mxGeometry y="90" width="190" height="30" as="geometry"/>
                </mxCell>
                <mxCell id="pw06LkprS88FTKxc_JzM-42" value="leaseNumber&lt;b style=&quot;&quot;&gt;&lt;font color=&quot;#ff0000&quot;&gt;&amp;nbsp;&amp;nbsp;&lt;/font&gt;&lt;font color=&quot;#0000ff&quot;&gt;INTEGER&lt;/font&gt;&lt;/b&gt;" style="text;strokeColor=none;fillColor=none;align=left;verticalAlign=middle;spacingLeft=4;spacingRight=4;overflow=hidden;points=[[0,0.5],[1,0.5]];portConstraint=eastwest;rotatable=0;whiteSpace=wrap;html=1;fontColor=#000000;" parent="pw06LkprS88FTKxc_JzM-17" vertex="1">
                    <mxGeometry y="120" width="190" height="30" as="geometry"/>
                </mxCell>
                <mxCell id="pw06LkprS88FTKxc_JzM-43" value="leasePeriod&lt;b style=&quot;&quot;&gt;&lt;font color=&quot;#ff0000&quot;&gt;&amp;nbsp; &lt;/font&gt;&lt;font color=&quot;#0000ff&quot;&gt;DATE&lt;/font&gt;&lt;/b&gt;" style="text;strokeColor=none;fillColor=none;align=left;verticalAlign=middle;spacingLeft=4;spacingRight=4;overflow=hidden;points=[[0,0.5],[1,0.5]];portConstraint=eastwest;rotatable=0;whiteSpace=wrap;html=1;fontColor=#000000;" parent="pw06LkprS88FTKxc_JzM-17" vertex="1">
                    <mxGeometry y="150" width="190" height="30" as="geometry"/>
                </mxCell>
                <mxCell id="pw06LkprS88FTKxc_JzM-20" value="1,1" style="text;html=1;align=center;verticalAlign=middle;resizable=0;points=[];autosize=1;strokeColor=none;fillColor=none;fontColor=#000000;labelBackgroundColor=none;" parent="1" vertex="1">
                    <mxGeometry x="476" y="210" width="40" height="30" as="geometry"/>
                </mxCell>
                <mxCell id="pw06LkprS88FTKxc_JzM-21" value="1,n" style="text;html=1;align=center;verticalAlign=middle;resizable=0;points=[];autosize=1;strokeColor=none;fillColor=none;fontColor=#000000;labelBackgroundColor=none;" parent="1" vertex="1">
                    <mxGeometry x="676" y="210" width="40" height="30" as="geometry"/>
                </mxCell>
                <mxCell id="pw06LkprS88FTKxc_JzM-22" value="&lt;font color=&quot;#ff0000&quot; style=&quot;font-size: 16px;&quot;&gt;&lt;b&gt;Question 03&lt;/b&gt;&lt;/font&gt;" style="text;html=1;align=center;verticalAlign=middle;resizable=0;points=[];autosize=1;strokeColor=none;fillColor=none;fontColor=#000000;labelBackgroundColor=none;" parent="1" vertex="1">
                    <mxGeometry x="524" y="50" width="120" height="30" as="geometry"/>
                </mxCell>
                <mxCell id="pw06LkprS88FTKxc_JzM-23" value="&lt;font color=&quot;#ff0000&quot;&gt;&lt;b&gt;&amp;nbsp; &amp;nbsp; &amp;nbsp; &amp;nbsp; &amp;nbsp; &amp;nbsp; &amp;nbsp; &amp;nbsp; &amp;nbsp; &amp;nbsp; &amp;nbsp; Physical Data Model&lt;/b&gt;&lt;/font&gt;" style="text;html=1;align=center;verticalAlign=middle;resizable=0;points=[];autosize=1;strokeColor=none;fillColor=none;fontSize=16;fontColor=#000000;labelBackgroundColor=none;" parent="1" vertex="1">
                    <mxGeometry x="161" y="120" width="280" height="30" as="geometry"/>
                </mxCell>
                <mxCell id="pw06LkprS88FTKxc_JzM-28" style="edgeStyle=none;html=1;entryX=0;entryY=0.5;entryDx=0;entryDy=0;fontSize=12;fontColor=#000000;exitX=1;exitY=0.5;exitDx=0;exitDy=0;strokeColor=#000000;labelBackgroundColor=none;" parent="1" source="pw06LkprS88FTKxc_JzM-2" target="pw06LkprS88FTKxc_JzM-7" edge="1">
                    <mxGeometry relative="1" as="geometry"/>
                </mxCell>
                <mxCell id="pw06LkprS88FTKxc_JzM-50" style="edgeStyle=none;html=1;exitX=1;exitY=0.5;exitDx=0;exitDy=0;labelBackgroundColor=none;strokeColor=#000000;fontColor=#000000;" parent="1" source="pw06LkprS88FTKxc_JzM-8" target="pw06LkprS88FTKxc_JzM-11" edge="1">
                    <mxGeometry relative="1" as="geometry">
                        <Array as="points">
                            <mxPoint x="950" y="270"/>
                        </Array>
                    </mxGeometry>
                </mxCell>
                <mxCell id="pw06LkprS88FTKxc_JzM-51" value="1,1" style="text;html=1;align=center;verticalAlign=middle;resizable=0;points=[];autosize=1;strokeColor=none;fillColor=none;fontColor=#000000;" parent="1" vertex="1">
                    <mxGeometry x="900" y="245" width="40" height="30" as="geometry"/>
                </mxCell>
                <mxCell id="pw06LkprS88FTKxc_JzM-52" value="1,1" style="text;html=1;align=center;verticalAlign=middle;resizable=0;points=[];autosize=1;strokeColor=none;fillColor=none;fontColor=#000000;" parent="1" vertex="1">
                    <mxGeometry x="950" y="515" width="40" height="30" as="geometry"/>
                </mxCell>
                <mxCell id="pw06LkprS88FTKxc_JzM-53" style="edgeStyle=none;html=1;exitX=1;exitY=0.5;exitDx=0;exitDy=0;entryX=0;entryY=0.5;entryDx=0;entryDy=0;labelBackgroundColor=none;strokeColor=#000000;fontColor=#000000;" parent="1" source="pw06LkprS88FTKxc_JzM-40" target="pw06LkprS88FTKxc_JzM-16" edge="1">
                    <mxGeometry relative="1" as="geometry"/>
                </mxCell>
                <mxCell id="pw06LkprS88FTKxc_JzM-54" value="1,1" style="text;html=1;align=center;verticalAlign=middle;resizable=0;points=[];autosize=1;strokeColor=none;fillColor=none;fontColor=#000000;" parent="1" vertex="1">
                    <mxGeometry x="455" y="605" width="40" height="30" as="geometry"/>
                </mxCell>
                <mxCell id="pw06LkprS88FTKxc_JzM-55" value="1,1" style="text;html=1;align=center;verticalAlign=middle;resizable=0;points=[];autosize=1;strokeColor=none;fillColor=none;fontColor=#000000;" parent="1" vertex="1">
                    <mxGeometry x="560" y="605" width="40" height="30" as="geometry"/>
                </mxCell>
                <mxCell id="pw06LkprS88FTKxc_JzM-57" style="edgeStyle=none;html=1;entryX=0.75;entryY=0;entryDx=0;entryDy=0;labelBackgroundColor=none;strokeColor=#000000;fontColor=#000000;" parent="1" target="pw06LkprS88FTKxc_JzM-17" edge="1">
                    <mxGeometry relative="1" as="geometry">
                        <mxPoint x="720" y="280" as="sourcePoint"/>
                        <Array as="points">
                            <mxPoint x="560" y="280"/>
                            <mxPoint x="560" y="480"/>
                            <mxPoint x="413" y="480"/>
                        </Array>
                    </mxGeometry>
                </mxCell>
                <mxCell id="pw06LkprS88FTKxc_JzM-58" value="0,n" style="text;html=1;align=center;verticalAlign=middle;resizable=0;points=[];autosize=1;strokeColor=none;fillColor=none;fontColor=#000000;" parent="1" vertex="1">
                    <mxGeometry x="410" y="525" width="40" height="30" as="geometry"/>
                </mxCell>
                <mxCell id="pw06LkprS88FTKxc_JzM-59" value="1,1" style="text;html=1;align=center;verticalAlign=middle;resizable=0;points=[];autosize=1;strokeColor=none;fillColor=none;fontColor=#000000;" parent="1" vertex="1">
                    <mxGeometry x="670" y="275" width="40" height="30" as="geometry"/>
                </mxCell>
                <mxCell id="pw06LkprS88FTKxc_JzM-60" style="edgeStyle=none;html=1;exitX=1;exitY=0.5;exitDx=0;exitDy=0;entryX=1;entryY=0.5;entryDx=0;entryDy=0;labelBackgroundColor=none;strokeColor=#000000;fontColor=#000000;" parent="1" source="pw06LkprS88FTKxc_JzM-43" target="pw06LkprS88FTKxc_JzM-49" edge="1">
                    <mxGeometry relative="1" as="geometry">
                        <Array as="points">
                            <mxPoint x="520" y="725"/>
                            <mxPoint x="520" y="750"/>
                            <mxPoint x="1080" y="750"/>
                            <mxPoint x="1080" y="685"/>
                        </Array>
                    </mxGeometry>
                </mxCell>
                <mxCell id="pw06LkprS88FTKxc_JzM-63" value="1,1" style="text;html=1;align=center;verticalAlign=middle;resizable=0;points=[];autosize=1;strokeColor=none;fillColor=none;fontColor=#000000;" parent="1" vertex="1">
                    <mxGeometry x="470" y="725" width="40" height="30" as="geometry"/>
                </mxCell>
                <mxCell id="pw06LkprS88FTKxc_JzM-64" value="1,n" style="text;html=1;align=center;verticalAlign=middle;resizable=0;points=[];autosize=1;strokeColor=none;fillColor=none;fontColor=#000000;" parent="1" vertex="1">
                    <mxGeometry x="1040" y="655" width="40" height="30" as="geometry"/>
                </mxCell>
            </root>
        </mxGraphModel>
    </diagram>
    <diagram id="i1LkXJOPoYrNRVVIKvJ0" name="Page-6">
        <mxGraphModel dx="655" dy="544" grid="1" gridSize="10" guides="1" tooltips="1" connect="1" arrows="1" fold="1" page="1" pageScale="1" pageWidth="1169" pageHeight="827" background="#ffffff" math="0" shadow="0">
            <root>
                <mxCell id="0"/>
                <mxCell id="1" parent="0"/>
                <mxCell id="EHqZGnkW4gjdid92-_3c-1" value="OWNER" style="swimlane;fontStyle=0;childLayout=stackLayout;horizontal=1;startSize=30;horizontalStack=0;resizeParent=1;resizeParentMax=0;resizeLast=0;collapsible=1;marginBottom=0;whiteSpace=wrap;html=1;fillColor=#0050ef;fontColor=#000000;strokeColor=#001DBC;labelBackgroundColor=none;" parent="1" vertex="1">
                    <mxGeometry x="270" y="195" width="196" height="210" as="geometry"/>
                </mxCell>
                <mxCell id="EHqZGnkW4gjdid92-_3c-2" value="ownerID &lt;b style=&quot;&quot;&gt;&lt;font color=&quot;#ff0000&quot;&gt;PK &lt;/font&gt;&lt;/b&gt;&amp;nbsp;" style="text;strokeColor=none;fillColor=none;align=left;verticalAlign=middle;spacingLeft=4;spacingRight=4;overflow=hidden;points=[[0,0.5],[1,0.5]];portConstraint=eastwest;rotatable=0;whiteSpace=wrap;html=1;fontColor=#000000;" parent="EHqZGnkW4gjdid92-_3c-1" vertex="1">
                    <mxGeometry y="30" width="196" height="30" as="geometry"/>
                </mxCell>
                <mxCell id="EHqZGnkW4gjdid92-_3c-3" value="lastName &amp;nbsp;" style="text;strokeColor=none;fillColor=none;align=left;verticalAlign=middle;spacingLeft=4;spacingRight=4;overflow=hidden;points=[[0,0.5],[1,0.5]];portConstraint=eastwest;rotatable=0;whiteSpace=wrap;html=1;fontColor=#000000;" parent="EHqZGnkW4gjdid92-_3c-1" vertex="1">
                    <mxGeometry y="60" width="196" height="30" as="geometry"/>
                </mxCell>
                <mxCell id="EHqZGnkW4gjdid92-_3c-4" value="firstName&amp;nbsp;&amp;nbsp;" style="text;strokeColor=none;fillColor=none;align=left;verticalAlign=middle;spacingLeft=4;spacingRight=4;overflow=hidden;points=[[0,0.5],[1,0.5]];portConstraint=eastwest;rotatable=0;whiteSpace=wrap;html=1;fontColor=#000000;" parent="EHqZGnkW4gjdid92-_3c-1" vertex="1">
                    <mxGeometry y="90" width="196" height="30" as="geometry"/>
                </mxCell>
                <mxCell id="EHqZGnkW4gjdid92-_3c-5" value="address&amp;nbsp;&amp;nbsp;" style="text;strokeColor=none;fillColor=none;align=left;verticalAlign=middle;spacingLeft=4;spacingRight=4;overflow=hidden;points=[[0,0.5],[1,0.5]];portConstraint=eastwest;rotatable=0;whiteSpace=wrap;html=1;fontColor=#000000;" parent="EHqZGnkW4gjdid92-_3c-1" vertex="1">
                    <mxGeometry y="120" width="196" height="30" as="geometry"/>
                </mxCell>
                <mxCell id="EHqZGnkW4gjdid92-_3c-6" value="address&amp;nbsp;&amp;nbsp;" style="text;strokeColor=none;fillColor=none;align=left;verticalAlign=middle;spacingLeft=4;spacingRight=4;overflow=hidden;points=[[0,0.5],[1,0.5]];portConstraint=eastwest;rotatable=0;whiteSpace=wrap;html=1;fontColor=#000000;" parent="EHqZGnkW4gjdid92-_3c-1" vertex="1">
                    <mxGeometry y="150" width="196" height="30" as="geometry"/>
                </mxCell>
                <mxCell id="EHqZGnkW4gjdid92-_3c-7" value="telephoneNumber&amp;nbsp;&amp;nbsp;" style="text;strokeColor=none;fillColor=none;align=left;verticalAlign=middle;spacingLeft=4;spacingRight=4;overflow=hidden;points=[[0,0.5],[1,0.5]];portConstraint=eastwest;rotatable=0;whiteSpace=wrap;html=1;fontColor=#000000;" parent="EHqZGnkW4gjdid92-_3c-1" vertex="1">
                    <mxGeometry y="180" width="196" height="30" as="geometry"/>
                </mxCell>
                <mxCell id="EHqZGnkW4gjdid92-_3c-8" value="PROPERTY" style="swimlane;fontStyle=0;childLayout=stackLayout;horizontal=1;startSize=30;horizontalStack=0;resizeParent=1;resizeParentMax=0;resizeLast=0;collapsible=1;marginBottom=0;whiteSpace=wrap;html=1;fillColor=#0050ef;fontColor=#000000;strokeColor=#001DBC;labelBackgroundColor=none;" parent="1" vertex="1">
                    <mxGeometry x="726" y="195" width="174" height="180" as="geometry"/>
                </mxCell>
                <mxCell id="EHqZGnkW4gjdid92-_3c-9" value="propertyID&amp;nbsp;&lt;b style=&quot;&quot;&gt;&lt;font color=&quot;#ff0000&quot;&gt;PK&amp;nbsp;&lt;/font&gt;&lt;/b&gt;" style="text;strokeColor=none;fillColor=none;align=left;verticalAlign=middle;spacingLeft=4;spacingRight=4;overflow=hidden;points=[[0,0.5],[1,0.5]];portConstraint=eastwest;rotatable=0;whiteSpace=wrap;html=1;fontColor=#000000;" parent="EHqZGnkW4gjdid92-_3c-8" vertex="1">
                    <mxGeometry y="30" width="174" height="30" as="geometry"/>
                </mxCell>
                <mxCell id="EHqZGnkW4gjdid92-_3c-10" value="ownerID&amp;nbsp; &lt;b style=&quot;&quot;&gt;&lt;font color=&quot;#ff0000&quot;&gt;FK&amp;nbsp;&lt;/font&gt;&lt;/b&gt;" style="text;strokeColor=none;fillColor=none;align=left;verticalAlign=middle;spacingLeft=4;spacingRight=4;overflow=hidden;points=[[0,0.5],[1,0.5]];portConstraint=eastwest;rotatable=0;whiteSpace=wrap;html=1;fontColor=#000000;" parent="EHqZGnkW4gjdid92-_3c-8" vertex="1">
                    <mxGeometry y="60" width="174" height="30" as="geometry"/>
                </mxCell>
                <mxCell id="EHqZGnkW4gjdid92-_3c-11" value="size &amp;nbsp;" style="text;strokeColor=none;fillColor=none;align=left;verticalAlign=middle;spacingLeft=4;spacingRight=4;overflow=hidden;points=[[0,0.5],[1,0.5]];portConstraint=eastwest;rotatable=0;whiteSpace=wrap;html=1;fontColor=#000000;" parent="EHqZGnkW4gjdid92-_3c-8" vertex="1">
                    <mxGeometry y="90" width="174" height="30" as="geometry"/>
                </mxCell>
                <mxCell id="EHqZGnkW4gjdid92-_3c-12" value="rentalPrice&amp;nbsp;" style="text;strokeColor=none;fillColor=none;align=left;verticalAlign=middle;spacingLeft=4;spacingRight=4;overflow=hidden;points=[[0,0.5],[1,0.5]];portConstraint=eastwest;rotatable=0;whiteSpace=wrap;html=1;fontColor=#000000;" parent="EHqZGnkW4gjdid92-_3c-8" vertex="1">
                    <mxGeometry y="120" width="174" height="30" as="geometry"/>
                </mxCell>
                <mxCell id="EHqZGnkW4gjdid92-_3c-13" value="address&amp;nbsp;" style="text;strokeColor=none;fillColor=none;align=left;verticalAlign=middle;spacingLeft=4;spacingRight=4;overflow=hidden;points=[[0,0.5],[1,0.5]];portConstraint=eastwest;rotatable=0;whiteSpace=wrap;html=1;fontColor=#000000;" parent="EHqZGnkW4gjdid92-_3c-8" vertex="1">
                    <mxGeometry y="150" width="174" height="30" as="geometry"/>
                </mxCell>
                <mxCell id="EHqZGnkW4gjdid92-_3c-14" value="CONTRACT" style="swimlane;fontStyle=0;childLayout=stackLayout;horizontal=1;startSize=30;horizontalStack=0;resizeParent=1;resizeParentMax=0;resizeLast=0;collapsible=1;marginBottom=0;whiteSpace=wrap;html=1;fillColor=#0050ef;fontColor=#000000;strokeColor=#001DBC;labelBackgroundColor=none;" parent="1" vertex="1">
                    <mxGeometry x="870" y="550" width="160" height="150" as="geometry"/>
                </mxCell>
                <mxCell id="EHqZGnkW4gjdid92-_3c-15" value="contactID&amp;nbsp; &lt;b&gt;&lt;font color=&quot;#ff0000&quot;&gt;PK&amp;nbsp;&lt;/font&gt;&lt;/b&gt;" style="text;strokeColor=none;fillColor=none;align=left;verticalAlign=middle;spacingLeft=4;spacingRight=4;overflow=hidden;points=[[0,0.5],[1,0.5]];portConstraint=eastwest;rotatable=0;whiteSpace=wrap;html=1;fontColor=#000000;" parent="EHqZGnkW4gjdid92-_3c-14" vertex="1">
                    <mxGeometry y="30" width="160" height="30" as="geometry"/>
                </mxCell>
                <mxCell id="EHqZGnkW4gjdid92-_3c-16" value="propertyID&amp;nbsp; &lt;b&gt;&lt;font color=&quot;#ff0000&quot;&gt;FK&amp;nbsp;&lt;/font&gt;&lt;/b&gt;" style="text;strokeColor=none;fillColor=none;align=left;verticalAlign=middle;spacingLeft=4;spacingRight=4;overflow=hidden;points=[[0,0.5],[1,0.5]];portConstraint=eastwest;rotatable=0;whiteSpace=wrap;html=1;fontColor=#000000;" parent="EHqZGnkW4gjdid92-_3c-14" vertex="1">
                    <mxGeometry y="60" width="160" height="30" as="geometry"/>
                </mxCell>
                <mxCell id="EHqZGnkW4gjdid92-_3c-17" value="&lt;font style=&quot;&quot;&gt;duration&lt;/font&gt;&lt;font style=&quot;font-weight: bold;&quot; color=&quot;#ff0000&quot;&gt;&amp;nbsp;&lt;/font&gt;" style="text;strokeColor=none;fillColor=none;align=left;verticalAlign=middle;spacingLeft=4;spacingRight=4;overflow=hidden;points=[[0,0.5],[1,0.5]];portConstraint=eastwest;rotatable=0;whiteSpace=wrap;html=1;fontColor=#000000;" parent="EHqZGnkW4gjdid92-_3c-14" vertex="1">
                    <mxGeometry y="90" width="160" height="30" as="geometry"/>
                </mxCell>
                <mxCell id="EHqZGnkW4gjdid92-_3c-18" value="&lt;font style=&quot;&quot;&gt;percentage&lt;/font&gt;&lt;font style=&quot;font-weight: bold;&quot; color=&quot;#ff0000&quot;&gt;&amp;nbsp;&lt;/font&gt;" style="text;strokeColor=none;fillColor=none;align=left;verticalAlign=middle;spacingLeft=4;spacingRight=4;overflow=hidden;points=[[0,0.5],[1,0.5]];portConstraint=eastwest;rotatable=0;whiteSpace=wrap;html=1;fontColor=#000000;" parent="EHqZGnkW4gjdid92-_3c-14" vertex="1">
                    <mxGeometry y="120" width="160" height="30" as="geometry"/>
                </mxCell>
                <mxCell id="EHqZGnkW4gjdid92-_3c-19" value="TENANT" style="swimlane;fontStyle=0;childLayout=stackLayout;horizontal=1;startSize=30;horizontalStack=0;resizeParent=1;resizeParentMax=0;resizeLast=0;collapsible=1;marginBottom=0;whiteSpace=wrap;html=1;fillColor=#0050ef;fontColor=#000000;strokeColor=#001DBC;labelBackgroundColor=none;" parent="1" vertex="1">
                    <mxGeometry x="600" y="560" width="190" height="150" as="geometry"/>
                </mxCell>
                <mxCell id="EHqZGnkW4gjdid92-_3c-20" value="tenantID &lt;b&gt;&lt;font color=&quot;#ff0000&quot;&gt;PK&amp;nbsp;&amp;nbsp;&lt;/font&gt;&lt;/b&gt;" style="text;strokeColor=none;fillColor=none;align=left;verticalAlign=middle;spacingLeft=4;spacingRight=4;overflow=hidden;points=[[0,0.5],[1,0.5]];portConstraint=eastwest;rotatable=0;whiteSpace=wrap;html=1;fontColor=#000000;" parent="EHqZGnkW4gjdid92-_3c-19" vertex="1">
                    <mxGeometry y="30" width="190" height="30" as="geometry"/>
                </mxCell>
                <mxCell id="EHqZGnkW4gjdid92-_3c-21" value="lastName&amp;nbsp;" style="text;strokeColor=none;fillColor=none;align=left;verticalAlign=middle;spacingLeft=4;spacingRight=4;overflow=hidden;points=[[0,0.5],[1,0.5]];portConstraint=eastwest;rotatable=0;whiteSpace=wrap;html=1;fontColor=#000000;" parent="EHqZGnkW4gjdid92-_3c-19" vertex="1">
                    <mxGeometry y="60" width="190" height="30" as="geometry"/>
                </mxCell>
                <mxCell id="EHqZGnkW4gjdid92-_3c-22" value="firstName&amp;nbsp;" style="text;strokeColor=none;fillColor=none;align=left;verticalAlign=middle;spacingLeft=4;spacingRight=4;overflow=hidden;points=[[0,0.5],[1,0.5]];portConstraint=eastwest;rotatable=0;whiteSpace=wrap;html=1;fontColor=#000000;" parent="EHqZGnkW4gjdid92-_3c-19" vertex="1">
                    <mxGeometry y="90" width="190" height="30" as="geometry"/>
                </mxCell>
                <mxCell id="EHqZGnkW4gjdid92-_3c-23" value="telephoneNumber&amp;nbsp;" style="text;strokeColor=none;fillColor=none;align=left;verticalAlign=middle;spacingLeft=4;spacingRight=4;overflow=hidden;points=[[0,0.5],[1,0.5]];portConstraint=eastwest;rotatable=0;whiteSpace=wrap;html=1;fontColor=#000000;" parent="EHqZGnkW4gjdid92-_3c-19" vertex="1">
                    <mxGeometry y="120" width="190" height="30" as="geometry"/>
                </mxCell>
                <mxCell id="EHqZGnkW4gjdid92-_3c-24" value="LEASE" style="swimlane;fontStyle=0;childLayout=stackLayout;horizontal=1;startSize=30;horizontalStack=0;resizeParent=1;resizeParentMax=0;resizeLast=0;collapsible=1;marginBottom=0;whiteSpace=wrap;html=1;fillColor=#0050ef;fontColor=#000000;strokeColor=#001DBC;labelBackgroundColor=none;" parent="1" vertex="1">
                    <mxGeometry x="270" y="560" width="190" height="180" as="geometry"/>
                </mxCell>
                <mxCell id="EHqZGnkW4gjdid92-_3c-25" value="leaseID&amp;nbsp;&lt;b style=&quot;&quot;&gt;&lt;font color=&quot;#ff0000&quot;&gt;PK&amp;nbsp;&amp;nbsp;&lt;/font&gt;&lt;/b&gt;" style="text;strokeColor=none;fillColor=none;align=left;verticalAlign=middle;spacingLeft=4;spacingRight=4;overflow=hidden;points=[[0,0.5],[1,0.5]];portConstraint=eastwest;rotatable=0;whiteSpace=wrap;html=1;fontColor=#000000;" parent="EHqZGnkW4gjdid92-_3c-24" vertex="1">
                    <mxGeometry y="30" width="190" height="30" as="geometry"/>
                </mxCell>
                <mxCell id="EHqZGnkW4gjdid92-_3c-26" value="propertyID &lt;b style=&quot;&quot;&gt;&lt;font color=&quot;#ff0000&quot;&gt;FK&amp;nbsp;&amp;nbsp;&lt;/font&gt;&lt;/b&gt;" style="text;strokeColor=none;fillColor=none;align=left;verticalAlign=middle;spacingLeft=4;spacingRight=4;overflow=hidden;points=[[0,0.5],[1,0.5]];portConstraint=eastwest;rotatable=0;whiteSpace=wrap;html=1;fontColor=#000000;" parent="EHqZGnkW4gjdid92-_3c-24" vertex="1">
                    <mxGeometry y="60" width="190" height="30" as="geometry"/>
                </mxCell>
                <mxCell id="EHqZGnkW4gjdid92-_3c-27" value="tenantID&amp;nbsp;&lt;b style=&quot;&quot;&gt;&lt;font color=&quot;#ff0000&quot;&gt;FK&amp;nbsp;&amp;nbsp;&lt;/font&gt;&lt;/b&gt;" style="text;strokeColor=none;fillColor=none;align=left;verticalAlign=middle;spacingLeft=4;spacingRight=4;overflow=hidden;points=[[0,0.5],[1,0.5]];portConstraint=eastwest;rotatable=0;whiteSpace=wrap;html=1;fontColor=#000000;" parent="EHqZGnkW4gjdid92-_3c-24" vertex="1">
                    <mxGeometry y="90" width="190" height="30" as="geometry"/>
                </mxCell>
                <mxCell id="EHqZGnkW4gjdid92-_3c-28" value="leaseNumber&lt;b style=&quot;&quot;&gt;&lt;font color=&quot;#ff0000&quot;&gt;&amp;nbsp;&amp;nbsp;&lt;/font&gt;&lt;/b&gt;" style="text;strokeColor=none;fillColor=none;align=left;verticalAlign=middle;spacingLeft=4;spacingRight=4;overflow=hidden;points=[[0,0.5],[1,0.5]];portConstraint=eastwest;rotatable=0;whiteSpace=wrap;html=1;fontColor=#000000;" parent="EHqZGnkW4gjdid92-_3c-24" vertex="1">
                    <mxGeometry y="120" width="190" height="30" as="geometry"/>
                </mxCell>
                <mxCell id="EHqZGnkW4gjdid92-_3c-29" value="leasePeriod&lt;b style=&quot;&quot;&gt;&lt;font color=&quot;#ff0000&quot;&gt;&amp;nbsp;&lt;/font&gt;&lt;/b&gt;" style="text;strokeColor=none;fillColor=none;align=left;verticalAlign=middle;spacingLeft=4;spacingRight=4;overflow=hidden;points=[[0,0.5],[1,0.5]];portConstraint=eastwest;rotatable=0;whiteSpace=wrap;html=1;fontColor=#000000;" parent="EHqZGnkW4gjdid92-_3c-24" vertex="1">
                    <mxGeometry y="150" width="190" height="30" as="geometry"/>
                </mxCell>
                <mxCell id="EHqZGnkW4gjdid92-_3c-30" value="1,1" style="text;html=1;align=center;verticalAlign=middle;resizable=0;points=[];autosize=1;strokeColor=none;fillColor=none;fontColor=#000000;labelBackgroundColor=none;" parent="1" vertex="1">
                    <mxGeometry x="476" y="210" width="40" height="30" as="geometry"/>
                </mxCell>
                <mxCell id="EHqZGnkW4gjdid92-_3c-31" value="1,n" style="text;html=1;align=center;verticalAlign=middle;resizable=0;points=[];autosize=1;strokeColor=none;fillColor=none;fontColor=#000000;labelBackgroundColor=none;" parent="1" vertex="1">
                    <mxGeometry x="676" y="210" width="40" height="30" as="geometry"/>
                </mxCell>
                <mxCell id="EHqZGnkW4gjdid92-_3c-32" value="&lt;font color=&quot;#ff0000&quot; style=&quot;font-size: 16px;&quot;&gt;&lt;b&gt;Question 03&lt;/b&gt;&lt;/font&gt;" style="text;html=1;align=center;verticalAlign=middle;resizable=0;points=[];autosize=1;strokeColor=none;fillColor=none;fontColor=#000000;labelBackgroundColor=none;" parent="1" vertex="1">
                    <mxGeometry x="524" y="50" width="120" height="30" as="geometry"/>
                </mxCell>
                <mxCell id="EHqZGnkW4gjdid92-_3c-33" value="&lt;font color=&quot;#ff0000&quot;&gt;&lt;b&gt;&amp;nbsp; &amp;nbsp; &amp;nbsp; &amp;nbsp; &amp;nbsp; &amp;nbsp; &amp;nbsp; &amp;nbsp; &amp;nbsp; &amp;nbsp; &amp;nbsp; Logical Data Model&lt;/b&gt;&lt;/font&gt;" style="text;html=1;align=center;verticalAlign=middle;resizable=0;points=[];autosize=1;strokeColor=none;fillColor=none;fontSize=16;fontColor=#000000;labelBackgroundColor=none;" parent="1" vertex="1">
                    <mxGeometry x="166" y="120" width="270" height="30" as="geometry"/>
                </mxCell>
                <mxCell id="EHqZGnkW4gjdid92-_3c-34" style="edgeStyle=none;html=1;entryX=0;entryY=0.5;entryDx=0;entryDy=0;fontSize=12;fontColor=#000000;exitX=1;exitY=0.5;exitDx=0;exitDy=0;strokeColor=#000000;labelBackgroundColor=none;" parent="1" source="EHqZGnkW4gjdid92-_3c-2" target="EHqZGnkW4gjdid92-_3c-9" edge="1">
                    <mxGeometry relative="1" as="geometry"/>
                </mxCell>
                <mxCell id="EHqZGnkW4gjdid92-_3c-35" style="edgeStyle=none;html=1;exitX=1;exitY=0.5;exitDx=0;exitDy=0;labelBackgroundColor=none;strokeColor=#000000;fontColor=#000000;" parent="1" source="EHqZGnkW4gjdid92-_3c-10" target="EHqZGnkW4gjdid92-_3c-14" edge="1">
                    <mxGeometry relative="1" as="geometry">
                        <Array as="points">
                            <mxPoint x="950" y="270"/>
                        </Array>
                    </mxGeometry>
                </mxCell>
                <mxCell id="EHqZGnkW4gjdid92-_3c-36" value="1,1" style="text;html=1;align=center;verticalAlign=middle;resizable=0;points=[];autosize=1;strokeColor=none;fillColor=none;fontColor=#000000;" parent="1" vertex="1">
                    <mxGeometry x="900" y="245" width="40" height="30" as="geometry"/>
                </mxCell>
                <mxCell id="EHqZGnkW4gjdid92-_3c-37" value="1,1" style="text;html=1;align=center;verticalAlign=middle;resizable=0;points=[];autosize=1;strokeColor=none;fillColor=none;fontColor=#000000;" parent="1" vertex="1">
                    <mxGeometry x="950" y="515" width="40" height="30" as="geometry"/>
                </mxCell>
                <mxCell id="EHqZGnkW4gjdid92-_3c-38" style="edgeStyle=none;html=1;exitX=1;exitY=0.5;exitDx=0;exitDy=0;entryX=0;entryY=0.5;entryDx=0;entryDy=0;labelBackgroundColor=none;strokeColor=#000000;fontColor=#000000;" parent="1" source="EHqZGnkW4gjdid92-_3c-26" target="EHqZGnkW4gjdid92-_3c-21" edge="1">
                    <mxGeometry relative="1" as="geometry"/>
                </mxCell>
                <mxCell id="EHqZGnkW4gjdid92-_3c-39" value="1,1" style="text;html=1;align=center;verticalAlign=middle;resizable=0;points=[];autosize=1;strokeColor=none;fillColor=none;fontColor=#000000;" parent="1" vertex="1">
                    <mxGeometry x="455" y="605" width="40" height="30" as="geometry"/>
                </mxCell>
                <mxCell id="EHqZGnkW4gjdid92-_3c-40" value="1,1" style="text;html=1;align=center;verticalAlign=middle;resizable=0;points=[];autosize=1;strokeColor=none;fillColor=none;fontColor=#000000;" parent="1" vertex="1">
                    <mxGeometry x="560" y="605" width="40" height="30" as="geometry"/>
                </mxCell>
                <mxCell id="EHqZGnkW4gjdid92-_3c-41" style="edgeStyle=none;html=1;entryX=0.75;entryY=0;entryDx=0;entryDy=0;labelBackgroundColor=none;strokeColor=#000000;fontColor=#000000;" parent="1" target="EHqZGnkW4gjdid92-_3c-24" edge="1">
                    <mxGeometry relative="1" as="geometry">
                        <mxPoint x="720" y="280" as="sourcePoint"/>
                        <Array as="points">
                            <mxPoint x="560" y="280"/>
                            <mxPoint x="560" y="480"/>
                            <mxPoint x="413" y="480"/>
                        </Array>
                    </mxGeometry>
                </mxCell>
                <mxCell id="EHqZGnkW4gjdid92-_3c-42" value="0,n" style="text;html=1;align=center;verticalAlign=middle;resizable=0;points=[];autosize=1;strokeColor=none;fillColor=none;fontColor=#000000;" parent="1" vertex="1">
                    <mxGeometry x="410" y="525" width="40" height="30" as="geometry"/>
                </mxCell>
                <mxCell id="EHqZGnkW4gjdid92-_3c-43" value="1,1" style="text;html=1;align=center;verticalAlign=middle;resizable=0;points=[];autosize=1;strokeColor=none;fillColor=none;fontColor=#000000;" parent="1" vertex="1">
                    <mxGeometry x="670" y="275" width="40" height="30" as="geometry"/>
                </mxCell>
                <mxCell id="EHqZGnkW4gjdid92-_3c-44" style="edgeStyle=none;html=1;exitX=1;exitY=0.5;exitDx=0;exitDy=0;entryX=1;entryY=0.5;entryDx=0;entryDy=0;labelBackgroundColor=none;strokeColor=#000000;fontColor=#000000;" parent="1" source="EHqZGnkW4gjdid92-_3c-29" target="EHqZGnkW4gjdid92-_3c-18" edge="1">
                    <mxGeometry relative="1" as="geometry">
                        <Array as="points">
                            <mxPoint x="520" y="725"/>
                            <mxPoint x="520" y="750"/>
                            <mxPoint x="1080" y="750"/>
                            <mxPoint x="1080" y="685"/>
                        </Array>
                    </mxGeometry>
                </mxCell>
                <mxCell id="EHqZGnkW4gjdid92-_3c-45" value="1,1" style="text;html=1;align=center;verticalAlign=middle;resizable=0;points=[];autosize=1;strokeColor=none;fillColor=none;fontColor=#000000;" parent="1" vertex="1">
                    <mxGeometry x="470" y="725" width="40" height="30" as="geometry"/>
                </mxCell>
                <mxCell id="EHqZGnkW4gjdid92-_3c-46" value="1,n" style="text;html=1;align=center;verticalAlign=middle;resizable=0;points=[];autosize=1;strokeColor=none;fillColor=none;fontColor=#000000;" parent="1" vertex="1">
                    <mxGeometry x="1040" y="655" width="40" height="30" as="geometry"/>
                </mxCell>
            </root>
        </mxGraphModel>
    </diagram>
    <diagram id="e5wKUDpGme0rOn9rmm7K" name="Page-7">
        <mxGraphModel dx="655" dy="544" grid="1" gridSize="10" guides="1" tooltips="1" connect="1" arrows="1" fold="1" page="1" pageScale="1" pageWidth="1169" pageHeight="827" background="#ffffff" math="0" shadow="0">
            <root>
                <mxCell id="0"/>
                <mxCell id="1" parent="0"/>
                <mxCell id="z6u7dM-m5VnPzgzhwBVo-1" value="OWNER" style="swimlane;fontStyle=0;childLayout=stackLayout;horizontal=1;startSize=30;horizontalStack=0;resizeParent=1;resizeParentMax=0;resizeLast=0;collapsible=1;marginBottom=0;whiteSpace=wrap;html=1;fillColor=#0050ef;fontColor=#000000;strokeColor=#001DBC;labelBackgroundColor=none;" parent="1" vertex="1">
                    <mxGeometry x="270" y="195" width="196" height="90" as="geometry"/>
                </mxCell>
                <mxCell id="z6u7dM-m5VnPzgzhwBVo-2" value="ownerID &lt;b style=&quot;&quot;&gt;&lt;font color=&quot;#ff0000&quot;&gt;&amp;nbsp;&lt;/font&gt;&lt;/b&gt;&amp;nbsp;" style="text;strokeColor=none;fillColor=none;align=left;verticalAlign=middle;spacingLeft=4;spacingRight=4;overflow=hidden;points=[[0,0.5],[1,0.5]];portConstraint=eastwest;rotatable=0;whiteSpace=wrap;html=1;fontColor=#000000;" parent="z6u7dM-m5VnPzgzhwBVo-1" vertex="1">
                    <mxGeometry y="30" width="196" height="30" as="geometry"/>
                </mxCell>
                <mxCell id="z6u7dM-m5VnPzgzhwBVo-3" value="lastName &amp;nbsp;" style="text;strokeColor=none;fillColor=none;align=left;verticalAlign=middle;spacingLeft=4;spacingRight=4;overflow=hidden;points=[[0,0.5],[1,0.5]];portConstraint=eastwest;rotatable=0;whiteSpace=wrap;html=1;fontColor=#000000;" parent="z6u7dM-m5VnPzgzhwBVo-1" vertex="1">
                    <mxGeometry y="60" width="196" height="30" as="geometry"/>
                </mxCell>
                <mxCell id="z6u7dM-m5VnPzgzhwBVo-8" value="PROPERTY" style="swimlane;fontStyle=0;childLayout=stackLayout;horizontal=1;startSize=30;horizontalStack=0;resizeParent=1;resizeParentMax=0;resizeLast=0;collapsible=1;marginBottom=0;whiteSpace=wrap;html=1;fillColor=#0050ef;fontColor=#000000;strokeColor=#001DBC;labelBackgroundColor=none;" parent="1" vertex="1">
                    <mxGeometry x="726" y="195" width="174" height="90" as="geometry"/>
                </mxCell>
                <mxCell id="z6u7dM-m5VnPzgzhwBVo-9" value="propertyID&lt;b style=&quot;&quot;&gt;&lt;font color=&quot;#ff0000&quot;&gt;&amp;nbsp;&lt;/font&gt;&lt;/b&gt;" style="text;strokeColor=none;fillColor=none;align=left;verticalAlign=middle;spacingLeft=4;spacingRight=4;overflow=hidden;points=[[0,0.5],[1,0.5]];portConstraint=eastwest;rotatable=0;whiteSpace=wrap;html=1;fontColor=#000000;" parent="z6u7dM-m5VnPzgzhwBVo-8" vertex="1">
                    <mxGeometry y="30" width="174" height="30" as="geometry"/>
                </mxCell>
                <mxCell id="z6u7dM-m5VnPzgzhwBVo-10" value="size" style="text;strokeColor=none;fillColor=none;align=left;verticalAlign=middle;spacingLeft=4;spacingRight=4;overflow=hidden;points=[[0,0.5],[1,0.5]];portConstraint=eastwest;rotatable=0;whiteSpace=wrap;html=1;fontColor=#000000;" parent="z6u7dM-m5VnPzgzhwBVo-8" vertex="1">
                    <mxGeometry y="60" width="174" height="30" as="geometry"/>
                </mxCell>
                <mxCell id="z6u7dM-m5VnPzgzhwBVo-14" value="CONTRACT" style="swimlane;fontStyle=0;childLayout=stackLayout;horizontal=1;startSize=30;horizontalStack=0;resizeParent=1;resizeParentMax=0;resizeLast=0;collapsible=1;marginBottom=0;whiteSpace=wrap;html=1;fillColor=#0050ef;fontColor=#000000;strokeColor=#001DBC;labelBackgroundColor=none;" parent="1" vertex="1">
                    <mxGeometry x="870" y="550" width="160" height="90" as="geometry"/>
                </mxCell>
                <mxCell id="z6u7dM-m5VnPzgzhwBVo-15" value="contactID&amp;nbsp;&lt;b&gt;&lt;font color=&quot;#ff0000&quot;&gt;&amp;nbsp;&lt;/font&gt;&lt;/b&gt;" style="text;strokeColor=none;fillColor=none;align=left;verticalAlign=middle;spacingLeft=4;spacingRight=4;overflow=hidden;points=[[0,0.5],[1,0.5]];portConstraint=eastwest;rotatable=0;whiteSpace=wrap;html=1;fontColor=#000000;" parent="z6u7dM-m5VnPzgzhwBVo-14" vertex="1">
                    <mxGeometry y="30" width="160" height="30" as="geometry"/>
                </mxCell>
                <mxCell id="z6u7dM-m5VnPzgzhwBVo-16" value="&lt;font style=&quot;&quot;&gt;duration&lt;/font&gt;&lt;font style=&quot;font-weight: bold;&quot; color=&quot;#ff0000&quot;&gt;&amp;nbsp;&lt;/font&gt;" style="text;strokeColor=none;fillColor=none;align=left;verticalAlign=middle;spacingLeft=4;spacingRight=4;overflow=hidden;points=[[0,0.5],[1,0.5]];portConstraint=eastwest;rotatable=0;whiteSpace=wrap;html=1;fontColor=#000000;" parent="z6u7dM-m5VnPzgzhwBVo-14" vertex="1">
                    <mxGeometry y="60" width="160" height="30" as="geometry"/>
                </mxCell>
                <mxCell id="z6u7dM-m5VnPzgzhwBVo-19" value="TENANT" style="swimlane;fontStyle=0;childLayout=stackLayout;horizontal=1;startSize=30;horizontalStack=0;resizeParent=1;resizeParentMax=0;resizeLast=0;collapsible=1;marginBottom=0;whiteSpace=wrap;html=1;fillColor=#0050ef;fontColor=#000000;strokeColor=#001DBC;labelBackgroundColor=none;" parent="1" vertex="1">
                    <mxGeometry x="600" y="560" width="190" height="90" as="geometry"/>
                </mxCell>
                <mxCell id="z6u7dM-m5VnPzgzhwBVo-20" value="tenantID&lt;b&gt;&lt;font color=&quot;#ff0000&quot;&gt;&amp;nbsp;&lt;/font&gt;&lt;/b&gt;" style="text;strokeColor=none;fillColor=none;align=left;verticalAlign=middle;spacingLeft=4;spacingRight=4;overflow=hidden;points=[[0,0.5],[1,0.5]];portConstraint=eastwest;rotatable=0;whiteSpace=wrap;html=1;fontColor=#000000;" parent="z6u7dM-m5VnPzgzhwBVo-19" vertex="1">
                    <mxGeometry y="30" width="190" height="30" as="geometry"/>
                </mxCell>
                <mxCell id="z6u7dM-m5VnPzgzhwBVo-21" value="lastName&amp;nbsp;" style="text;strokeColor=none;fillColor=none;align=left;verticalAlign=middle;spacingLeft=4;spacingRight=4;overflow=hidden;points=[[0,0.5],[1,0.5]];portConstraint=eastwest;rotatable=0;whiteSpace=wrap;html=1;fontColor=#000000;" parent="z6u7dM-m5VnPzgzhwBVo-19" vertex="1">
                    <mxGeometry y="60" width="190" height="30" as="geometry"/>
                </mxCell>
                <mxCell id="z6u7dM-m5VnPzgzhwBVo-24" value="LEASE" style="swimlane;fontStyle=0;childLayout=stackLayout;horizontal=1;startSize=30;horizontalStack=0;resizeParent=1;resizeParentMax=0;resizeLast=0;collapsible=1;marginBottom=0;whiteSpace=wrap;html=1;fillColor=#0050ef;fontColor=#000000;strokeColor=#001DBC;labelBackgroundColor=none;" parent="1" vertex="1">
                    <mxGeometry x="270" y="560" width="160" height="90" as="geometry"/>
                </mxCell>
                <mxCell id="z6u7dM-m5VnPzgzhwBVo-25" value="leaseID&amp;nbsp;&lt;b style=&quot;&quot;&gt;&lt;font color=&quot;#ff0000&quot;&gt;&amp;nbsp;&amp;nbsp;&lt;/font&gt;&lt;/b&gt;" style="text;strokeColor=none;fillColor=none;align=left;verticalAlign=middle;spacingLeft=4;spacingRight=4;overflow=hidden;points=[[0,0.5],[1,0.5]];portConstraint=eastwest;rotatable=0;whiteSpace=wrap;html=1;fontColor=#000000;" parent="z6u7dM-m5VnPzgzhwBVo-24" vertex="1">
                    <mxGeometry y="30" width="160" height="30" as="geometry"/>
                </mxCell>
                <mxCell id="z6u7dM-m5VnPzgzhwBVo-26" value="&lt;font style=&quot;&quot;&gt;leasePeriod&lt;/font&gt;&lt;font style=&quot;font-weight: bold;&quot; color=&quot;#ff0000&quot;&gt;&amp;nbsp;&amp;nbsp;&lt;/font&gt;" style="text;strokeColor=none;fillColor=none;align=left;verticalAlign=middle;spacingLeft=4;spacingRight=4;overflow=hidden;points=[[0,0.5],[1,0.5]];portConstraint=eastwest;rotatable=0;whiteSpace=wrap;html=1;fontColor=#000000;" parent="z6u7dM-m5VnPzgzhwBVo-24" vertex="1">
                    <mxGeometry y="60" width="160" height="30" as="geometry"/>
                </mxCell>
                <mxCell id="z6u7dM-m5VnPzgzhwBVo-30" value="1,1" style="text;html=1;align=center;verticalAlign=middle;resizable=0;points=[];autosize=1;strokeColor=none;fillColor=none;fontColor=#000000;labelBackgroundColor=none;" parent="1" vertex="1">
                    <mxGeometry x="476" y="210" width="40" height="30" as="geometry"/>
                </mxCell>
                <mxCell id="z6u7dM-m5VnPzgzhwBVo-31" value="1,n" style="text;html=1;align=center;verticalAlign=middle;resizable=0;points=[];autosize=1;strokeColor=none;fillColor=none;fontColor=#000000;labelBackgroundColor=none;" parent="1" vertex="1">
                    <mxGeometry x="676" y="210" width="40" height="30" as="geometry"/>
                </mxCell>
                <mxCell id="z6u7dM-m5VnPzgzhwBVo-32" value="&lt;font color=&quot;#ff0000&quot; style=&quot;font-size: 16px;&quot;&gt;&lt;b&gt;Question 03&lt;/b&gt;&lt;/font&gt;" style="text;html=1;align=center;verticalAlign=middle;resizable=0;points=[];autosize=1;strokeColor=none;fillColor=none;fontColor=#000000;labelBackgroundColor=none;" parent="1" vertex="1">
                    <mxGeometry x="524" y="50" width="120" height="30" as="geometry"/>
                </mxCell>
                <mxCell id="z6u7dM-m5VnPzgzhwBVo-33" value="&lt;font color=&quot;#ff0000&quot;&gt;&lt;b&gt;&amp;nbsp; &amp;nbsp; &amp;nbsp; &amp;nbsp; &amp;nbsp; &amp;nbsp; &amp;nbsp; &amp;nbsp; &amp;nbsp; &amp;nbsp; &amp;nbsp; Conceptinal Data Model&lt;/b&gt;&lt;/font&gt;" style="text;html=1;align=center;verticalAlign=middle;resizable=0;points=[];autosize=1;strokeColor=none;fillColor=none;fontSize=16;fontColor=#000000;labelBackgroundColor=none;" parent="1" vertex="1">
                    <mxGeometry x="151" y="120" width="300" height="30" as="geometry"/>
                </mxCell>
                <mxCell id="z6u7dM-m5VnPzgzhwBVo-36" value="1,1" style="text;html=1;align=center;verticalAlign=middle;resizable=0;points=[];autosize=1;strokeColor=none;fillColor=none;fontColor=#000000;" parent="1" vertex="1">
                    <mxGeometry x="900" y="245" width="40" height="30" as="geometry"/>
                </mxCell>
                <mxCell id="z6u7dM-m5VnPzgzhwBVo-37" value="1,1" style="text;html=1;align=center;verticalAlign=middle;resizable=0;points=[];autosize=1;strokeColor=none;fillColor=none;fontColor=#000000;" parent="1" vertex="1">
                    <mxGeometry x="950" y="515" width="40" height="30" as="geometry"/>
                </mxCell>
                <mxCell id="z6u7dM-m5VnPzgzhwBVo-39" value="1,1" style="text;html=1;align=center;verticalAlign=middle;resizable=0;points=[];autosize=1;strokeColor=none;fillColor=none;fontColor=#000000;" parent="1" vertex="1">
                    <mxGeometry x="430" y="575" width="40" height="30" as="geometry"/>
                </mxCell>
                <mxCell id="z6u7dM-m5VnPzgzhwBVo-40" value="1,1" style="text;html=1;align=center;verticalAlign=middle;resizable=0;points=[];autosize=1;strokeColor=none;fillColor=none;fontColor=#000000;" parent="1" vertex="1">
                    <mxGeometry x="555" y="570" width="40" height="30" as="geometry"/>
                </mxCell>
                <mxCell id="z6u7dM-m5VnPzgzhwBVo-42" value="0,n" style="text;html=1;align=center;verticalAlign=middle;resizable=0;points=[];autosize=1;strokeColor=none;fillColor=none;fontColor=#000000;" parent="1" vertex="1">
                    <mxGeometry x="380" y="530" width="40" height="30" as="geometry"/>
                </mxCell>
                <mxCell id="z6u7dM-m5VnPzgzhwBVo-43" value="1,1" style="text;html=1;align=center;verticalAlign=middle;resizable=0;points=[];autosize=1;strokeColor=none;fillColor=none;fontColor=#000000;" parent="1" vertex="1">
                    <mxGeometry x="670" y="275" width="40" height="30" as="geometry"/>
                </mxCell>
                <mxCell id="z6u7dM-m5VnPzgzhwBVo-45" value="1,1" style="text;html=1;align=center;verticalAlign=middle;resizable=0;points=[];autosize=1;strokeColor=none;fillColor=none;fontColor=#000000;" parent="1" vertex="1">
                    <mxGeometry x="430" y="650" width="40" height="30" as="geometry"/>
                </mxCell>
                <mxCell id="z6u7dM-m5VnPzgzhwBVo-46" value="1,n" style="text;html=1;align=center;verticalAlign=middle;resizable=0;points=[];autosize=1;strokeColor=none;fillColor=none;fontColor=#000000;" parent="1" vertex="1">
                    <mxGeometry x="840" y="640" width="40" height="30" as="geometry"/>
                </mxCell>
                <mxCell id="z6u7dM-m5VnPzgzhwBVo-58" style="edgeStyle=none;html=1;exitX=1;exitY=0.5;exitDx=0;exitDy=0;entryX=0;entryY=0.5;entryDx=0;entryDy=0;labelBackgroundColor=none;strokeColor=#000000;fontColor=#000000;startArrow=none;startFill=0;endArrow=none;endFill=0;" parent="1" source="z6u7dM-m5VnPzgzhwBVo-47" target="z6u7dM-m5VnPzgzhwBVo-9" edge="1">
                    <mxGeometry relative="1" as="geometry"/>
                </mxCell>
                <mxCell id="z6u7dM-m5VnPzgzhwBVo-47" value="own" style="rounded=1;whiteSpace=wrap;html=1;labelBackgroundColor=none;fontColor=#000000;fillColor=none;strokeColor=#000000;" parent="1" vertex="1">
                    <mxGeometry x="555" y="225" width="50" height="30" as="geometry"/>
                </mxCell>
                <mxCell id="z6u7dM-m5VnPzgzhwBVo-64" style="edgeStyle=none;html=1;exitX=1;exitY=0.5;exitDx=0;exitDy=0;entryX=0;entryY=0.5;entryDx=0;entryDy=0;labelBackgroundColor=none;strokeColor=#000000;fontColor=#000000;startArrow=none;startFill=0;endArrow=none;endFill=0;" parent="1" source="z6u7dM-m5VnPzgzhwBVo-48" target="z6u7dM-m5VnPzgzhwBVo-16" edge="1">
                    <mxGeometry relative="1" as="geometry">
                        <Array as="points">
                            <mxPoint x="840" y="715"/>
                            <mxPoint x="840" y="625"/>
                        </Array>
                    </mxGeometry>
                </mxCell>
                <mxCell id="z6u7dM-m5VnPzgzhwBVo-48" value="associated" style="rounded=1;whiteSpace=wrap;html=1;labelBackgroundColor=none;fontColor=#000000;fillColor=none;strokeColor=#000000;" parent="1" vertex="1">
                    <mxGeometry x="640" y="700" width="70" height="30" as="geometry"/>
                </mxCell>
                <mxCell id="z6u7dM-m5VnPzgzhwBVo-60" style="edgeStyle=none;html=1;exitX=0.5;exitY=1;exitDx=0;exitDy=0;entryX=0.5;entryY=0;entryDx=0;entryDy=0;labelBackgroundColor=none;strokeColor=#000000;fontColor=#000000;startArrow=none;startFill=0;endArrow=none;endFill=0;" parent="1" source="z6u7dM-m5VnPzgzhwBVo-49" target="z6u7dM-m5VnPzgzhwBVo-14" edge="1">
                    <mxGeometry relative="1" as="geometry"/>
                </mxCell>
                <mxCell id="z6u7dM-m5VnPzgzhwBVo-49" value="have" style="rounded=1;whiteSpace=wrap;html=1;labelBackgroundColor=none;fontColor=#000000;fillColor=none;strokeColor=#000000;" parent="1" vertex="1">
                    <mxGeometry x="925" y="399" width="50" height="30" as="geometry"/>
                </mxCell>
                <mxCell id="z6u7dM-m5VnPzgzhwBVo-62" style="edgeStyle=none;html=1;exitX=1;exitY=0.5;exitDx=0;exitDy=0;entryX=0;entryY=0.5;entryDx=0;entryDy=0;labelBackgroundColor=none;strokeColor=#000000;fontColor=#000000;startArrow=none;startFill=0;endArrow=none;endFill=0;" parent="1" source="z6u7dM-m5VnPzgzhwBVo-50" target="z6u7dM-m5VnPzgzhwBVo-20" edge="1">
                    <mxGeometry relative="1" as="geometry"/>
                </mxCell>
                <mxCell id="z6u7dM-m5VnPzgzhwBVo-50" value="have" style="rounded=1;whiteSpace=wrap;html=1;labelBackgroundColor=none;fontColor=#000000;fillColor=none;strokeColor=#000000;" parent="1" vertex="1">
                    <mxGeometry x="495" y="590" width="50" height="30" as="geometry"/>
                </mxCell>
                <mxCell id="z6u7dM-m5VnPzgzhwBVo-66" style="edgeStyle=none;html=1;exitX=0.5;exitY=1;exitDx=0;exitDy=0;entryX=0.656;entryY=0.011;entryDx=0;entryDy=0;entryPerimeter=0;labelBackgroundColor=none;strokeColor=#000000;fontColor=#000000;startArrow=none;startFill=0;endArrow=none;endFill=0;" parent="1" source="z6u7dM-m5VnPzgzhwBVo-51" target="z6u7dM-m5VnPzgzhwBVo-24" edge="1">
                    <mxGeometry relative="1" as="geometry"/>
                </mxCell>
                <mxCell id="z6u7dM-m5VnPzgzhwBVo-51" value="have" style="rounded=1;whiteSpace=wrap;html=1;labelBackgroundColor=none;fontColor=#000000;fillColor=none;strokeColor=#000000;" parent="1" vertex="1">
                    <mxGeometry x="350" y="414" width="50" height="30" as="geometry"/>
                </mxCell>
                <mxCell id="z6u7dM-m5VnPzgzhwBVo-57" value="" style="endArrow=none;html=1;labelBackgroundColor=none;strokeColor=#000000;fontColor=#000000;exitX=1;exitY=0.5;exitDx=0;exitDy=0;entryX=0;entryY=0.5;entryDx=0;entryDy=0;" parent="1" source="z6u7dM-m5VnPzgzhwBVo-2" target="z6u7dM-m5VnPzgzhwBVo-47" edge="1">
                    <mxGeometry width="50" height="50" relative="1" as="geometry">
                        <mxPoint x="630" y="380" as="sourcePoint"/>
                        <mxPoint x="680" y="330" as="targetPoint"/>
                    </mxGeometry>
                </mxCell>
                <mxCell id="z6u7dM-m5VnPzgzhwBVo-59" style="edgeStyle=none;html=1;exitX=1;exitY=0.5;exitDx=0;exitDy=0;entryX=0.5;entryY=0;entryDx=0;entryDy=0;labelBackgroundColor=none;strokeColor=#000000;fontColor=#000000;startArrow=none;startFill=0;endArrow=none;endFill=0;" parent="1" source="z6u7dM-m5VnPzgzhwBVo-9" target="z6u7dM-m5VnPzgzhwBVo-49" edge="1">
                    <mxGeometry relative="1" as="geometry">
                        <Array as="points">
                            <mxPoint x="950" y="240"/>
                        </Array>
                    </mxGeometry>
                </mxCell>
                <mxCell id="z6u7dM-m5VnPzgzhwBVo-61" style="edgeStyle=none;html=1;exitX=1;exitY=0.5;exitDx=0;exitDy=0;entryX=0;entryY=0.5;entryDx=0;entryDy=0;labelBackgroundColor=none;strokeColor=#000000;fontColor=#000000;startArrow=none;startFill=0;endArrow=none;endFill=0;" parent="1" source="z6u7dM-m5VnPzgzhwBVo-25" target="z6u7dM-m5VnPzgzhwBVo-50" edge="1">
                    <mxGeometry relative="1" as="geometry"/>
                </mxCell>
                <mxCell id="z6u7dM-m5VnPzgzhwBVo-63" style="edgeStyle=none;html=1;exitX=1;exitY=0.5;exitDx=0;exitDy=0;entryX=0;entryY=0.5;entryDx=0;entryDy=0;labelBackgroundColor=none;strokeColor=#000000;fontColor=#000000;startArrow=none;startFill=0;endArrow=none;endFill=0;" parent="1" source="z6u7dM-m5VnPzgzhwBVo-26" target="z6u7dM-m5VnPzgzhwBVo-48" edge="1">
                    <mxGeometry relative="1" as="geometry">
                        <Array as="points">
                            <mxPoint x="480" y="635"/>
                            <mxPoint x="480" y="715"/>
                        </Array>
                    </mxGeometry>
                </mxCell>
                <mxCell id="z6u7dM-m5VnPzgzhwBVo-65" style="edgeStyle=none;html=1;exitX=0;exitY=0.5;exitDx=0;exitDy=0;entryX=0.5;entryY=0;entryDx=0;entryDy=0;labelBackgroundColor=none;strokeColor=#000000;fontColor=#000000;startArrow=none;startFill=0;endArrow=none;endFill=0;" parent="1" source="z6u7dM-m5VnPzgzhwBVo-10" target="z6u7dM-m5VnPzgzhwBVo-51" edge="1">
                    <mxGeometry relative="1" as="geometry">
                        <Array as="points">
                            <mxPoint x="520" y="270"/>
                            <mxPoint x="520" y="360"/>
                            <mxPoint x="375" y="360"/>
                        </Array>
                    </mxGeometry>
                </mxCell>
            </root>
        </mxGraphModel>
    </diagram>
    <diagram id="FAplMdWCt1mQ4gE6JVou" name="Page-8">
        <mxGraphModel dx="655" dy="544" grid="1" gridSize="10" guides="1" tooltips="1" connect="1" arrows="1" fold="1" page="1" pageScale="1" pageWidth="1169" pageHeight="827" background="#ffffff" math="0" shadow="0">
            <root>
                <mxCell id="0"/>
                <mxCell id="1" parent="0"/>
                <mxCell id="LONT5JoRONkXth71uDcx-1" value="OPERATOR" style="swimlane;fontStyle=0;childLayout=stackLayout;horizontal=1;startSize=30;horizontalStack=0;resizeParent=1;resizeParentMax=0;resizeLast=0;collapsible=1;marginBottom=0;whiteSpace=wrap;html=1;fillColor=#0050ef;fontColor=#000000;strokeColor=#001DBC;labelBackgroundColor=none;" parent="1" vertex="1">
                    <mxGeometry x="270" y="195" width="196" height="90" as="geometry"/>
                </mxCell>
                <mxCell id="LONT5JoRONkXth71uDcx-2" value="operatorID &lt;b style=&quot;&quot;&gt;&lt;font color=&quot;#ff0000&quot;&gt;&amp;nbsp;&lt;/font&gt;&lt;/b&gt;&amp;nbsp;" style="text;strokeColor=none;fillColor=none;align=left;verticalAlign=middle;spacingLeft=4;spacingRight=4;overflow=hidden;points=[[0,0.5],[1,0.5]];portConstraint=eastwest;rotatable=0;whiteSpace=wrap;html=1;fontColor=#000000;" parent="LONT5JoRONkXth71uDcx-1" vertex="1">
                    <mxGeometry y="30" width="196" height="30" as="geometry"/>
                </mxCell>
                <mxCell id="LONT5JoRONkXth71uDcx-3" value="operatorName &amp;nbsp;" style="text;strokeColor=none;fillColor=none;align=left;verticalAlign=middle;spacingLeft=4;spacingRight=4;overflow=hidden;points=[[0,0.5],[1,0.5]];portConstraint=eastwest;rotatable=0;whiteSpace=wrap;html=1;fontColor=#000000;" parent="LONT5JoRONkXth71uDcx-1" vertex="1">
                    <mxGeometry y="60" width="196" height="30" as="geometry"/>
                </mxCell>
                <mxCell id="LONT5JoRONkXth71uDcx-4" value="VEHICLE" style="swimlane;fontStyle=0;childLayout=stackLayout;horizontal=1;startSize=30;horizontalStack=0;resizeParent=1;resizeParentMax=0;resizeLast=0;collapsible=1;marginBottom=0;whiteSpace=wrap;html=1;fillColor=#0050ef;fontColor=#000000;strokeColor=#001DBC;labelBackgroundColor=none;" parent="1" vertex="1">
                    <mxGeometry x="726" y="195" width="174" height="90" as="geometry"/>
                </mxCell>
                <mxCell id="LONT5JoRONkXth71uDcx-5" value="vehicleID&lt;b style=&quot;&quot;&gt;&lt;font color=&quot;#ff0000&quot;&gt;&amp;nbsp;&lt;/font&gt;&lt;/b&gt;" style="text;strokeColor=none;fillColor=none;align=left;verticalAlign=middle;spacingLeft=4;spacingRight=4;overflow=hidden;points=[[0,0.5],[1,0.5]];portConstraint=eastwest;rotatable=0;whiteSpace=wrap;html=1;fontColor=#000000;" parent="LONT5JoRONkXth71uDcx-4" vertex="1">
                    <mxGeometry y="30" width="174" height="30" as="geometry"/>
                </mxCell>
                <mxCell id="LONT5JoRONkXth71uDcx-6" value="vehicleType" style="text;strokeColor=none;fillColor=none;align=left;verticalAlign=middle;spacingLeft=4;spacingRight=4;overflow=hidden;points=[[0,0.5],[1,0.5]];portConstraint=eastwest;rotatable=0;whiteSpace=wrap;html=1;fontColor=#000000;" parent="LONT5JoRONkXth71uDcx-4" vertex="1">
                    <mxGeometry y="60" width="174" height="30" as="geometry"/>
                </mxCell>
                <mxCell id="LONT5JoRONkXth71uDcx-7" value="LINE" style="swimlane;fontStyle=0;childLayout=stackLayout;horizontal=1;startSize=30;horizontalStack=0;resizeParent=1;resizeParentMax=0;resizeLast=0;collapsible=1;marginBottom=0;whiteSpace=wrap;html=1;fillColor=#0050ef;fontColor=#000000;strokeColor=#001DBC;labelBackgroundColor=none;" parent="1" vertex="1">
                    <mxGeometry x="940" y="560" width="90" height="90" as="geometry"/>
                </mxCell>
                <mxCell id="LONT5JoRONkXth71uDcx-8" value="lineID&amp;nbsp;&lt;b&gt;&lt;font color=&quot;#ff0000&quot;&gt;&amp;nbsp;&lt;/font&gt;&lt;/b&gt;" style="text;strokeColor=none;fillColor=none;align=left;verticalAlign=middle;spacingLeft=4;spacingRight=4;overflow=hidden;points=[[0,0.5],[1,0.5]];portConstraint=eastwest;rotatable=0;whiteSpace=wrap;html=1;fontColor=#000000;" parent="LONT5JoRONkXth71uDcx-7" vertex="1">
                    <mxGeometry y="30" width="90" height="30" as="geometry"/>
                </mxCell>
                <mxCell id="LONT5JoRONkXth71uDcx-9" value="name" style="text;strokeColor=none;fillColor=none;align=left;verticalAlign=middle;spacingLeft=4;spacingRight=4;overflow=hidden;points=[[0,0.5],[1,0.5]];portConstraint=eastwest;rotatable=0;whiteSpace=wrap;html=1;fontColor=#000000;" parent="LONT5JoRONkXth71uDcx-7" vertex="1">
                    <mxGeometry y="60" width="90" height="30" as="geometry"/>
                </mxCell>
                <mxCell id="LONT5JoRONkXth71uDcx-10" value="GEOSPATIAL DATA" style="swimlane;fontStyle=0;childLayout=stackLayout;horizontal=1;startSize=30;horizontalStack=0;resizeParent=1;resizeParentMax=0;resizeLast=0;collapsible=1;marginBottom=0;whiteSpace=wrap;html=1;fillColor=#0050ef;fontColor=#000000;strokeColor=#001DBC;labelBackgroundColor=none;" parent="1" vertex="1">
                    <mxGeometry x="600" y="560" width="190" height="90" as="geometry"/>
                </mxCell>
                <mxCell id="LONT5JoRONkXth71uDcx-11" value="geoShape" style="text;strokeColor=none;fillColor=none;align=left;verticalAlign=middle;spacingLeft=4;spacingRight=4;overflow=hidden;points=[[0,0.5],[1,0.5]];portConstraint=eastwest;rotatable=0;whiteSpace=wrap;html=1;fontColor=#000000;" parent="LONT5JoRONkXth71uDcx-10" vertex="1">
                    <mxGeometry y="30" width="190" height="30" as="geometry"/>
                </mxCell>
                <mxCell id="LONT5JoRONkXth71uDcx-12" value="geoPoint2D" style="text;strokeColor=none;fillColor=none;align=left;verticalAlign=middle;spacingLeft=4;spacingRight=4;overflow=hidden;points=[[0,0.5],[1,0.5]];portConstraint=eastwest;rotatable=0;whiteSpace=wrap;html=1;fontColor=#000000;" parent="LONT5JoRONkXth71uDcx-10" vertex="1">
                    <mxGeometry y="60" width="190" height="30" as="geometry"/>
                </mxCell>
                <mxCell id="LONT5JoRONkXth71uDcx-13" value="SERVICE" style="swimlane;fontStyle=0;childLayout=stackLayout;horizontal=1;startSize=30;horizontalStack=0;resizeParent=1;resizeParentMax=0;resizeLast=0;collapsible=1;marginBottom=0;whiteSpace=wrap;html=1;fillColor=#0050ef;fontColor=#000000;strokeColor=#001DBC;labelBackgroundColor=none;" parent="1" vertex="1">
                    <mxGeometry x="270" y="560" width="160" height="90" as="geometry"/>
                </mxCell>
                <mxCell id="LONT5JoRONkXth71uDcx-14" value="serviceID&amp;nbsp;&lt;b style=&quot;&quot;&gt;&lt;font color=&quot;#ff0000&quot;&gt;&amp;nbsp;&amp;nbsp;&lt;/font&gt;&lt;/b&gt;" style="text;strokeColor=none;fillColor=none;align=left;verticalAlign=middle;spacingLeft=4;spacingRight=4;overflow=hidden;points=[[0,0.5],[1,0.5]];portConstraint=eastwest;rotatable=0;whiteSpace=wrap;html=1;fontColor=#000000;" parent="LONT5JoRONkXth71uDcx-13" vertex="1">
                    <mxGeometry y="30" width="160" height="30" as="geometry"/>
                </mxCell>
                <mxCell id="LONT5JoRONkXth71uDcx-15" value="origin" style="text;strokeColor=none;fillColor=none;align=left;verticalAlign=middle;spacingLeft=4;spacingRight=4;overflow=hidden;points=[[0,0.5],[1,0.5]];portConstraint=eastwest;rotatable=0;whiteSpace=wrap;html=1;fontColor=#000000;" parent="LONT5JoRONkXth71uDcx-13" vertex="1">
                    <mxGeometry y="60" width="160" height="30" as="geometry"/>
                </mxCell>
                <mxCell id="LONT5JoRONkXth71uDcx-16" value="1,n" style="text;html=1;align=center;verticalAlign=middle;resizable=0;points=[];autosize=1;strokeColor=none;fillColor=none;fontColor=#000000;labelBackgroundColor=none;" parent="1" vertex="1">
                    <mxGeometry x="476" y="210" width="40" height="30" as="geometry"/>
                </mxCell>
                <mxCell id="LONT5JoRONkXth71uDcx-17" value="1,n" style="text;html=1;align=center;verticalAlign=middle;resizable=0;points=[];autosize=1;strokeColor=none;fillColor=none;fontColor=#000000;labelBackgroundColor=none;" parent="1" vertex="1">
                    <mxGeometry x="676" y="210" width="40" height="30" as="geometry"/>
                </mxCell>
                <mxCell id="LONT5JoRONkXth71uDcx-18" value="&lt;font color=&quot;#ff0000&quot; style=&quot;font-size: 16px;&quot;&gt;&lt;b&gt;Question 04&lt;/b&gt;&lt;/font&gt;" style="text;html=1;align=center;verticalAlign=middle;resizable=0;points=[];autosize=1;strokeColor=none;fillColor=none;fontColor=#000000;labelBackgroundColor=none;" parent="1" vertex="1">
                    <mxGeometry x="524" y="50" width="120" height="30" as="geometry"/>
                </mxCell>
                <mxCell id="LONT5JoRONkXth71uDcx-19" value="&lt;font color=&quot;#ff0000&quot;&gt;&lt;b&gt;&amp;nbsp; &amp;nbsp; &amp;nbsp; &amp;nbsp; &amp;nbsp; &amp;nbsp; &amp;nbsp; &amp;nbsp; &amp;nbsp; &amp;nbsp; &amp;nbsp; Conceptinal Data Model&lt;/b&gt;&lt;/font&gt;" style="text;html=1;align=center;verticalAlign=middle;resizable=0;points=[];autosize=1;strokeColor=none;fillColor=none;fontSize=16;fontColor=#000000;labelBackgroundColor=none;" parent="1" vertex="1">
                    <mxGeometry x="151" y="120" width="300" height="30" as="geometry"/>
                </mxCell>
                <mxCell id="LONT5JoRONkXth71uDcx-20" value="0,n" style="text;html=1;align=center;verticalAlign=middle;resizable=0;points=[];autosize=1;strokeColor=none;fillColor=none;fontColor=#000000;" parent="1" vertex="1">
                    <mxGeometry x="900" y="245" width="40" height="30" as="geometry"/>
                </mxCell>
                <mxCell id="LONT5JoRONkXth71uDcx-21" value="1,n" style="text;html=1;align=center;verticalAlign=middle;resizable=0;points=[];autosize=1;strokeColor=none;fillColor=none;fontColor=#000000;" parent="1" vertex="1">
                    <mxGeometry x="950" y="515" width="40" height="30" as="geometry"/>
                </mxCell>
                <mxCell id="LONT5JoRONkXth71uDcx-24" value="1,n" style="text;html=1;align=center;verticalAlign=middle;resizable=0;points=[];autosize=1;strokeColor=none;fillColor=none;fontColor=#000000;" parent="1" vertex="1">
                    <mxGeometry x="380" y="530" width="40" height="30" as="geometry"/>
                </mxCell>
                <mxCell id="LONT5JoRONkXth71uDcx-25" value="0,n" style="text;html=1;align=center;verticalAlign=middle;resizable=0;points=[];autosize=1;strokeColor=none;fillColor=none;fontColor=#000000;" parent="1" vertex="1">
                    <mxGeometry x="670" y="275" width="40" height="30" as="geometry"/>
                </mxCell>
                <mxCell id="LONT5JoRONkXth71uDcx-26" value="1,1" style="text;html=1;align=center;verticalAlign=middle;resizable=0;points=[];autosize=1;strokeColor=none;fillColor=none;fontColor=#000000;" parent="1" vertex="1">
                    <mxGeometry x="793" y="570" width="40" height="30" as="geometry"/>
                </mxCell>
                <mxCell id="LONT5JoRONkXth71uDcx-27" value="0,n" style="text;html=1;align=center;verticalAlign=middle;resizable=0;points=[];autosize=1;strokeColor=none;fillColor=none;fontColor=#000000;" parent="1" vertex="1">
                    <mxGeometry x="900" y="570" width="40" height="30" as="geometry"/>
                </mxCell>
                <mxCell id="LONT5JoRONkXth71uDcx-28" style="edgeStyle=none;html=1;exitX=1;exitY=0.5;exitDx=0;exitDy=0;entryX=0;entryY=0.5;entryDx=0;entryDy=0;labelBackgroundColor=none;strokeColor=#000000;fontColor=#000000;startArrow=none;startFill=0;endArrow=none;endFill=0;" parent="1" source="LONT5JoRONkXth71uDcx-29" target="LONT5JoRONkXth71uDcx-5" edge="1">
                    <mxGeometry relative="1" as="geometry"/>
                </mxCell>
                <mxCell id="LONT5JoRONkXth71uDcx-29" value="operate" style="rounded=1;whiteSpace=wrap;html=1;labelBackgroundColor=none;fontColor=#000000;fillColor=none;strokeColor=#000000;" parent="1" vertex="1">
                    <mxGeometry x="555" y="225" width="50" height="30" as="geometry"/>
                </mxCell>
                <mxCell id="LONT5JoRONkXth71uDcx-45" style="edgeStyle=none;html=1;exitX=1;exitY=0.5;exitDx=0;exitDy=0;labelBackgroundColor=none;strokeColor=#000000;fontColor=#000000;startArrow=none;startFill=0;endArrow=none;endFill=0;" parent="1" source="LONT5JoRONkXth71uDcx-31" target="LONT5JoRONkXth71uDcx-8" edge="1">
                    <mxGeometry relative="1" as="geometry"/>
                </mxCell>
                <mxCell id="LONT5JoRONkXth71uDcx-31" value="have" style="rounded=1;whiteSpace=wrap;html=1;labelBackgroundColor=none;fontColor=#000000;fillColor=none;strokeColor=#000000;" parent="1" vertex="1">
                    <mxGeometry x="840" y="590" width="40" height="30" as="geometry"/>
                </mxCell>
                <mxCell id="LONT5JoRONkXth71uDcx-32" style="edgeStyle=none;html=1;exitX=0.5;exitY=1;exitDx=0;exitDy=0;entryX=0.5;entryY=0;entryDx=0;entryDy=0;labelBackgroundColor=none;strokeColor=#000000;fontColor=#000000;startArrow=none;startFill=0;endArrow=none;endFill=0;" parent="1" source="LONT5JoRONkXth71uDcx-33" target="LONT5JoRONkXth71uDcx-7" edge="1">
                    <mxGeometry relative="1" as="geometry"/>
                </mxCell>
                <mxCell id="LONT5JoRONkXth71uDcx-33" value="have" style="rounded=1;whiteSpace=wrap;html=1;labelBackgroundColor=none;fontColor=#000000;fillColor=none;strokeColor=#000000;" parent="1" vertex="1">
                    <mxGeometry x="960" y="399" width="50" height="30" as="geometry"/>
                </mxCell>
                <mxCell id="LONT5JoRONkXth71uDcx-36" style="edgeStyle=none;html=1;exitX=0.5;exitY=1;exitDx=0;exitDy=0;entryX=0.656;entryY=0.011;entryDx=0;entryDy=0;entryPerimeter=0;labelBackgroundColor=none;strokeColor=#000000;fontColor=#000000;startArrow=none;startFill=0;endArrow=none;endFill=0;" parent="1" source="LONT5JoRONkXth71uDcx-37" target="LONT5JoRONkXth71uDcx-13" edge="1">
                    <mxGeometry relative="1" as="geometry"/>
                </mxCell>
                <mxCell id="LONT5JoRONkXth71uDcx-37" value="have" style="rounded=1;whiteSpace=wrap;html=1;labelBackgroundColor=none;fontColor=#000000;fillColor=none;strokeColor=#000000;" parent="1" vertex="1">
                    <mxGeometry x="350" y="414" width="50" height="30" as="geometry"/>
                </mxCell>
                <mxCell id="LONT5JoRONkXth71uDcx-38" value="" style="endArrow=none;html=1;labelBackgroundColor=none;strokeColor=#000000;fontColor=#000000;exitX=1;exitY=0.5;exitDx=0;exitDy=0;entryX=0;entryY=0.5;entryDx=0;entryDy=0;" parent="1" source="LONT5JoRONkXth71uDcx-2" target="LONT5JoRONkXth71uDcx-29" edge="1">
                    <mxGeometry width="50" height="50" relative="1" as="geometry">
                        <mxPoint x="630" y="380" as="sourcePoint"/>
                        <mxPoint x="680" y="330" as="targetPoint"/>
                    </mxGeometry>
                </mxCell>
                <mxCell id="LONT5JoRONkXth71uDcx-39" style="edgeStyle=none;html=1;exitX=1;exitY=0.5;exitDx=0;exitDy=0;entryX=0.5;entryY=0;entryDx=0;entryDy=0;labelBackgroundColor=none;strokeColor=#000000;fontColor=#000000;startArrow=none;startFill=0;endArrow=none;endFill=0;" parent="1" source="LONT5JoRONkXth71uDcx-5" target="LONT5JoRONkXth71uDcx-33" edge="1">
                    <mxGeometry relative="1" as="geometry">
                        <Array as="points">
                            <mxPoint x="985" y="240"/>
                        </Array>
                    </mxGeometry>
                </mxCell>
                <mxCell id="LONT5JoRONkXth71uDcx-42" style="edgeStyle=none;html=1;exitX=0;exitY=0.5;exitDx=0;exitDy=0;entryX=0.5;entryY=0;entryDx=0;entryDy=0;labelBackgroundColor=none;strokeColor=#000000;fontColor=#000000;startArrow=none;startFill=0;endArrow=none;endFill=0;" parent="1" source="LONT5JoRONkXth71uDcx-6" target="LONT5JoRONkXth71uDcx-37" edge="1">
                    <mxGeometry relative="1" as="geometry">
                        <Array as="points">
                            <mxPoint x="520" y="270"/>
                            <mxPoint x="520" y="360"/>
                            <mxPoint x="375" y="360"/>
                        </Array>
                    </mxGeometry>
                </mxCell>
                <mxCell id="LONT5JoRONkXth71uDcx-44" style="edgeStyle=none;html=1;exitX=1;exitY=0.5;exitDx=0;exitDy=0;entryX=0;entryY=0.5;entryDx=0;entryDy=0;labelBackgroundColor=none;strokeColor=#000000;fontColor=#000000;startArrow=none;startFill=0;endArrow=none;endFill=0;" parent="1" source="LONT5JoRONkXth71uDcx-11" target="LONT5JoRONkXth71uDcx-31" edge="1">
                    <mxGeometry relative="1" as="geometry"/>
                </mxCell>
            </root>
        </mxGraphModel>
    </diagram>
    <diagram id="kIQ_3k9Ho4BRkniPqVIA" name="Page-9">
        <mxGraphModel dx="655" dy="544" grid="1" gridSize="10" guides="1" tooltips="1" connect="1" arrows="1" fold="1" page="1" pageScale="1" pageWidth="1169" pageHeight="827" background="#ffffff" math="0" shadow="0">
            <root>
                <mxCell id="0"/>
                <mxCell id="1" parent="0"/>
                <mxCell id="IFWjLVL0c1hYIFnCIUrl-1" value="OPERATOR" style="swimlane;fontStyle=0;childLayout=stackLayout;horizontal=1;startSize=30;horizontalStack=0;resizeParent=1;resizeParentMax=0;resizeLast=0;collapsible=1;marginBottom=0;whiteSpace=wrap;html=1;fillColor=#0050ef;fontColor=#000000;strokeColor=#001DBC;labelBackgroundColor=none;" parent="1" vertex="1">
                    <mxGeometry x="270" y="195" width="196" height="120" as="geometry"/>
                </mxCell>
                <mxCell id="IFWjLVL0c1hYIFnCIUrl-2" value="operatorID &lt;b&gt;&lt;font color=&quot;#ff0000&quot;&gt;PK&lt;/font&gt;&lt;/b&gt;&amp;nbsp;&lt;b style=&quot;&quot;&gt;&lt;font color=&quot;#ff0000&quot;&gt;&amp;nbsp;&lt;/font&gt;&lt;font color=&quot;#0000ff&quot;&gt;INTEGER&lt;/font&gt;&lt;/b&gt;&amp;nbsp;" style="text;strokeColor=none;fillColor=none;align=left;verticalAlign=middle;spacingLeft=4;spacingRight=4;overflow=hidden;points=[[0,0.5],[1,0.5]];portConstraint=eastwest;rotatable=0;whiteSpace=wrap;html=1;fontColor=#000000;" parent="IFWjLVL0c1hYIFnCIUrl-1" vertex="1">
                    <mxGeometry y="30" width="196" height="30" as="geometry"/>
                </mxCell>
                <mxCell id="IFWjLVL0c1hYIFnCIUrl-3" value="operatorName &lt;b&gt;&lt;font color=&quot;#0000ff&quot;&gt;VARCHAR&lt;/font&gt;&lt;/b&gt;&amp;nbsp;" style="text;strokeColor=none;fillColor=none;align=left;verticalAlign=middle;spacingLeft=4;spacingRight=4;overflow=hidden;points=[[0,0.5],[1,0.5]];portConstraint=eastwest;rotatable=0;whiteSpace=wrap;html=1;fontColor=#000000;" parent="IFWjLVL0c1hYIFnCIUrl-1" vertex="1">
                    <mxGeometry y="60" width="196" height="30" as="geometry"/>
                </mxCell>
                <mxCell id="ldsDt0SH4hGhrWEDoTth-1" value="lineID &lt;b&gt;&lt;font color=&quot;#ff0000&quot;&gt;FK&lt;/font&gt;&lt;/b&gt;&amp;nbsp;&lt;b style=&quot;&quot;&gt;&lt;font color=&quot;#ff0000&quot;&gt;&amp;nbsp;&lt;/font&gt;&lt;font color=&quot;#0000ff&quot;&gt;INTEGER&lt;/font&gt;&lt;/b&gt;&amp;nbsp;" style="text;strokeColor=none;fillColor=none;align=left;verticalAlign=middle;spacingLeft=4;spacingRight=4;overflow=hidden;points=[[0,0.5],[1,0.5]];portConstraint=eastwest;rotatable=0;whiteSpace=wrap;html=1;fontColor=#000000;" vertex="1" parent="IFWjLVL0c1hYIFnCIUrl-1">
                    <mxGeometry y="90" width="196" height="30" as="geometry"/>
                </mxCell>
                <mxCell id="IFWjLVL0c1hYIFnCIUrl-4" value="VEHICLE" style="swimlane;fontStyle=0;childLayout=stackLayout;horizontal=1;startSize=30;horizontalStack=0;resizeParent=1;resizeParentMax=0;resizeLast=0;collapsible=1;marginBottom=0;whiteSpace=wrap;html=1;fillColor=#0050ef;fontColor=#000000;strokeColor=#001DBC;labelBackgroundColor=none;" parent="1" vertex="1">
                    <mxGeometry x="726" y="195" width="174" height="120" as="geometry"/>
                </mxCell>
                <mxCell id="IFWjLVL0c1hYIFnCIUrl-5" value="vehicleID &lt;b&gt;&lt;font color=&quot;#ff0000&quot;&gt;PK INTEGER&lt;/font&gt;&lt;/b&gt;&lt;b style=&quot;&quot;&gt;&lt;font color=&quot;#ff0000&quot;&gt;&amp;nbsp;&lt;/font&gt;&lt;/b&gt;" style="text;strokeColor=none;fillColor=none;align=left;verticalAlign=middle;spacingLeft=4;spacingRight=4;overflow=hidden;points=[[0,0.5],[1,0.5]];portConstraint=eastwest;rotatable=0;whiteSpace=wrap;html=1;fontColor=#000000;" parent="IFWjLVL0c1hYIFnCIUrl-4" vertex="1">
                    <mxGeometry y="30" width="174" height="30" as="geometry"/>
                </mxCell>
                <mxCell id="IFWjLVL0c1hYIFnCIUrl-39" value="lineID &lt;b&gt;&lt;font color=&quot;#ff0000&quot;&gt;FK &lt;/font&gt;&lt;font color=&quot;#0000ff&quot;&gt;INTEGER&lt;/font&gt;&lt;/b&gt;&lt;b style=&quot;&quot;&gt;&lt;font color=&quot;#ff0000&quot;&gt;&amp;nbsp;&lt;/font&gt;&lt;/b&gt;" style="text;strokeColor=none;fillColor=none;align=left;verticalAlign=middle;spacingLeft=4;spacingRight=4;overflow=hidden;points=[[0,0.5],[1,0.5]];portConstraint=eastwest;rotatable=0;whiteSpace=wrap;html=1;fontColor=#000000;" parent="IFWjLVL0c1hYIFnCIUrl-4" vertex="1">
                    <mxGeometry y="60" width="174" height="30" as="geometry"/>
                </mxCell>
                <mxCell id="IFWjLVL0c1hYIFnCIUrl-40" value="&lt;font style=&quot;&quot;&gt;vehicleType&lt;/font&gt;&lt;font style=&quot;font-weight: bold;&quot; color=&quot;#ff0000&quot;&gt;&amp;nbsp;&lt;/font&gt;&lt;font color=&quot;#0000ff&quot; style=&quot;font-weight: bold;&quot;&gt;VARCHAR&lt;/font&gt;&lt;b style=&quot;&quot;&gt;&lt;font color=&quot;#ff0000&quot;&gt;&amp;nbsp;&lt;/font&gt;&lt;/b&gt;" style="text;strokeColor=none;fillColor=none;align=left;verticalAlign=middle;spacingLeft=4;spacingRight=4;overflow=hidden;points=[[0,0.5],[1,0.5]];portConstraint=eastwest;rotatable=0;whiteSpace=wrap;html=1;fontColor=#000000;" parent="IFWjLVL0c1hYIFnCIUrl-4" vertex="1">
                    <mxGeometry y="90" width="174" height="30" as="geometry"/>
                </mxCell>
                <mxCell id="IFWjLVL0c1hYIFnCIUrl-7" value="LINE" style="swimlane;fontStyle=0;childLayout=stackLayout;horizontal=1;startSize=30;horizontalStack=0;resizeParent=1;resizeParentMax=0;resizeLast=0;collapsible=1;marginBottom=0;whiteSpace=wrap;html=1;fillColor=#0050ef;fontColor=#000000;strokeColor=#001DBC;labelBackgroundColor=none;" parent="1" vertex="1">
                    <mxGeometry x="940" y="560" width="170" height="210" as="geometry"/>
                </mxCell>
                <mxCell id="IFWjLVL0c1hYIFnCIUrl-8" value="lineID &lt;b&gt;&lt;font color=&quot;#ff0000&quot;&gt;PK&lt;/font&gt;&lt;font color=&quot;#0000ff&quot;&gt; INTEGER&lt;/font&gt;&lt;/b&gt;&amp;nbsp;&lt;b&gt;&lt;font color=&quot;#ff0000&quot;&gt;&amp;nbsp;&lt;/font&gt;&lt;/b&gt;" style="text;strokeColor=none;fillColor=none;align=left;verticalAlign=middle;spacingLeft=4;spacingRight=4;overflow=hidden;points=[[0,0.5],[1,0.5]];portConstraint=eastwest;rotatable=0;whiteSpace=wrap;html=1;fontColor=#000000;" parent="IFWjLVL0c1hYIFnCIUrl-7" vertex="1">
                    <mxGeometry y="30" width="170" height="30" as="geometry"/>
                </mxCell>
                <mxCell id="H1BGp3vmY_JAtEMGcqi3-1" value="operaterID &lt;b&gt;&lt;font color=&quot;#ff0000&quot;&gt;FK&lt;/font&gt;&lt;font color=&quot;#0000ff&quot;&gt; INTEGER&lt;/font&gt;&lt;/b&gt;&amp;nbsp;&lt;b&gt;&lt;font color=&quot;#ff0000&quot;&gt;&amp;nbsp;&lt;/font&gt;&lt;/b&gt;" style="text;strokeColor=none;fillColor=none;align=left;verticalAlign=middle;spacingLeft=4;spacingRight=4;overflow=hidden;points=[[0,0.5],[1,0.5]];portConstraint=eastwest;rotatable=0;whiteSpace=wrap;html=1;fontColor=#000000;" parent="IFWjLVL0c1hYIFnCIUrl-7" vertex="1">
                    <mxGeometry y="60" width="170" height="30" as="geometry"/>
                </mxCell>
                <mxCell id="H1BGp3vmY_JAtEMGcqi3-2" value="&lt;font style=&quot;&quot;&gt;lineName&lt;/font&gt;&lt;font style=&quot;font-weight: bold;&quot; color=&quot;#0000ff&quot;&gt;&amp;nbsp; VARCHAR&lt;/font&gt;&amp;nbsp;&lt;b&gt;&lt;font color=&quot;#ff0000&quot;&gt;&amp;nbsp;&lt;/font&gt;&lt;/b&gt;" style="text;strokeColor=none;fillColor=none;align=left;verticalAlign=middle;spacingLeft=4;spacingRight=4;overflow=hidden;points=[[0,0.5],[1,0.5]];portConstraint=eastwest;rotatable=0;whiteSpace=wrap;html=1;fontColor=#000000;" parent="IFWjLVL0c1hYIFnCIUrl-7" vertex="1">
                    <mxGeometry y="90" width="170" height="30" as="geometry"/>
                </mxCell>
                <mxCell id="H1BGp3vmY_JAtEMGcqi3-3" value="&lt;font style=&quot;&quot;&gt;lineStatus&lt;/font&gt;&lt;font style=&quot;font-weight: bold;&quot; color=&quot;#0000ff&quot;&gt;&amp;nbsp; VARCHAR&lt;/font&gt;&amp;nbsp;&lt;b&gt;&lt;font color=&quot;#ff0000&quot;&gt;&amp;nbsp;&lt;/font&gt;&lt;/b&gt;" style="text;strokeColor=none;fillColor=none;align=left;verticalAlign=middle;spacingLeft=4;spacingRight=4;overflow=hidden;points=[[0,0.5],[1,0.5]];portConstraint=eastwest;rotatable=0;whiteSpace=wrap;html=1;fontColor=#000000;" parent="IFWjLVL0c1hYIFnCIUrl-7" vertex="1">
                    <mxGeometry y="120" width="170" height="30" as="geometry"/>
                </mxCell>
                <mxCell id="H1BGp3vmY_JAtEMGcqi3-4" value="&lt;font style=&quot;&quot;&gt;skill&lt;/font&gt;&lt;font style=&quot;font-weight: bold;&quot; color=&quot;#0000ff&quot;&gt;&amp;nbsp; VARCHAR&lt;/font&gt;&amp;nbsp;&lt;b&gt;&lt;font color=&quot;#ff0000&quot;&gt;&amp;nbsp;&lt;/font&gt;&lt;/b&gt;" style="text;strokeColor=none;fillColor=none;align=left;verticalAlign=middle;spacingLeft=4;spacingRight=4;overflow=hidden;points=[[0,0.5],[1,0.5]];portConstraint=eastwest;rotatable=0;whiteSpace=wrap;html=1;fontColor=#000000;" parent="IFWjLVL0c1hYIFnCIUrl-7" vertex="1">
                    <mxGeometry y="150" width="170" height="30" as="geometry"/>
                </mxCell>
                <mxCell id="H1BGp3vmY_JAtEMGcqi3-5" value="&lt;font style=&quot;&quot;&gt;accessible&lt;/font&gt;&lt;font style=&quot;font-weight: bold;&quot; color=&quot;#0000ff&quot;&gt;&amp;nbsp; BOOLEAN&lt;/font&gt;&amp;nbsp;&lt;b&gt;&lt;font color=&quot;#ff0000&quot;&gt;&amp;nbsp;&lt;/font&gt;&lt;/b&gt;" style="text;strokeColor=none;fillColor=none;align=left;verticalAlign=middle;spacingLeft=4;spacingRight=4;overflow=hidden;points=[[0,0.5],[1,0.5]];portConstraint=eastwest;rotatable=0;whiteSpace=wrap;html=1;fontColor=#000000;" parent="IFWjLVL0c1hYIFnCIUrl-7" vertex="1">
                    <mxGeometry y="180" width="170" height="30" as="geometry"/>
                </mxCell>
                <mxCell id="IFWjLVL0c1hYIFnCIUrl-10" value="GEOSPATIAL DATA" style="swimlane;fontStyle=0;childLayout=stackLayout;horizontal=1;startSize=30;horizontalStack=0;resizeParent=1;resizeParentMax=0;resizeLast=0;collapsible=1;marginBottom=0;whiteSpace=wrap;html=1;fillColor=#0050ef;fontColor=#000000;strokeColor=#001DBC;labelBackgroundColor=none;" parent="1" vertex="1">
                    <mxGeometry x="600" y="560" width="190" height="120" as="geometry"/>
                </mxCell>
                <mxCell id="IFWjLVL0c1hYIFnCIUrl-11" value="geoShape &lt;b&gt;&lt;font color=&quot;#0000ff&quot;&gt;GEOMETRY&lt;/font&gt;&lt;/b&gt;" style="text;strokeColor=none;fillColor=none;align=left;verticalAlign=middle;spacingLeft=4;spacingRight=4;overflow=hidden;points=[[0,0.5],[1,0.5]];portConstraint=eastwest;rotatable=0;whiteSpace=wrap;html=1;fontColor=#000000;" parent="IFWjLVL0c1hYIFnCIUrl-10" vertex="1">
                    <mxGeometry y="30" width="190" height="30" as="geometry"/>
                </mxCell>
                <mxCell id="IFWjLVL0c1hYIFnCIUrl-12" value="geoPoint2D &lt;b&gt;&lt;font color=&quot;#0000ff&quot;&gt;POINT&lt;/font&gt;&lt;/b&gt;" style="text;strokeColor=none;fillColor=none;align=left;verticalAlign=middle;spacingLeft=4;spacingRight=4;overflow=hidden;points=[[0,0.5],[1,0.5]];portConstraint=eastwest;rotatable=0;whiteSpace=wrap;html=1;fontColor=#000000;" parent="IFWjLVL0c1hYIFnCIUrl-10" vertex="1">
                    <mxGeometry y="60" width="190" height="30" as="geometry"/>
                </mxCell>
                <mxCell id="ldsDt0SH4hGhrWEDoTth-2" value="lineID &lt;b&gt;&lt;font color=&quot;#ff0000&quot;&gt;FK&lt;/font&gt;&lt;/b&gt;&amp;nbsp;&lt;font color=&quot;#0000ff&quot;&gt;&lt;b&gt;INTEGER&lt;/b&gt;&lt;/font&gt;" style="text;strokeColor=none;fillColor=none;align=left;verticalAlign=middle;spacingLeft=4;spacingRight=4;overflow=hidden;points=[[0,0.5],[1,0.5]];portConstraint=eastwest;rotatable=0;whiteSpace=wrap;html=1;fontColor=#000000;" vertex="1" parent="IFWjLVL0c1hYIFnCIUrl-10">
                    <mxGeometry y="90" width="190" height="30" as="geometry"/>
                </mxCell>
                <mxCell id="IFWjLVL0c1hYIFnCIUrl-13" value="SERVICE" style="swimlane;fontStyle=0;childLayout=stackLayout;horizontal=1;startSize=30;horizontalStack=0;resizeParent=1;resizeParentMax=0;resizeLast=0;collapsible=1;marginBottom=0;whiteSpace=wrap;html=1;fillColor=#0050ef;fontColor=#000000;strokeColor=#001DBC;labelBackgroundColor=none;" parent="1" vertex="1">
                    <mxGeometry x="270" y="560" width="160" height="180" as="geometry"/>
                </mxCell>
                <mxCell id="IFWjLVL0c1hYIFnCIUrl-14" value="serviceID &lt;b&gt;&lt;font color=&quot;#ff0000&quot;&gt;PK&lt;/font&gt;&lt;font color=&quot;#0000ff&quot;&gt; INTEGER&lt;/font&gt;&lt;/b&gt;&lt;b style=&quot;&quot;&gt;&lt;font color=&quot;#ff0000&quot;&gt;&amp;nbsp;&amp;nbsp;&lt;/font&gt;&lt;/b&gt;" style="text;strokeColor=none;fillColor=none;align=left;verticalAlign=middle;spacingLeft=4;spacingRight=4;overflow=hidden;points=[[0,0.5],[1,0.5]];portConstraint=eastwest;rotatable=0;whiteSpace=wrap;html=1;fontColor=#000000;" parent="IFWjLVL0c1hYIFnCIUrl-13" vertex="1">
                    <mxGeometry y="30" width="160" height="30" as="geometry"/>
                </mxCell>
                <mxCell id="IFWjLVL0c1hYIFnCIUrl-15" value="lineID &lt;b&gt;&lt;font color=&quot;#ff0000&quot;&gt;FK&lt;/font&gt;&lt;font color=&quot;#0000ff&quot;&gt; INTEGER&lt;/font&gt;&lt;/b&gt;" style="text;strokeColor=none;fillColor=none;align=left;verticalAlign=middle;spacingLeft=4;spacingRight=4;overflow=hidden;points=[[0,0.5],[1,0.5]];portConstraint=eastwest;rotatable=0;whiteSpace=wrap;html=1;fontColor=#000000;" parent="IFWjLVL0c1hYIFnCIUrl-13" vertex="1">
                    <mxGeometry y="60" width="160" height="30" as="geometry"/>
                </mxCell>
                <mxCell id="IFWjLVL0c1hYIFnCIUrl-41" value="&lt;font style=&quot;&quot;&gt;serviceType&lt;/font&gt;&lt;font style=&quot;font-weight: bold;&quot; color=&quot;#0000ff&quot;&gt; VARCHAR&lt;/font&gt;" style="text;strokeColor=none;fillColor=none;align=left;verticalAlign=middle;spacingLeft=4;spacingRight=4;overflow=hidden;points=[[0,0.5],[1,0.5]];portConstraint=eastwest;rotatable=0;whiteSpace=wrap;html=1;fontColor=#000000;" parent="IFWjLVL0c1hYIFnCIUrl-13" vertex="1">
                    <mxGeometry y="90" width="160" height="30" as="geometry"/>
                </mxCell>
                <mxCell id="IFWjLVL0c1hYIFnCIUrl-42" value="&lt;font style=&quot;&quot;&gt;origin&lt;/font&gt;&lt;font style=&quot;font-weight: bold;&quot; color=&quot;#0000ff&quot;&gt; VARCHAR&lt;/font&gt;" style="text;strokeColor=none;fillColor=none;align=left;verticalAlign=middle;spacingLeft=4;spacingRight=4;overflow=hidden;points=[[0,0.5],[1,0.5]];portConstraint=eastwest;rotatable=0;whiteSpace=wrap;html=1;fontColor=#000000;" parent="IFWjLVL0c1hYIFnCIUrl-13" vertex="1">
                    <mxGeometry y="120" width="160" height="30" as="geometry"/>
                </mxCell>
                <mxCell id="IFWjLVL0c1hYIFnCIUrl-43" value="&lt;font style=&quot;&quot;&gt;destination&lt;/font&gt;&lt;font style=&quot;font-weight: bold;&quot; color=&quot;#0000ff&quot;&gt; VARCHAR&lt;/font&gt;" style="text;strokeColor=none;fillColor=none;align=left;verticalAlign=middle;spacingLeft=4;spacingRight=4;overflow=hidden;points=[[0,0.5],[1,0.5]];portConstraint=eastwest;rotatable=0;whiteSpace=wrap;html=1;fontColor=#000000;" parent="IFWjLVL0c1hYIFnCIUrl-13" vertex="1">
                    <mxGeometry y="150" width="160" height="30" as="geometry"/>
                </mxCell>
                <mxCell id="IFWjLVL0c1hYIFnCIUrl-16" value="1,n" style="text;html=1;align=center;verticalAlign=middle;resizable=0;points=[];autosize=1;strokeColor=none;fillColor=none;fontColor=#000000;labelBackgroundColor=none;" parent="1" vertex="1">
                    <mxGeometry x="476" y="210" width="40" height="30" as="geometry"/>
                </mxCell>
                <mxCell id="IFWjLVL0c1hYIFnCIUrl-17" value="1,n" style="text;html=1;align=center;verticalAlign=middle;resizable=0;points=[];autosize=1;strokeColor=none;fillColor=none;fontColor=#000000;labelBackgroundColor=none;" parent="1" vertex="1">
                    <mxGeometry x="676" y="210" width="40" height="30" as="geometry"/>
                </mxCell>
                <mxCell id="IFWjLVL0c1hYIFnCIUrl-18" value="&lt;font color=&quot;#ff0000&quot; style=&quot;font-size: 16px;&quot;&gt;&lt;b&gt;Question 04&lt;/b&gt;&lt;/font&gt;" style="text;html=1;align=center;verticalAlign=middle;resizable=0;points=[];autosize=1;strokeColor=none;fillColor=none;fontColor=#000000;labelBackgroundColor=none;" parent="1" vertex="1">
                    <mxGeometry x="524" y="50" width="120" height="30" as="geometry"/>
                </mxCell>
                <mxCell id="IFWjLVL0c1hYIFnCIUrl-19" value="&lt;font color=&quot;#ff0000&quot;&gt;&lt;b&gt;&amp;nbsp; &amp;nbsp; &amp;nbsp; &amp;nbsp; &amp;nbsp; &amp;nbsp; &amp;nbsp; &amp;nbsp; &amp;nbsp; &amp;nbsp; &amp;nbsp; Conceptinal Data Model&lt;/b&gt;&lt;/font&gt;" style="text;html=1;align=center;verticalAlign=middle;resizable=0;points=[];autosize=1;strokeColor=none;fillColor=none;fontSize=16;fontColor=#000000;labelBackgroundColor=none;" parent="1" vertex="1">
                    <mxGeometry x="151" y="120" width="300" height="30" as="geometry"/>
                </mxCell>
                <mxCell id="IFWjLVL0c1hYIFnCIUrl-20" value="0,n" style="text;html=1;align=center;verticalAlign=middle;resizable=0;points=[];autosize=1;strokeColor=none;fillColor=none;fontColor=#000000;" parent="1" vertex="1">
                    <mxGeometry x="900" y="225" width="40" height="30" as="geometry"/>
                </mxCell>
                <mxCell id="IFWjLVL0c1hYIFnCIUrl-21" value="1,n" style="text;html=1;align=center;verticalAlign=middle;resizable=0;points=[];autosize=1;strokeColor=none;fillColor=none;fontColor=#000000;" parent="1" vertex="1">
                    <mxGeometry x="960" y="530" width="40" height="30" as="geometry"/>
                </mxCell>
                <mxCell id="IFWjLVL0c1hYIFnCIUrl-22" value="1,n" style="text;html=1;align=center;verticalAlign=middle;resizable=0;points=[];autosize=1;strokeColor=none;fillColor=none;fontColor=#000000;" parent="1" vertex="1">
                    <mxGeometry x="380" y="530" width="40" height="30" as="geometry"/>
                </mxCell>
                <mxCell id="IFWjLVL0c1hYIFnCIUrl-23" value="0,n" style="text;html=1;align=center;verticalAlign=middle;resizable=0;points=[];autosize=1;strokeColor=none;fillColor=none;fontColor=#000000;" parent="1" vertex="1">
                    <mxGeometry x="670" y="275" width="40" height="30" as="geometry"/>
                </mxCell>
                <mxCell id="IFWjLVL0c1hYIFnCIUrl-24" value="1,1" style="text;html=1;align=center;verticalAlign=middle;resizable=0;points=[];autosize=1;strokeColor=none;fillColor=none;fontColor=#000000;" parent="1" vertex="1">
                    <mxGeometry x="793" y="570" width="40" height="30" as="geometry"/>
                </mxCell>
                <mxCell id="IFWjLVL0c1hYIFnCIUrl-25" value="0,n" style="text;html=1;align=center;verticalAlign=middle;resizable=0;points=[];autosize=1;strokeColor=none;fillColor=none;fontColor=#000000;" parent="1" vertex="1">
                    <mxGeometry x="900" y="570" width="40" height="30" as="geometry"/>
                </mxCell>
                <mxCell id="IFWjLVL0c1hYIFnCIUrl-38" style="edgeStyle=none;html=1;exitX=1;exitY=0.5;exitDx=0;exitDy=0;entryX=0;entryY=0.5;entryDx=0;entryDy=0;fontColor=#0000FF;strokeColor=#000000;" parent="1" source="IFWjLVL0c1hYIFnCIUrl-2" target="IFWjLVL0c1hYIFnCIUrl-5" edge="1">
                    <mxGeometry relative="1" as="geometry"/>
                </mxCell>
                <mxCell id="IFWjLVL0c1hYIFnCIUrl-44" style="edgeStyle=none;html=1;exitX=0;exitY=0.5;exitDx=0;exitDy=0;entryX=0.5;entryY=0;entryDx=0;entryDy=0;strokeColor=#000000;fontColor=#0000FF;" parent="1" source="IFWjLVL0c1hYIFnCIUrl-39" target="IFWjLVL0c1hYIFnCIUrl-13" edge="1">
                    <mxGeometry relative="1" as="geometry">
                        <Array as="points">
                            <mxPoint x="560" y="270"/>
                            <mxPoint x="560" y="400"/>
                            <mxPoint x="350" y="400"/>
                        </Array>
                    </mxGeometry>
                </mxCell>
                <mxCell id="IFWjLVL0c1hYIFnCIUrl-45" style="edgeStyle=none;html=1;exitX=1;exitY=0.5;exitDx=0;exitDy=0;strokeColor=#000000;fontColor=#0000FF;entryX=0.406;entryY=-0.039;entryDx=0;entryDy=0;entryPerimeter=0;" parent="1" source="IFWjLVL0c1hYIFnCIUrl-39" target="IFWjLVL0c1hYIFnCIUrl-7" edge="1">
                    <mxGeometry relative="1" as="geometry">
                        <mxPoint x="1010" y="550" as="targetPoint"/>
                        <Array as="points">
                            <mxPoint x="1008" y="270"/>
                        </Array>
                    </mxGeometry>
                </mxCell>
                <mxCell id="IFWjLVL0c1hYIFnCIUrl-47" style="edgeStyle=none;html=1;exitX=0;exitY=0.5;exitDx=0;exitDy=0;entryX=1;entryY=0.5;entryDx=0;entryDy=0;strokeColor=#000000;fontColor=#0000FF;" parent="1" source="IFWjLVL0c1hYIFnCIUrl-8" target="IFWjLVL0c1hYIFnCIUrl-11" edge="1">
                    <mxGeometry relative="1" as="geometry"/>
                </mxCell>
            </root>
        </mxGraphModel>
    </diagram>
</mxfile>